<?xml version="1.0" encoding="UTF-8" standalone="no"?>
<!DOCTYPE svg PUBLIC "-//W3C//DTD SVG 1.1//EN" "http://www.w3.org/Graphics/SVG/1.1/DTD/svg11.dtd">
<svg xmlns="http://www.w3.org/2000/svg" version="1.1" viewBox="0.00 0.00 800.00 800.00">
<g stroke-width="2.00" fill="none" stroke-linecap="butt">
<path stroke="#cbcbcb" vector-effect="non-scaling-stroke" d="
  M 485.88 153.37
  L 475.74 151.81"
/>
<path stroke="#cbcbcb" vector-effect="non-scaling-stroke" d="
  M 438.17 145.67
  L 427.17 143.98"
/>
<path stroke="#cbcbcb" vector-effect="non-scaling-stroke" d="
  M 420.02 142.88
  L 405.89 140.26"
/>
<path stroke="#c0c5cd" vector-effect="non-scaling-stroke" d="
  M 376.79 116.72
  L 375.89 107.74"
/>
<path stroke="#cbcbcb" vector-effect="non-scaling-stroke" d="
  M 366.96 131.26
  Q 358.79 128.81 355.40 122.74"
/>
<path stroke="#cbcbcb" vector-effect="non-scaling-stroke" d="
  M 532.61 292.11
  L 522.65 295.17"
/>
<path stroke="#cbcbcb" vector-effect="non-scaling-stroke" d="
  M 485.29 307.07
  L 478.19 309.49"
/>
<path stroke="#cbcbcb" vector-effect="non-scaling-stroke" d="
  M 476.69 310.17
  L 468.03 313.23"
/>
<path stroke="#cbcbcb" vector-effect="non-scaling-stroke" d="
  M 431.44 327.43
  L 424.66 330.39"
/>
<path stroke="#cbcbcb" vector-effect="non-scaling-stroke" d="
  M 421.98 331.32
  L 410.78 336.08"
/>
<path stroke="#cbcbcb" vector-effect="non-scaling-stroke" d="
  M 372.41 354.00
  L 360.84 359.90"
/>
<path stroke="#cbcbcb" vector-effect="non-scaling-stroke" d="
  M 336.70 373.27
  Q 331.69 375.62 327.12 378.87
  Q 325.66 379.92 321.19 380.88"
/>
<path stroke="#c0c5cd" vector-effect="non-scaling-stroke" d="
  M 390.32 505.80
  L 384.21 495.78"
/>
<path stroke="#c0c5cd" vector-effect="non-scaling-stroke" d="
  M 363.71 467.25
  Q 361.37 464.79 361.37 462.45"
/>
<path stroke="#c0c5cd" vector-effect="non-scaling-stroke" d="
  M 350.57 444.51
  Q 349.22 441.78 346.84 440.16"
/>
<path stroke="#c0c5cd" vector-effect="non-scaling-stroke" d="
  M 346.25 415.41
  L 342.73 409.51"
/>
</g>
<path fill="#ededee" d="
  M 485.88 153.37
  L 475.74 151.81
  L 463.64 128.33
  A 0.48 0.48 0.0 0 0 462.90 128.18
  Q 451.68 137.65 438.17 145.67
  L 427.17 143.98
  Q 443.35 133.22 460.99 125.14
  Q 462.54 124.43 460.84 124.27
  Q 427.89 121.16 395.04 112.60
  Q 390.99 111.54 387.05 110.35
  Q 386.16 110.08 386.83 110.73
  L 420.02 142.88
  L 405.89 140.26
  L 383.51 112.39
  Q 383.16 111.95 382.70 112.29
  L 376.79 116.72
  L 375.89 107.74
  Q 380.73 104.84 383.34 103.58
  Q 415.78 87.93 450.45 76.54
  A 1.34 1.34 0.0 0 1 452.17 77.47
  C 459.18 104.26 473.60 132.20 485.88 153.37
  Z
  M 391.62 107.15
  C 413.94 110.33 436.18 113.80 458.15 118.39
  Q 459.70 118.71 459.14 117.23
  Q 452.42 99.48 450.49 80.57
  Q 450.43 79.94 449.83 80.16
  Q 419.69 91.19 391.50 106.50
  A 0.35 0.35 0.0 0 0 391.62 107.15
  Z"
/>
<path fill="#cbcbcb" d="
  M 375.89 107.74
  L 376.79 116.72
  Q 372.62 120.07 369.10 124.83
  Q 367.08 127.56 366.96 131.26
  Q 358.79 128.81 355.40 122.74
  Q 363.90 113.21 375.89 107.74
  Z"
/>
<path fill="#cbcbcb" d="
  M 355.40 122.74
  Q 358.79 128.81 366.96 131.26
  Q 385.72 137.27 405.89 140.26
  L 420.02 142.88
  L 427.17 143.98
  L 438.17 145.67
  L 475.74 151.81
  L 485.88 153.37
  C 534.48 161.29 582.53 170.58 626.33 193.60
  C 653.27 207.76 675.01 228.41 690.61 254.65
  A 0.18 0.18 0.0 0 1 690.48 254.93
  Q 660.03 259.53 629.99 266.43
  Q 580.68 277.77 532.61 292.11
  L 522.65 295.17
  L 485.29 307.07
  L 478.19 309.49
  L 476.69 310.17
  L 468.03 313.23
  L 431.44 327.43
  L 424.66 330.39
  L 421.98 331.32
  L 410.78 336.08
  Q 390.98 344.43 372.41 354.00
  L 360.84 359.90
  L 336.70 373.27
  Q 331.69 375.62 327.12 378.87
  Q 325.66 379.92 321.19 380.88
  C 349.16 357.12 376.86 331.99 397.87 300.39
  C 413.40 277.03 421.73 251.51 419.05 223.47
  Q 415.81 189.58 391.95 165.53
  Q 374.91 148.36 357.53 131.50
  Q 353.84 127.92 355.40 122.74
  Z
  M 401.21 147.45
  L 374.63 139.97
  Q 372.88 139.48 374.33 140.58
  Q 397.33 157.98 411.95 182.86
  A 0.24 0.24 0.0 0 0 412.38 182.67
  L 401.98 148.20
  Q 401.80 147.61 401.21 147.45
  Z
  M 457.81 158.81
  A 0.23 0.22 37.1 0 0 457.75 158.39
  L 406.67 148.61
  A 0.52 0.52 0.0 0 0 406.10 149.34
  Q 414.32 167.11 419.56 185.98
  Q 419.72 186.54 420.13 186.13
  Q 436.87 169.58 457.81 158.81
  Z
  M 468.89 203.15
  C 470.18 189.28 468.63 173.70 464.06 160.28
  Q 463.67 159.14 462.71 159.85
  C 449.91 169.32 437.28 178.80 426.73 190.30
  Q 425.87 191.23 427.09 191.59
  L 468.35 203.52
  A 0.43 0.42 -78.9 0 0 468.89 203.15
  Z
  M 468.19 160.22
  Q 476.83 180.19 476.19 202.01
  A 0.58 0.57 73.4 0 0 477.09 202.50
  Q 494.24 190.57 513.06 181.43
  Q 522.17 177.01 531.59 172.58
  A 0.41 0.41 0.0 0 0 531.51 171.81
  Q 500.13 164.87 468.36 160.00
  A 0.16 0.16 0.0 0 0 468.19 160.22
  Z
  M 490.48 212.06
  Q 504.57 218.09 517.45 225.95
  A 0.72 0.71 31.4 0 0 518.43 225.72
  C 527.42 210.98 537.41 191.89 539.21 174.49
  Q 539.27 173.85 538.69 174.14
  C 520.17 183.59 504.02 194.30 486.05 206.33
  Q 484.60 207.30 483.27 208.55
  Q 482.81 208.98 483.37 209.27
  C 485.68 210.45 488.63 211.27 490.48 212.06
  Z
  M 543.23 181.36
  Q 540.81 198.37 534.05 214.19
  Q 531.93 219.16 529.89 224.30
  Q 529.64 224.94 530.27 224.68
  Q 570.57 208.52 613.01 199.23
  Q 613.91 199.03 613.08 198.64
  Q 589.28 187.46 563.94 180.38
  Q 554.94 177.87 545.08 175.12
  A 0.85 0.85 0.0 0 0 544.01 175.83
  Q 543.66 178.36 543.23 181.36
  Z
  M 423.14 203.29
  Q 426.76 224.64 424.66 246.21
  Q 424.49 247.97 425.74 246.73
  Q 442.80 229.96 461.08 214.50
  Q 461.81 213.89 460.92 213.56
  Q 442.74 206.72 423.73 202.73
  A 0.49 0.49 0.0 0 0 423.14 203.29
  Z
  M 617.66 203.13
  C 589.04 210.89 558.87 221.70 530.88 234.24
  Q 530.22 234.54 530.80 234.98
  Q 551.13 250.40 565.20 271.70
  Q 565.57 272.26 565.99 271.74
  Q 586.07 246.79 605.81 221.55
  Q 612.48 213.02 618.01 203.60
  Q 618.40 202.93 617.66 203.13
  Z
  M 623.22 204.65
  Q 614.63 223.74 602.66 239.59
  C 594.87 249.91 584.29 260.29 574.49 269.82
  A 0.31 0.31 0.0 0 0 574.79 270.34
  Q 628.25 256.71 683.25 252.23
  Q 684.23 252.15 683.56 251.42
  Q 660.75 226.54 632.71 209.04
  Q 628.41 206.35 623.94 204.37
  A 0.55 0.55 0.0 0 0 623.22 204.65
  Z
  M 481.60 222.33
  Q 478.36 220.77 475.00 219.58
  A 0.53 0.52 -74.0 0 0 474.31 219.97
  Q 469.55 241.58 458.85 260.95
  A 0.30 0.29 88.8 0 0 459.26 261.35
  Q 481.97 247.40 505.93 235.74
  A 0.48 0.48 0.0 0 0 505.95 234.89
  Q 494.05 228.35 481.60 222.33
  Z
  M 445.99 269.23
  C 454.99 255.00 462.46 238.17 465.96 221.57
  Q 466.12 220.80 465.49 221.28
  Q 445.25 236.98 426.52 254.48
  A 0.85 0.85 0.0 0 0 426.79 255.89
  C 434.56 258.95 438.99 263.76 445.22 269.34
  Q 445.67 269.74 445.99 269.23
  Z
  M 466.81 303.92
  Q 511.96 286.83 557.82 274.66
  Q 559.21 274.29 558.17 273.31
  Q 540.43 256.42 519.74 243.31
  Q 519.28 243.01 518.97 243.47
  Q 496.51 276.89 466.07 303.26
  A 0.39 0.39 0.0 0 0 466.09 303.87
  Q 466.36 304.08 466.81 303.92
  Z
  M 487.73 254.96
  Q 469.14 265.14 451.10 275.62
  A 1.06 1.05 60.9 0 0 450.70 277.03
  Q 457.98 290.67 458.00 306.19
  A 0.34 0.34 0.0 0 0 458.59 306.41
  Q 483.36 278.00 504.78 246.99
  Q 505.36 246.16 504.44 246.58
  Q 495.90 250.48 487.73 254.96
  Z
  M 420.31 267.99
  C 416.74 279.26 411.71 289.80 404.97 299.67
  A 0.15 0.15 0.0 0 0 405.19 299.88
  L 435.47 276.91
  A 0.38 0.37 -44.1 0 0 435.48 276.32
  Q 429.11 271.09 421.76 267.37
  Q 420.68 266.82 420.31 267.99
  Z
  M 387.04 337.04
  C 408.18 326.22 430.79 317.21 453.07 308.95
  A 0.67 0.66 -14.6 0 0 453.50 308.23
  Q 451.66 295.25 443.66 284.93
  A 0.42 0.41 45.4 0 0 443.02 284.92
  Q 418.82 314.44 387.38 336.09
  Q 387.12 336.27 386.97 336.56
  Q 386.91 336.70 386.84 336.83
  Q 386.62 337.26 387.04 337.04
  Z
  M 431.35 288.29
  Q 414.35 298.98 398.28 311.03
  Q 395.54 313.08 393.33 316.03
  C 387.68 323.57 381.53 329.99 375.38 336.70
  A 0.12 0.12 0.0 0 0 375.53 336.89
  Q 387.47 329.85 398.30 321.57
  Q 417.00 307.28 431.67 288.64
  Q 432.52 287.56 431.35 288.29
  Z"
/>
<path fill="#ededee" d="
  M 532.61 292.11
  Q 538.91 332.61 534.29 377.00
  C 531.81 400.95 527.90 422.30 520.41 444.02
  Q 507.39 481.81 488.38 517.04
  Q 488.13 517.49 487.62 517.51
  Q 477.89 517.85 471.76 517.41
  Q 430.57 514.45 390.32 505.80
  L 384.21 495.78
  L 388.73 497.31
  Q 389.27 497.49 389.58 497.00
  L 417.44 452.68
  A 0.36 0.36 0.0 0 0 417.03 452.14
  L 363.71 467.25
  Q 361.37 464.79 361.37 462.45
  L 412.85 444.26
  A 0.52 0.52 0.0 0 0 412.92 443.31
  Q 391.96 432.11 376.64 413.91
  Q 376.28 413.48 375.93 413.91
  L 350.57 444.51
  Q 349.22 441.78 346.84 440.16
  L 367.21 410.97
  Q 367.68 410.31 366.89 410.50
  L 346.25 415.41
  L 342.73 409.51
  L 367.39 402.25
  A 0.54 0.53 68.5 0 0 367.71 401.50
  C 360.54 387.18 357.39 375.94 360.84 359.90
  L 372.41 354.00
  Q 366.97 375.56 377.36 394.79
  A 0.27 0.27 0.0 0 0 377.82 394.81
  Q 396.19 366.91 410.78 336.08
  L 421.98 331.32
  Q 409.49 363.89 391.41 393.91
  Q 391.02 394.56 391.74 394.33
  Q 423.55 384.24 454.73 372.34
  A 0.73 0.73 0.0 0 0 454.92 371.08
  Q 434.30 354.93 424.66 330.39
  L 431.44 327.43
  C 437.14 342.83 447.14 355.09 459.26 365.64
  Q 459.73 366.05 459.93 365.46
  Q 468.87 340.06 468.03 313.23
  L 476.69 310.17
  Q 476.27 338.60 468.52 365.94
  Q 468.35 366.58 468.96 366.34
  Q 498.59 354.70 524.73 336.58
  A 0.79 0.78 -51.0 0 0 524.59 335.21
  Q 517.58 332.27 510.61 328.36
  Q 494.21 319.17 478.19 309.49
  L 485.29 307.07
  Q 502.97 319.42 521.30 330.11
  Q 523.31 331.28 525.20 332.15
  A 0.41 0.41 0.0 0 0 525.78 331.76
  Q 525.15 313.44 522.65 295.17
  L 532.61 292.11
  Z
  M 521.70 396.39
  Q 526.07 368.62 526.10 340.59
  Q 526.10 340.18 525.78 340.43
  C 508.98 353.23 490.22 364.09 471.46 373.54
  A 0.59 0.58 48.5 0 0 471.40 374.55
  Q 494.20 389.86 520.53 397.75
  Q 521.40 398.01 521.58 397.12
  Q 521.61 396.94 521.70 396.39
  Z
  M 465.21 378.74
  Q 464.65 378.41 464.43 379.02
  Q 454.58 407.22 440.16 433.37
  Q 439.57 434.44 440.71 434.02
  Q 469.38 423.57 497.58 411.90
  Q 509.30 407.05 520.38 401.19
  A 0.38 0.37 -52.6 0 0 520.29 400.49
  Q 491.09 393.76 465.21 378.74
  Z
  M 425.18 439.51
  C 435.94 421.45 445.97 402.33 453.79 382.92
  Q 454.20 381.89 453.18 382.33
  Q 420.11 396.66 385.19 405.60
  Q 384.55 405.76 384.96 406.28
  C 395.73 420.16 409.92 430.55 424.80 439.60
  A 0.27 0.27 0.0 0 0 425.18 439.51
  Z
  M 436.67 445.83
  C 457.52 455.17 479.77 462.00 502.28 465.86
  Q 502.79 465.95 502.96 465.46
  Q 513.01 435.95 520.08 405.60
  Q 520.24 404.93 519.63 405.25
  Q 482.00 425.17 442.80 441.77
  C 440.76 442.63 438.67 443.81 436.66 444.73
  Q 435.46 445.29 436.67 445.83
  Z
  M 497.37 468.14
  Q 476.12 465.74 455.47 460.27
  C 447.28 458.10 438.41 454.79 429.89 451.87
  A 0.67 0.65 -63.4 0 0 429.11 452.14
  Q 413.73 476.07 395.33 497.81
  A 1.18 1.18 0.0 0 0 396.55 499.71
  Q 437.08 488.36 476.45 476.38
  Q 488.06 472.85 499.68 468.78
  A 0.29 0.29 0.0 0 0 499.57 468.22
  Q 498.55 468.27 497.37 468.14
  Z
  M 407.60 501.75
  Q 445.98 509.31 484.98 514.15
  Q 485.65 514.23 485.88 513.60
  L 501.06 472.37
  A 0.67 0.67 0.0 0 0 500.13 471.54
  C 470.85 485.89 438.73 494.19 406.34 500.89
  A 0.30 0.30 0.0 0 0 406.34 501.48
  Q 406.88 501.60 407.60 501.75
  Z"
/>
<path fill="#cbcbcb" d="
  M 336.70 373.27
  C 320.99 383.40 304.44 401.44 300.66 420.68
  Q 300.53 421.35 301.18 421.16
  L 342.73 409.51
  L 346.25 415.41
  L 301.87 425.57
  A 1.76 1.75 -12.3 0 0 300.54 427.63
  C 303.85 444.02 314.54 457.23 327.38 467.27
  Q 327.77 467.58 328.06 467.17
  L 346.84 440.16
  Q 349.22 441.78 350.57 444.51
  L 331.88 469.08
  A 1.83 1.83 0.0 0 0 333.93 471.91
  L 361.37 462.45
  Q 361.37 464.79 363.71 467.25
  L 338.20 474.08
  A 0.52 0.52 0.0 0 0 338.05 475.01
  C 352.29 484.66 366.91 489.99 384.21 495.78
  L 390.32 505.80
  Q 366.15 500.19 341.98 489.77
  C 319.09 479.90 283.36 456.35 288.37 426.84
  Q 289.36 421.01 292.89 414.16
  C 299.78 400.81 309.81 390.95 321.19 380.88
  Q 325.66 379.92 327.12 378.87
  Q 331.69 375.62 336.70 373.27
  Z"
/>
<path fill="#cbcbcb" d="
  M 232.12 524.44
  L 232.13 551.18
  Q 232.13 551.74 231.57 551.74
  L 227.51 551.76
  Q 227.00 551.76 227.00 551.26
  L 227.00 524.74
  Q 227.00 524.23 226.49 524.24
  L 222.16 524.26
  Q 221.57 524.26 221.57 523.66
  L 221.58 520.21
  Q 221.58 519.75 222.04 519.75
  L 226.48 519.76
  Q 226.98 519.76 226.99 519.26
  C 227.02 516.38 226.68 513.04 227.67 510.48
  Q 230.75 502.55 240.20 503.99
  Q 240.80 504.08 240.80 504.69
  L 240.80 508.27
  Q 240.80 508.86 240.25 508.65
  C 231.74 505.39 232.07 513.91 232.11 519.15
  Q 232.11 519.75 232.72 519.75
  L 239.05 519.75
  Q 239.61 519.75 239.61 520.30
  L 239.64 523.43
  Q 239.64 524.00 239.07 524.00
  L 232.56 524.00
  Q 232.12 524.00 232.12 524.44
  Z"
/>
<circle fill="#cbcbcb" cx="63.98" cy="508.25" r="3.25"/>
<path fill="#cbcbcb" d="
  M 506.59 507.46
  L 506.61 518.00
  A 0.63 0.63 0.0 0 1 505.84 518.62
  Q 505.19 518.46 505.19 517.75
  Q 505.23 512.62 505.20 507.47
  Q 505.20 507.01 504.74 507.01
  L 501.90 506.98
  A 0.62 0.62 0.0 0 1 501.28 506.41
  L 501.25 506.03
  Q 501.20 505.51 501.73 505.51
  L 509.98 505.50
  Q 510.75 505.50 510.52 506.24
  Q 510.47 506.41 510.44 506.59
  A 0.48 0.48 0.0 0 1 509.97 506.97
  L 507.04 507.01
  Q 506.59 507.01 506.59 507.46
  Z"
/>
<path fill="#cbcbcb" d="
  M 513.77 508.54
  L 513.75 517.93
  Q 513.75 518.41 513.29 518.56
  Q 513.06 518.64 512.80 518.63
  A 0.50 0.50 0.0 0 1 512.33 518.14
  L 512.30 506.46
  A 1.21 1.20 -56.9 0 1 514.61 505.97
  L 518.80 515.49
  Q 519.05 516.05 519.29 515.49
  L 523.50 505.93
  A 1.06 1.05 56.9 0 1 525.52 506.36
  L 525.51 517.97
  Q 525.51 518.43 525.07 518.55
  Q 524.52 518.70 524.21 518.34
  Q 524.01 518.11 524.01 517.63
  Q 524.02 512.97 523.97 509.02
  Q 523.96 507.75 523.46 508.91
  L 519.46 518.12
  A 0.57 0.57 0.0 0 1 518.42 518.12
  L 514.16 508.46
  Q 513.78 507.59 513.77 508.54
  Z"
/>
<path fill="#cbcbcb" d="
  M 9.65 514.36
  Q 9.78 532.85 9.66 551.31
  Q 9.66 551.74 9.22 551.75
  L 5.22 551.75
  A 0.53 0.53 0.0 0 1 4.68 551.22
  L 4.68 507.60
  Q 4.68 507.00 5.28 507.00
  L 11.05 507.00
  Q 11.61 507.00 11.83 507.51
  L 27.25 542.99
  Q 27.45 543.44 27.65 542.99
  L 43.46 507.60
  Q 43.73 507.00 44.39 507.00
  L 49.76 507.00
  Q 50.27 507.00 50.27 507.51
  L 50.27 551.24
  Q 50.27 551.75 49.76 551.75
  L 45.69 551.75
  Q 45.12 551.75 45.11 551.19
  Q 44.86 532.41 45.28 513.67
  A 0.04 0.04 0.0 0 0 45.21 513.65
  Q 45.11 513.79 45.41 513.83
  Q 45.47 513.84 45.44 513.89
  L 29.13 551.01
  A 1.71 1.71 0.0 0 1 26.02 551.05
  Q 17.67 533.16 9.71 514.34
  Q 9.64 514.18 9.65 514.36
  Z"
/>
<path fill="#cbcbcb" d="
  M 247.49 524.00
  L 242.99 524.00
  Q 242.48 524.00 242.48 523.49
  L 242.49 520.25
  Q 242.50 519.75 243.00 519.75
  L 247.50 519.76
  Q 248.00 519.76 248.00 519.25
  L 248.00 512.46
  A 0.77 0.77 0.0 0 1 248.52 511.73
  L 252.39 510.41
  Q 253.08 510.17 253.08 510.90
  L 253.06 519.28
  Q 253.06 519.75 253.53 519.75
  L 260.74 519.75
  Q 261.22 519.75 261.22 520.24
  L 261.23 523.51
  Q 261.24 524.00 260.74 524.00
  L 253.54 524.00
  Q 253.09 524.00 253.09 524.45
  Q 253.02 533.50 253.14 542.48
  C 253.21 547.69 256.21 549.03 260.64 547.30
  Q 261.23 547.07 261.23 547.71
  L 261.22 550.73
  Q 261.22 551.23 260.75 551.43
  C 254.51 554.13 247.92 551.20 247.96 543.74
  Q 248.01 534.14 248.00 524.52
  Q 248.00 524.00 247.49 524.00
  Z"
/>
<path fill="#cbcbcb" d="
  M 283.17 521.92
  A 8.95 8.95 0.0 0 1 274.22 530.87
  A 8.95 8.95 0.0 0 1 265.27 521.92
  A 8.95 8.95 0.0 0 1 274.22 512.97
  A 8.95 8.95 0.0 0 1 283.17 521.92
  Z
  M 282.1616 523.0017
  A 8.06 7.87 8.0 0 0 275.2753 514.0866
  A 8.06 7.87 8.0 0 0 266.1984 520.7583
  A 8.06 7.87 8.0 0 0 273.0847 529.6734
  A 8.06 7.87 8.0 0 0 282.1616 523.0017
  Z"
/>
<path fill="#cbcbcb" d="
  M 275.87 522.60
  L 278.11 526.63
  Q 278.61 527.53 277.58 527.51
  L 276.99 527.49
  A 0.75 0.74 -8.1 0 1 276.29 526.97
  Q 275.61 524.75 274.11 523.16
  A 1.21 1.20 -66.7 0 0 272.03 523.99
  L 272.02 526.86
  Q 272.02 527.49 271.39 527.56
  L 271.05 527.60
  Q 270.44 527.67 270.44 527.05
  L 270.41 516.75
  Q 270.41 516.26 270.89 516.16
  Q 274.09 515.52 276.25 516.47
  C 278.46 517.43 278.24 520.93 276.04 522.03
  Q 275.66 522.23 275.87 522.60
  Z
  M 275.41 520.96
  A 0.83 0.83 0.0 0 0 276.08 520.29
  L 276.35 518.84
  A 0.83 0.83 0.0 0 0 275.68 517.87
  L 273.21 517.43
  A 0.83 0.83 0.0 0 0 272.24 518.24
  L 272.21 520.51
  A 0.83 0.83 0.0 0 0 273.18 521.34
  L 275.41 520.96
  Z"
/>
<path fill="#cbcbcb" d="
  M 97.75 525.37
  C 87.46 518.99 78.43 527.34 79.86 538.26
  C 81.10 547.79 90.34 550.41 97.81 545.67
  Q 98.38 545.31 98.38 545.99
  L 98.38 549.78
  Q 98.38 550.31 97.89 550.54
  C 83.90 557.11 71.26 546.33 74.95 531.43
  C 77.58 520.76 87.69 516.70 97.92 520.40
  Q 98.37 520.56 98.37 521.04
  L 98.38 525.02
  Q 98.38 525.77 97.75 525.37
  Z"
/>
<path fill="#cbcbcb" d="
  M 156.2983 538.0260
  A 14.14 14.14 0.0 0 1 142.2077 552.2153
  L 139.5677 552.2245
  A 14.14 14.14 0.0 0 1 125.3785 538.1340
  L 125.3617 533.3340
  A 14.14 14.14 0.0 0 1 139.4523 519.1447
  L 142.0923 519.1355
  A 14.14 14.14 0.0 0 1 156.2815 533.2260
  L 156.2983 538.0260
  Z
  M 151.1802 532.7686
  A 9.41 9.41 0.0 0 0 141.7047 523.4245
  L 140.0448 523.4361
  A 9.41 9.41 0.0 0 0 130.7007 532.9116
  L 130.7398 538.5114
  A 9.41 9.41 0.0 0 0 140.2153 547.8555
  L 141.8752 547.8439
  A 9.41 9.41 0.0 0 0 151.2193 538.3684
  L 151.1802 532.7686
  Z"
/>
<path fill="#cbcbcb" d="
  M 168.51 525.22
  C 163.92 530.15 173.23 533.72 176.15 535.02
  C 181.01 537.20 183.57 542.48 180.82 547.14
  C 177.16 553.32 168.81 553.75 162.69 551.00
  Q 162.22 550.79 162.22 550.27
  L 162.23 545.99
  Q 162.23 545.32 162.79 545.69
  C 165.91 547.82 174.54 550.51 176.32 545.07
  C 178.35 538.85 165.89 537.53 163.22 532.39
  C 160.88 527.90 162.97 522.46 167.53 520.33
  Q 173.34 517.61 179.87 520.30
  Q 180.33 520.49 180.33 520.98
  L 180.36 525.02
  Q 180.37 525.68 179.79 525.35
  C 176.70 523.58 171.24 522.30 168.51 525.22
  Z"
/>
<path fill="#cbcbcb" d="
  M 218.2282 538.0060
  A 14.15 14.15 0.0 0 1 204.1277 552.2053
  L 201.4677 552.2145
  A 14.15 14.15 0.0 0 1 187.2684 538.1140
  L 187.2518 533.3540
  A 14.15 14.15 0.0 0 1 201.3523 519.1547
  L 204.0123 519.1455
  A 14.15 14.15 0.0 0 1 218.2116 533.2460
  L 218.2282 538.0060
  Z
  M 213.0792 532.9217
  A 9.44 9.44 0.0 0 0 203.7053 523.4160
  L 202.0653 523.4046
  A 9.44 9.44 0.0 0 0 192.5597 532.7784
  L 192.5208 538.3383
  A 9.44 9.44 0.0 0 0 201.8947 547.8440
  L 203.5347 547.8554
  A 9.44 9.44 0.0 0 0 213.0403 538.4816
  L 213.0792 532.9217
  Z"
/>
<path fill="#cbcbcb" d="
  M 111.63 525.56
  Q 114.30 518.37 122.11 519.35
  A 0.71 0.70 -86.7 0 1 122.72 520.04
  L 122.75 524.25
  Q 122.75 524.85 122.19 524.64
  C 115.37 522.07 111.72 527.67 111.47 533.75
  Q 111.11 542.52 111.16 551.28
  Q 111.16 551.75 110.69 551.75
  L 106.64 551.75
  Q 106.03 551.75 106.03 551.14
  L 106.04 520.23
  Q 106.04 519.75 106.52 519.75
  L 110.70 519.75
  Q 111.16 519.75 111.16 520.21
  L 111.19 525.48
  Q 111.20 526.70 111.63 525.56
  Z"
/>
<rect fill="#cbcbcb" x="61.74" y="521.76" width="4.50" height="27.74" rx="0.28"/>
<path fill="#cbcbcb" d="
  M 0.00 683.90
  L 0.00 678.73
  L 0.61 671.18
  Q 0.65 670.58 1.18 670.88
  Q 7.43 674.45 16.48 678.01
  C 26.46 681.94 40.74 683.00 49.06 675.13
  Q 57.17 667.48 53.51 656.40
  C 50.00 645.79 36.49 637.89 26.86 632.87
  Q 20.71 629.67 11.34 621.19
  Q 1.97 612.72 0.00 600.71
  L 0.00 595.77
  C 4.45 562.50 39.57 558.88 64.91 567.77
  Q 65.44 567.95 65.43 568.51
  L 65.26 583.70
  Q 65.26 584.29 64.72 584.03
  C 50.83 577.34 22.10 570.71 16.50 592.54
  C 14.73 599.45 17.07 605.44 22.25 610.03
  Q 31.24 618.01 44.54 625.68
  Q 51.07 629.46 59.19 636.55
  C 66.84 643.25 70.65 652.16 70.36 662.43
  C 69.89 679.29 58.28 689.16 42.84 693.14
  C 28.99 696.70 14.28 693.74 0.75 688.70
  Q 0.28 688.52 0.25 688.02
  L 0.00 683.90
  Z"
/>
<path fill="#cbcbcb" d="
  M 159.52 694.58
  Q 162.50 698.37 167.08 702.92
  Q 177.02 712.80 186.73 722.98
  Q 187.22 723.50 186.50 723.50
  L 166.00 723.50
  Q 165.50 723.50 165.20 723.11
  Q 155.42 710.78 144.47 699.54
  C 141.92 696.93 139.60 695.43 135.81 694.62
  C 118.43 690.92 104.05 685.72 93.77 670.52
  Q 88.73 663.06 85.84 652.29
  C 76.73 618.25 86.71 575.46 125.88 565.77
  Q 138.72 562.59 151.27 564.03
  C 181.64 567.50 197.53 587.45 201.27 616.12
  Q 203.22 631.05 200.93 644.77
  C 199.12 655.64 192.62 668.36 185.59 676.46
  Q 175.95 687.59 160.44 691.81
  Q 157.88 692.50 159.52 694.58
  Z
  M 103.93 601.94
  C 98.37 612.95 97.91 627.39 99.34 639.34
  C 100.69 650.65 104.28 658.80 111.51 667.23
  Q 120.02 677.15 131.75 679.58
  C 141.19 681.54 154.72 680.42 163.45 675.68
  C 188.90 661.90 190.79 624.04 180.89 600.37
  C 174.12 584.19 159.52 577.04 142.54 577.02
  Q 116.52 576.99 103.93 601.94
  Z"
/>
<path fill="#cbcbcb" d="
  M 387.93 584.12
  C 375.59 578.53 354.83 572.41 344.21 584.07
  C 337.03 591.95 337.26 602.90 345.45 610.30
  C 350.60 614.95 355.31 618.46 361.90 622.34
  Q 373.86 629.39 383.14 637.60
  C 389.64 643.35 393.04 651.51 393.48 660.25
  C 394.27 676.16 384.76 687.04 370.10 692.07
  C 354.68 697.37 338.77 694.48 323.79 688.97
  Q 323.20 688.75 323.21 688.12
  L 323.56 671.57
  Q 323.58 670.72 324.33 671.12
  C 337.26 677.99 355.03 685.91 368.88 677.72
  Q 374.03 674.67 376.37 669.23
  C 381.99 656.16 370.73 645.68 360.11 639.01
  C 349.45 632.32 337.19 626.01 329.32 615.38
  Q 316.94 598.67 329.10 579.54
  C 340.77 561.17 369.73 561.54 388.10 568.03
  Q 388.60 568.20 388.59 568.73
  L 388.48 583.77
  Q 388.48 584.37 387.93 584.12
  Z"
/>
<path fill="#cbcbcb" d="
  M 237.82 676.75
  L 288.09 676.75
  A 0.34 0.34 0.0 0 1 288.43 677.09
  L 288.43 691.41
  A 0.34 0.34 0.0 0 1 288.09 691.75
  L 221.91 691.75
  A 0.34 0.34 0.0 0 1 221.57 691.41
  L 221.57 565.59
  A 0.34 0.34 0.0 0 1 221.91 565.25
  L 237.14 565.25
  A 0.34 0.34 0.0 0 1 237.48 565.59
  L 237.48 676.41
  A 0.34 0.34 0.0 0 0 237.82 676.75
  Z"
/>
<path fill="#cbcbcb" d="
  M 650.67 651.65
  Q 651.89 665.90 660.64 674.61
  C 671.55 685.44 690.11 681.69 702.28 675.45
  Q 705.11 674.00 708.03 672.65
  Q 708.58 672.39 708.58 673.00
  L 708.58 685.95
  Q 708.58 686.39 708.18 686.59
  Q 699.91 690.70 691.02 692.83
  Q 668.70 698.16 650.63 684.62
  C 642.64 678.63 638.59 671.07 636.69 660.94
  Q 634.34 648.43 636.08 636.75
  C 638.36 621.45 648.80 607.31 663.39 601.90
  C 678.52 596.28 695.98 599.24 706.01 612.71
  C 713.98 623.42 714.41 637.57 713.64 650.85
  Q 713.62 651.25 713.22 651.25
  L 651.04 651.25
  Q 650.63 651.25 650.67 651.65
  Z
  M 685.81 614.91
  C 667.00 607.67 654.85 620.63 651.87 638.03
  Q 651.79 638.50 652.26 638.50
  L 698.48 638.50
  Q 698.97 638.50 698.92 638.02
  C 698.11 629.69 694.34 618.19 685.81 614.91
  Z"
/>
<path fill="#cbcbcb" d="
  M 800.00 607.35
  L 800.00 609.54
  Q 797.43 617.94 789.98 616.86
  C 780.56 615.51 778.95 603.41 787.14 600.07
  C 793.10 597.64 798.76 600.92 800.00 607.35
  Z
  M 798.80 608.23
  A 8.02 8.02 0.0 0 0 790.78 600.21
  A 8.02 8.02 0.0 0 0 782.76 608.23
  A 8.02 8.02 0.0 0 0 790.78 616.25
  A 8.02 8.02 0.0 0 0 798.80 608.23
  Z"
/>
<path fill="#cbcbcb" d="
  M 418.40 651.95
  C 419.84 666.54 427.99 679.44 443.35 681.65
  C 453.56 683.12 466.48 678.21 475.46 673.17
  Q 476.44 672.62 476.44 673.75
  L 476.44 686.21
  Q 476.45 686.63 476.07 686.81
  C 464.22 692.81 449.93 696.31 437.09 693.52
  C 422.32 690.31 409.03 680.05 405.21 664.75
  C 402.38 653.43 402.55 638.38 406.55 627.60
  C 411.32 614.75 422.23 604.29 435.58 600.84
  C 457.52 595.19 477.78 607.49 480.91 630.26
  Q 482.23 639.86 481.62 651.12
  Q 481.59 651.50 481.21 651.50
  L 418.81 651.50
  Q 418.36 651.50 418.40 651.95
  Z
  M 453.06 614.87
  C 440.14 609.56 427.76 615.94 422.66 628.62
  Q 420.46 634.11 419.66 638.07
  Q 419.52 638.75 420.21 638.75
  L 466.26 638.75
  Q 466.80 638.75 466.76 638.21
  C 466.07 629.11 462.12 618.58 453.06 614.87
  Z"
/>
<path fill="#cbcbcb" d="
  M 745.89 616.10
  C 751.24 608.79 754.60 602.42 764.49 600.82
  Q 770.06 599.92 776.84 600.34
  Q 777.28 600.36 777.28 600.80
  L 777.28 615.25
  Q 777.28 616.05 776.56 615.71
  C 767.85 611.56 759.77 613.65 753.38 620.72
  C 746.88 627.91 745.43 637.64 745.46 647.51
  Q 745.51 669.22 745.55 690.95
  Q 745.55 691.50 745.00 691.50
  L 730.27 691.50
  Q 729.79 691.50 729.79 691.02
  L 729.79 602.48
  Q 729.79 602.00 730.27 602.00
  L 745.02 602.00
  Q 745.55 602.00 745.55 602.52
  L 745.53 615.98
  Q 745.53 616.58 745.89 616.10
  Z"
/>
<path fill="#cbcbcb" d="
  M 513.91 616.15
  Q 515.53 613.98 516.96 611.71
  C 523.44 601.41 533.30 599.81 544.82 600.63
  Q 545.21 600.66 545.21 601.05
  L 545.21 615.31
  Q 545.21 616.01 544.54 615.80
  C 537.17 613.40 531.11 612.41 524.41 617.90
  C 513.71 626.67 513.08 639.76 513.29 654.75
  Q 513.54 673.00 513.44 691.27
  Q 513.44 691.75 512.96 691.75
  L 498.24 691.75
  Q 497.72 691.75 497.72 691.24
  L 497.72 602.51
  Q 497.72 602.00 498.24 602.00
  L 512.99 602.00
  Q 513.47 602.00 513.47 602.49
  L 513.47 616.01
  Q 513.47 616.75 513.91 616.15
  Z"
/>
<path fill="#cbcbcb" d="
  M 592.08 673.31
  C 602.03 649.16 610.39 624.22 618.74 602.52
  Q 618.94 602.00 619.49 602.00
  L 633.97 602.00
  Q 634.50 602.00 634.30 602.50
  L 599.00 691.26
  Q 598.80 691.76 598.26 691.76
  L 584.27 691.75
  Q 583.79 691.75 583.61 691.30
  Q 566.26 647.20 550.40 602.53
  Q 550.22 602.00 550.78 602.00
  L 565.94 602.00
  Q 566.55 602.00 566.74 602.58
  Q 578.24 638.26 591.56 673.30
  Q 591.81 673.96 592.08 673.31
  Z"
/>
<path fill="#cbcbcb" d="
  M 788.84 610.01
  L 788.89 613.43
  Q 788.89 614.00 788.32 613.99
  L 787.85 613.98
  Q 787.22 613.97 787.22 613.35
  L 787.24 603.05
  Q 787.24 602.32 787.97 602.38
  L 793.22 602.84
  A 0.85 0.85 0.0 0 1 793.87 603.25
  Q 795.90 606.74 792.66 608.39
  Q 792.25 608.60 792.47 609.00
  L 794.83 613.15
  Q 795.38 614.13 794.27 613.94
  L 793.89 613.87
  Q 793.42 613.80 793.18 613.39
  L 790.88 609.44
  A 1.10 1.09 -60.6 0 0 788.84 610.01
  Z
  M 788.93 604.18
  L 788.95 607.34
  A 0.43 0.43 0.0 0 0 789.38 607.77
  L 790.36 607.76
  A 2.67 1.75 -0.3 0 0 793.02 606.00
  L 793.02 605.48
  A 2.67 1.75 -0.3 0 0 790.34 603.74
  L 789.36 603.75
  A 0.43 0.43 0.0 0 0 788.93 604.18
  Z"
/>
</svg>
