<?xml version="1.0" encoding="UTF-8" standalone="no"?>
<!DOCTYPE svg PUBLIC "-//W3C//DTD SVG 1.1//EN" "http://www.w3.org/Graphics/SVG/1.1/DTD/svg11.dtd">
<svg xmlns="http://www.w3.org/2000/svg" version="1.1" viewBox="0.00 0.00 178.00 193.00">
<g stroke-width="2.00" fill="none" stroke-linecap="butt">
<path stroke="#94979c" vector-effect="non-scaling-stroke" d="
  M 100.22 40.25
  L 92.12 47.90
  A 0.31 0.31 0.0 0 0 92.31 48.44
  Q 119.39 50.99 132.64 72.17
  C 140.63 84.95 142.56 99.63 138.15 114.03
  Q 137.51 116.12 137.87 118.04
  Q 138.95 123.84 140.62 129.63
  A 0.54 0.53 -14.7 0 0 141.26 130.00
  L 152.50 127.24
  A 1.23 1.22 12.1 0 0 153.17 126.81
  Q 153.83 125.96 154.20 124.97
  C 163.05 101.21 159.84 75.91 144.18 56.18
  Q 124.81 31.78 91.72 29.78
  Q 91.05 29.73 91.52 30.22
  L 100.24 39.32
  A 0.66 0.65 46.5 0 1 100.22 40.25"
/>
<path stroke="#94979c" vector-effect="non-scaling-stroke" d="
  M 33.87 119.47
  L 44.76 122.77
  A 0.38 0.38 0.0 0 0 45.21 122.24
  C 36.42 104.77 37.89 85.20 49.11 69.48
  Q 60.27 53.84 80.32 49.17
  C 83.39 48.45 88.74 42.32 91.16 39.92
  Q 91.54 39.54 91.17 39.15
  L 83.23 30.86
  A 1.20 1.18 -20.8 0 0 82.39 30.49
  Q 80.41 30.43 79.22 30.65
  C 55.22 35.03 35.66 49.84 26.35 72.24
  Q 14.24 101.33 28.72 131.31
  Q 29.47 132.87 29.96 131.21
  L 33.28 119.80
  Q 33.41 119.33 33.87 119.47"
/>
<path stroke="#94979c" vector-effect="non-scaling-stroke" d="
  M 124.32 107.49
  L 130.60 107.43
  Q 131.12 107.43 131.13 106.90
  L 131.32 92.61
  A 0.73 0.73 0.0 0 0 130.62 91.87
  L 125.49 91.70
  A 2.03 2.02 79.7 0 1 123.68 90.44
  L 120.00 81.46
  A 0.67 0.67 0.0 0 1 120.16 80.71
  L 123.99 77.18
  A 1.61 1.61 0.0 0 0 124.05 74.88
  L 115.36 65.93
  Q 114.06 64.59 112.75 65.93
  L 109.28 69.47
  A 0.83 0.82 -51.9 0 1 108.27 69.60
  Q 103.92 66.98 99.02 65.69
  A 0.67 0.66 7.4 0 1 98.52 65.05
  L 98.45 58.57
  Q 98.44 57.95 97.82 57.94
  L 83.31 57.71
  Q 82.81 57.70 82.80 58.19
  L 82.70 64.58
  A 0.80 0.79 -6.1 0 1 82.08 65.34
  Q 77.14 66.48 72.81 69.09
  Q 72.37 69.35 72.01 68.99
  L 67.45 64.38
  A 0.67 0.66 45.3 0 0 66.51 64.37
  L 56.55 74.03
  A 1.20 1.20 0.0 0 0 56.52 75.71
  L 60.57 79.98
  A 0.62 0.62 0.0 0 1 60.65 80.74
  Q 57.92 85.09 56.59 90.03
  Q 56.46 90.51 55.97 90.51
  L 50.14 90.51
  A 1.35 1.35 0.0 0 0 48.80 91.86
  L 48.74 105.40
  Q 48.73 106.06 49.39 106.09
  L 55.49 106.36
  A 0.68 0.66 80.4 0 1 56.08 106.79
  L 59.98 116.63
  A 0.58 0.57 -33.6 0 1 59.85 117.25
  L 55.41 121.59
  A 0.65 0.64 45.9 0 0 55.40 122.51
  L 64.99 132.43
  A 1.32 1.32 0.0 0 0 66.87 132.44
  L 70.90 128.40
  A 0.72 0.71 -51.0 0 1 71.79 128.30
  Q 76.09 131.02 81.00 132.27
  A 0.73 0.72 7.6 0 1 81.55 132.98
  L 81.48 138.95
  A 1.23 1.23 0.0 0 0 82.70 140.20
  L 96.41 140.31
  A 0.73 0.73 0.0 0 0 97.14 139.60
  L 97.34 133.56
  A 0.67 0.65 80.0 0 1 97.75 132.96
  L 107.77 129.00
  A 0.56 0.55 -30.1 0 1 108.39 129.16
  Q 109.89 131.01 111.56 132.70
  Q 113.03 134.18 114.87 132.38
  Q 118.97 128.38 123.42 124.01
  A 1.22 1.22 0.0 0 0 123.44 122.27
  L 119.63 118.43
  A 0.68 0.68 0.0 0 1 119.48 117.69
  L 123.63 107.95
  Q 123.83 107.49 124.32 107.49"
/>
<path stroke="#94979c" vector-effect="non-scaling-stroke" d="
  M 135.84 137.18
  L 133.35 127.02
  Q 132.99 125.56 132.13 126.80
  C 113.30 154.23 76.26 157.18 53.06 133.33
  C 49.75 129.93 42.76 128.65 38.25 127.60
  Q 37.75 127.49 37.60 127.98
  L 34.28 139.20
  Q 34.12 139.73 34.46 140.17
  C 64.15 179.06 122.13 177.12 148.78 135.55
  A 0.48 0.48 0.0 0 0 148.26 134.83
  L 136.70 137.70
  Q 136.01 137.87 135.84 137.18"
/>
<path stroke="#94979c" vector-effect="non-scaling-stroke" d="
  M 110.61 98.99
  A 20.61 20.61 0.0 0 0 90.00 78.38
  A 20.61 20.61 0.0 0 0 69.39 98.99
  A 20.61 20.61 0.0 0 0 90.00 119.60
  A 20.61 20.61 0.0 0 0 110.61 98.99"
/>
</g>
<path fill="#ffffff" d="
  M 0.00 0.00
  L 178.00 0.00
  L 178.00 193.00
  L 0.00 193.00
  L 0.00 0.00
  Z
  M 100.22 40.25
  L 92.12 47.90
  A 0.31 0.31 0.0 0 0 92.31 48.44
  Q 119.39 50.99 132.64 72.17
  C 140.63 84.95 142.56 99.63 138.15 114.03
  Q 137.51 116.12 137.87 118.04
  Q 138.95 123.84 140.62 129.63
  A 0.54 0.53 -14.7 0 0 141.26 130.00
  L 152.50 127.24
  A 1.23 1.22 12.1 0 0 153.17 126.81
  Q 153.83 125.96 154.20 124.97
  C 163.05 101.21 159.84 75.91 144.18 56.18
  Q 124.81 31.78 91.72 29.78
  Q 91.05 29.73 91.52 30.22
  L 100.24 39.32
  A 0.66 0.65 46.5 0 1 100.22 40.25
  Z
  M 33.87 119.47
  L 44.76 122.77
  A 0.38 0.38 0.0 0 0 45.21 122.24
  C 36.42 104.77 37.89 85.20 49.11 69.48
  Q 60.27 53.84 80.32 49.17
  C 83.39 48.45 88.74 42.32 91.16 39.92
  Q 91.54 39.54 91.17 39.15
  L 83.23 30.86
  A 1.20 1.18 -20.8 0 0 82.39 30.49
  Q 80.41 30.43 79.22 30.65
  C 55.22 35.03 35.66 49.84 26.35 72.24
  Q 14.24 101.33 28.72 131.31
  Q 29.47 132.87 29.96 131.21
  L 33.28 119.80
  Q 33.41 119.33 33.87 119.47
  Z
  M 124.32 107.49
  L 130.60 107.43
  Q 131.12 107.43 131.13 106.90
  L 131.32 92.61
  A 0.73 0.73 0.0 0 0 130.62 91.87
  L 125.49 91.70
  A 2.03 2.02 79.7 0 1 123.68 90.44
  L 120.00 81.46
  A 0.67 0.67 0.0 0 1 120.16 80.71
  L 123.99 77.18
  A 1.61 1.61 0.0 0 0 124.05 74.88
  L 115.36 65.93
  Q 114.06 64.59 112.75 65.93
  L 109.28 69.47
  A 0.83 0.82 -51.9 0 1 108.27 69.60
  Q 103.92 66.98 99.02 65.69
  A 0.67 0.66 7.4 0 1 98.52 65.05
  L 98.45 58.57
  Q 98.44 57.95 97.82 57.94
  L 83.31 57.71
  Q 82.81 57.70 82.80 58.19
  L 82.70 64.58
  A 0.80 0.79 -6.1 0 1 82.08 65.34
  Q 77.14 66.48 72.81 69.09
  Q 72.37 69.35 72.01 68.99
  L 67.45 64.38
  A 0.67 0.66 45.3 0 0 66.51 64.37
  L 56.55 74.03
  A 1.20 1.20 0.0 0 0 56.52 75.71
  L 60.57 79.98
  A 0.62 0.62 0.0 0 1 60.65 80.74
  Q 57.92 85.09 56.59 90.03
  Q 56.46 90.51 55.97 90.51
  L 50.14 90.51
  A 1.35 1.35 0.0 0 0 48.80 91.86
  L 48.74 105.40
  Q 48.73 106.06 49.39 106.09
  L 55.49 106.36
  A 0.68 0.66 80.4 0 1 56.08 106.79
  L 59.98 116.63
  A 0.58 0.57 -33.6 0 1 59.85 117.25
  L 55.41 121.59
  A 0.65 0.64 45.9 0 0 55.40 122.51
  L 64.99 132.43
  A 1.32 1.32 0.0 0 0 66.87 132.44
  L 70.90 128.40
  A 0.72 0.71 -51.0 0 1 71.79 128.30
  Q 76.09 131.02 81.00 132.27
  A 0.73 0.72 7.6 0 1 81.55 132.98
  L 81.48 138.95
  A 1.23 1.23 0.0 0 0 82.70 140.20
  L 96.41 140.31
  A 0.73 0.73 0.0 0 0 97.14 139.60
  L 97.34 133.56
  A 0.67 0.65 80.0 0 1 97.75 132.96
  L 107.77 129.00
  A 0.56 0.55 -30.1 0 1 108.39 129.16
  Q 109.89 131.01 111.56 132.70
  Q 113.03 134.18 114.87 132.38
  Q 118.97 128.38 123.42 124.01
  A 1.22 1.22 0.0 0 0 123.44 122.27
  L 119.63 118.43
  A 0.68 0.68 0.0 0 1 119.48 117.69
  L 123.63 107.95
  Q 123.83 107.49 124.32 107.49
  Z
  M 135.84 137.18
  L 133.35 127.02
  Q 132.99 125.56 132.13 126.80
  C 113.30 154.23 76.26 157.18 53.06 133.33
  C 49.75 129.93 42.76 128.65 38.25 127.60
  Q 37.75 127.49 37.60 127.98
  L 34.28 139.20
  Q 34.12 139.73 34.46 140.17
  C 64.15 179.06 122.13 177.12 148.78 135.55
  A 0.48 0.48 0.0 0 0 148.26 134.83
  L 136.70 137.70
  Q 136.01 137.87 135.84 137.18
  Z"
/>
<path fill="#282f39" d="
  M 100.22 40.25
  A 0.66 0.65 46.5 0 0 100.24 39.32
  L 91.52 30.22
  Q 91.05 29.73 91.72 29.78
  Q 124.81 31.78 144.18 56.18
  C 159.84 75.91 163.05 101.21 154.20 124.97
  Q 153.83 125.96 153.17 126.81
  A 1.23 1.22 12.1 0 1 152.50 127.24
  L 141.26 130.00
  A 0.54 0.53 -14.7 0 1 140.62 129.63
  Q 138.95 123.84 137.87 118.04
  Q 137.51 116.12 138.15 114.03
  C 142.56 99.63 140.63 84.95 132.64 72.17
  Q 119.39 50.99 92.31 48.44
  A 0.31 0.31 0.0 0 1 92.12 47.90
  L 100.22 40.25
  Z"
/>
<path fill="#282f39" d="
  M 33.28 119.80
  L 29.96 131.21
  Q 29.47 132.87 28.72 131.31
  Q 14.24 101.33 26.35 72.24
  C 35.66 49.84 55.22 35.03 79.22 30.65
  Q 80.41 30.43 82.39 30.49
  A 1.20 1.18 -20.8 0 1 83.23 30.86
  L 91.17 39.15
  Q 91.54 39.54 91.16 39.92
  C 88.74 42.32 83.39 48.45 80.32 49.17
  Q 60.27 53.84 49.11 69.48
  C 37.89 85.20 36.42 104.77 45.21 122.24
  A 0.38 0.38 0.0 0 1 44.76 122.77
  L 33.87 119.47
  Q 33.41 119.33 33.28 119.80
  Z"
/>
<path fill="#282f39" d="
  M 123.63 107.95
  L 119.48 117.69
  A 0.68 0.68 0.0 0 0 119.63 118.43
  L 123.44 122.27
  A 1.22 1.22 0.0 0 1 123.42 124.01
  Q 118.97 128.38 114.87 132.38
  Q 113.03 134.18 111.56 132.70
  Q 109.89 131.01 108.39 129.16
  A 0.56 0.55 -30.1 0 0 107.77 129.00
  L 97.75 132.96
  A 0.67 0.65 80.0 0 0 97.34 133.56
  L 97.14 139.60
  A 0.73 0.73 0.0 0 1 96.41 140.31
  L 82.70 140.20
  A 1.23 1.23 0.0 0 1 81.48 138.95
  L 81.55 132.98
  A 0.73 0.72 7.6 0 0 81.00 132.27
  Q 76.09 131.02 71.79 128.30
  A 0.72 0.71 -51.0 0 0 70.90 128.40
  L 66.87 132.44
  A 1.32 1.32 0.0 0 1 64.99 132.43
  L 55.40 122.51
  A 0.65 0.64 45.9 0 1 55.41 121.59
  L 59.85 117.25
  A 0.58 0.57 -33.6 0 0 59.98 116.63
  L 56.08 106.79
  A 0.68 0.66 80.4 0 0 55.49 106.36
  L 49.39 106.09
  Q 48.73 106.06 48.74 105.40
  L 48.80 91.86
  A 1.35 1.35 0.0 0 1 50.14 90.51
  L 55.97 90.51
  Q 56.46 90.51 56.59 90.03
  Q 57.92 85.09 60.65 80.74
  A 0.62 0.62 0.0 0 0 60.57 79.98
  L 56.52 75.71
  A 1.20 1.20 0.0 0 1 56.55 74.03
  L 66.51 64.37
  A 0.67 0.66 45.3 0 1 67.45 64.38
  L 72.01 68.99
  Q 72.37 69.35 72.81 69.09
  Q 77.14 66.48 82.08 65.34
  A 0.80 0.79 -6.1 0 0 82.70 64.58
  L 82.80 58.19
  Q 82.81 57.70 83.31 57.71
  L 97.82 57.94
  Q 98.44 57.95 98.45 58.57
  L 98.52 65.05
  A 0.67 0.66 7.4 0 0 99.02 65.69
  Q 103.92 66.98 108.27 69.60
  A 0.83 0.82 -51.9 0 0 109.28 69.47
  L 112.75 65.93
  Q 114.06 64.59 115.36 65.93
  L 124.05 74.88
  A 1.61 1.61 0.0 0 1 123.99 77.18
  L 120.16 80.71
  A 0.67 0.67 0.0 0 0 120.00 81.46
  L 123.68 90.44
  A 2.03 2.02 79.7 0 0 125.49 91.70
  L 130.62 91.87
  A 0.73 0.73 0.0 0 1 131.32 92.61
  L 131.13 106.90
  Q 131.12 107.43 130.60 107.43
  L 124.32 107.49
  Q 123.83 107.49 123.63 107.95
  Z
  M 110.61 98.99
  A 20.61 20.61 0.0 0 0 90.00 78.38
  A 20.61 20.61 0.0 0 0 69.39 98.99
  A 20.61 20.61 0.0 0 0 90.00 119.60
  A 20.61 20.61 0.0 0 0 110.61 98.99
  Z"
/>
<circle fill="#ffffff" cx="90.00" cy="98.99" r="20.61"/>
<path fill="#282f39" d="
  M 136.70 137.70
  L 148.26 134.83
  A 0.48 0.48 0.0 0 1 148.78 135.55
  C 122.13 177.12 64.15 179.06 34.46 140.17
  Q 34.12 139.73 34.28 139.20
  L 37.60 127.98
  Q 37.75 127.49 38.25 127.60
  C 42.76 128.65 49.75 129.93 53.06 133.33
  C 76.26 157.18 113.30 154.23 132.13 126.80
  Q 132.99 125.56 133.35 127.02
  L 135.84 137.18
  Q 136.01 137.87 136.70 137.70
  Z"
/>
</svg>
