<?xml version="1.0" encoding="UTF-8" standalone="no"?>
<!DOCTYPE svg PUBLIC "-//W3C//DTD SVG 1.1//EN" "http://www.w3.org/Graphics/SVG/1.1/DTD/svg11.dtd">
<svg xmlns="http://www.w3.org/2000/svg" version="1.1" viewBox="0.00 0.00 211.00 97.00">
<g stroke-width="2.00" fill="none" stroke-linecap="butt">
<path stroke="#cbcbcb" vector-effect="non-scaling-stroke" d="
  M 37.73 49.34
  Q 36.94 43.33 40.13 38.23
  Q 48.12 25.50 63.60 30.45
  Q 64.06 30.60 64.36 30.23
  L 66.18 28.05
  Q 66.67 27.47 65.99 27.15
  C 42.57 15.88 22.59 45.61 40.55 63.47
  C 48.78 71.65 62.43 71.99 71.12 64.17
  C 78.30 57.71 80.59 47.24 76.76 38.21
  Q 76.52 37.65 76.02 38.01
  L 73.40 39.90
  A 0.73 0.73 0.0 0 0 73.14 40.73
  C 75.82 48.57 73.82 56.53 67.49 61.77
  C 56.23 71.08 39.55 63.21 37.73 49.34"
/>
<path stroke="#cbcbcb" vector-effect="non-scaling-stroke" d="
  M 75.48 33.30
  A 4.66 4.66 0.0 0 0 70.82 28.64
  A 4.66 4.66 0.0 0 0 66.16 33.30
  A 4.66 4.66 0.0 0 0 70.82 37.96
  A 4.66 4.66 0.0 0 0 75.48 33.30"
/>
<path stroke="#cbcbcb" vector-effect="non-scaling-stroke" d="
  M 117.59 47.28
  A 10.35 10.35 0.0 0 0 107.24 36.93
  A 10.35 10.35 0.0 0 0 96.89 47.28
  A 10.35 10.35 0.0 0 0 107.24 57.63
  A 10.35 10.35 0.0 0 0 117.59 47.28"
/>
<path stroke="#cbcbcb" vector-effect="non-scaling-stroke" d="
  M 123.89 38.71
  Q 122.66 36.62 119.94 37.62
  Q 119.49 37.79 119.49 38.26
  L 119.56 56.56
  A 0.63 0.63 0.0 0 0 120.18 57.19
  L 123.71 57.25
  Q 124.34 57.26 124.39 56.62
  C 124.61 53.24 123.78 46.48 125.09 43.83
  C 126.89 40.21 133.63 40.04 133.69 45.13
  Q 133.75 50.79 133.81 56.56
  A 0.62 0.62 0.0 0 0 134.43 57.17
  L 137.93 57.22
  Q 138.46 57.22 138.51 56.70
  C 138.96 52.27 139.68 42.79 136.47 39.32
  C 133.47 36.07 128.17 36.67 124.61 38.89
  Q 124.16 39.17 123.89 38.71"
/>
<path stroke="#cbcbcb" vector-effect="non-scaling-stroke" d="
  M 163.04 51.12
  C 158.83 55.51 153.26 53.54 152.64 47.63
  Q 152.37 45.11 153.52 43.81
  Q 158.10 38.58 163.09 43.53
  Q 163.58 44.02 164.17 43.66
  L 165.87 42.62
  Q 167.34 41.73 166.10 40.55
  Q 162.68 37.29 158.73 37.11
  C 152.80 36.84 147.61 41.85 148.22 48.01
  C 149.17 57.68 160.45 60.97 166.47 53.32
  A 0.59 0.59 0.0 0 0 166.34 52.47
  L 164.14 51.00
  Q 163.54 50.61 163.04 51.12"
/>
<path stroke="#cbcbcb" vector-effect="non-scaling-stroke" d="
  M 66.35 47.34
  A 10.25 10.25 0.0 0 0 56.10 37.09
  A 10.25 10.25 0.0 0 0 45.85 47.34
  A 10.25 10.25 0.0 0 0 56.10 57.59
  A 10.25 10.25 0.0 0 0 66.35 47.34"
/>
<path stroke="#cbcbcb" vector-effect="non-scaling-stroke" d="
  M 95.0844 38.3355
  A 1.01 1.01 0.0 0 0 94.0726 37.3272
  L 90.8726 37.3328
  A 1.01 1.01 0.0 0 0 89.8644 38.3446
  L 89.8956 56.2445
  A 1.01 1.01 0.0 0 0 90.9074 57.2528
  L 94.1074 57.2472
  A 1.01 1.01 0.0 0 0 95.1156 56.2354
  L 95.0844 38.3355"
/>
<path stroke="#cbcbcb" vector-effect="non-scaling-stroke" d="
  M 146.1960 38.1343
  A 0.70 0.70 0.0 0 0 145.4973 37.4331
  L 141.9773 37.4269
  A 0.70 0.70 0.0 0 0 141.2760 38.1257
  L 141.2440 56.5057
  A 0.70 0.70 0.0 0 0 141.9427 57.2069
  L 145.4627 57.2131
  A 0.70 0.70 0.0 0 0 146.1640 56.5143
  L 146.1960 38.1343"
/>
<path stroke="#cbcbcb" vector-effect="non-scaling-stroke" d="
  M 107.3852 53.4694
  A 6.10 5.70 89.2 0 0 112.9994 47.2904
  A 6.10 5.70 89.2 0 0 107.2148 41.2706
  A 6.10 5.70 89.2 0 0 101.6006 47.4496
  A 6.10 5.70 89.2 0 0 107.3852 53.4694"
/>
</g>
<path fill="#ffffff" d="
  M 0.00 0.00
  L 211.00 0.00
  L 211.00 97.00
  L 0.00 97.00
  L 0.00 0.00
  Z
  M 37.73 49.34
  Q 36.94 43.33 40.13 38.23
  Q 48.12 25.50 63.60 30.45
  Q 64.06 30.60 64.36 30.23
  L 66.18 28.05
  Q 66.67 27.47 65.99 27.15
  C 42.57 15.88 22.59 45.61 40.55 63.47
  C 48.78 71.65 62.43 71.99 71.12 64.17
  C 78.30 57.71 80.59 47.24 76.76 38.21
  Q 76.52 37.65 76.02 38.01
  L 73.40 39.90
  A 0.73 0.73 0.0 0 0 73.14 40.73
  C 75.82 48.57 73.82 56.53 67.49 61.77
  C 56.23 71.08 39.55 63.21 37.73 49.34
  Z
  M 75.48 33.30
  A 4.66 4.66 0.0 0 0 70.82 28.64
  A 4.66 4.66 0.0 0 0 66.16 33.30
  A 4.66 4.66 0.0 0 0 70.82 37.96
  A 4.66 4.66 0.0 0 0 75.48 33.30
  Z
  M 117.59 47.28
  A 10.35 10.35 0.0 0 0 107.24 36.93
  A 10.35 10.35 0.0 0 0 96.89 47.28
  A 10.35 10.35 0.0 0 0 107.24 57.63
  A 10.35 10.35 0.0 0 0 117.59 47.28
  Z
  M 123.89 38.71
  Q 122.66 36.62 119.94 37.62
  Q 119.49 37.79 119.49 38.26
  L 119.56 56.56
  A 0.63 0.63 0.0 0 0 120.18 57.19
  L 123.71 57.25
  Q 124.34 57.26 124.39 56.62
  C 124.61 53.24 123.78 46.48 125.09 43.83
  C 126.89 40.21 133.63 40.04 133.69 45.13
  Q 133.75 50.79 133.81 56.56
  A 0.62 0.62 0.0 0 0 134.43 57.17
  L 137.93 57.22
  Q 138.46 57.22 138.51 56.70
  C 138.96 52.27 139.68 42.79 136.47 39.32
  C 133.47 36.07 128.17 36.67 124.61 38.89
  Q 124.16 39.17 123.89 38.71
  Z
  M 163.04 51.12
  C 158.83 55.51 153.26 53.54 152.64 47.63
  Q 152.37 45.11 153.52 43.81
  Q 158.10 38.58 163.09 43.53
  Q 163.58 44.02 164.17 43.66
  L 165.87 42.62
  Q 167.34 41.73 166.10 40.55
  Q 162.68 37.29 158.73 37.11
  C 152.80 36.84 147.61 41.85 148.22 48.01
  C 149.17 57.68 160.45 60.97 166.47 53.32
  A 0.59 0.59 0.0 0 0 166.34 52.47
  L 164.14 51.00
  Q 163.54 50.61 163.04 51.12
  Z
  M 66.35 47.34
  A 10.25 10.25 0.0 0 0 56.10 37.09
  A 10.25 10.25 0.0 0 0 45.85 47.34
  A 10.25 10.25 0.0 0 0 56.10 57.59
  A 10.25 10.25 0.0 0 0 66.35 47.34
  Z
  M 95.0844 38.3355
  A 1.01 1.01 0.0 0 0 94.0726 37.3272
  L 90.8726 37.3328
  A 1.01 1.01 0.0 0 0 89.8644 38.3446
  L 89.8956 56.2445
  A 1.01 1.01 0.0 0 0 90.9074 57.2528
  L 94.1074 57.2472
  A 1.01 1.01 0.0 0 0 95.1156 56.2354
  L 95.0844 38.3355
  Z
  M 146.1960 38.1343
  A 0.70 0.70 0.0 0 0 145.4973 37.4331
  L 141.9773 37.4269
  A 0.70 0.70 0.0 0 0 141.2760 38.1257
  L 141.2440 56.5057
  A 0.70 0.70 0.0 0 0 141.9427 57.2069
  L 145.4627 57.2131
  A 0.70 0.70 0.0 0 0 146.1640 56.5143
  L 146.1960 38.1343
  Z"
/>
<path fill="#969696" d="
  M 37.73 49.34
  C 39.55 63.21 56.23 71.08 67.49 61.77
  C 73.82 56.53 75.82 48.57 73.14 40.73
  A 0.73 0.73 0.0 0 1 73.40 39.90
  L 76.02 38.01
  Q 76.52 37.65 76.76 38.21
  C 80.59 47.24 78.30 57.71 71.12 64.17
  C 62.43 71.99 48.78 71.65 40.55 63.47
  C 22.59 45.61 42.57 15.88 65.99 27.15
  Q 66.67 27.47 66.18 28.05
  L 64.36 30.23
  Q 64.06 30.60 63.60 30.45
  Q 48.12 25.50 40.13 38.23
  Q 36.94 43.33 37.73 49.34
  Z"
/>
<circle fill="#969696" cx="70.82" cy="33.30" r="4.66"/>
<path fill="#969696" d="
  M 117.59 47.28
  A 10.35 10.35 0.0 0 1 107.24 57.63
  A 10.35 10.35 0.0 0 1 96.89 47.28
  A 10.35 10.35 0.0 0 1 107.24 36.93
  A 10.35 10.35 0.0 0 1 117.59 47.28
  Z
  M 107.3852 53.4694
  A 6.10 5.70 89.2 0 0 112.9994 47.2904
  A 6.10 5.70 89.2 0 0 107.2148 41.2706
  A 6.10 5.70 89.2 0 0 101.6006 47.4496
  A 6.10 5.70 89.2 0 0 107.3852 53.4694
  Z"
/>
<path fill="#969696" d="
  M 124.61 38.89
  C 128.17 36.67 133.47 36.07 136.47 39.32
  C 139.68 42.79 138.96 52.27 138.51 56.70
  Q 138.46 57.22 137.93 57.22
  L 134.43 57.17
  A 0.62 0.62 0.0 0 1 133.81 56.56
  Q 133.75 50.79 133.69 45.13
  C 133.63 40.04 126.89 40.21 125.09 43.83
  C 123.78 46.48 124.61 53.24 124.39 56.62
  Q 124.34 57.26 123.71 57.25
  L 120.18 57.19
  A 0.63 0.63 0.0 0 1 119.56 56.56
  L 119.49 38.26
  Q 119.49 37.79 119.94 37.62
  Q 122.66 36.62 123.89 38.71
  Q 124.16 39.17 124.61 38.89
  Z"
/>
<path fill="#969696" d="
  M 152.64 47.63
  C 153.26 53.54 158.83 55.51 163.04 51.12
  Q 163.54 50.61 164.14 51.00
  L 166.34 52.47
  A 0.59 0.59 0.0 0 1 166.47 53.32
  C 160.45 60.97 149.17 57.68 148.22 48.01
  C 147.61 41.85 152.80 36.84 158.73 37.11
  Q 162.68 37.29 166.10 40.55
  Q 167.34 41.73 165.87 42.62
  L 164.17 43.66
  Q 163.58 44.02 163.09 43.53
  Q 158.10 38.58 153.52 43.81
  Q 152.37 45.11 152.64 47.63
  Z"
/>
<circle fill="#969696" cx="56.10" cy="47.34" r="10.25"/>
<rect fill="#969696" x="-2.61" y="-9.96" transform="translate(92.49,47.29) rotate(-0.1)" width="5.22" height="19.92" rx="1.01"/>
<rect fill="#969696" x="-2.46" y="-9.89" transform="translate(143.72,47.32) rotate(0.1)" width="4.92" height="19.78" rx="0.70"/>
<ellipse fill="#ffffff" cx="0.00" cy="0.00" transform="translate(107.30,47.37) rotate(89.2)" rx="6.10" ry="5.70"/>
</svg>
