<?xml version="1.0" encoding="UTF-8" standalone="no"?>
<!DOCTYPE svg PUBLIC "-//W3C//DTD SVG 1.1//EN" "http://www.w3.org/Graphics/SVG/1.1/DTD/svg11.dtd">
<svg xmlns="http://www.w3.org/2000/svg" version="1.1" viewBox="0.00 0.00 585.00 670.00">
<g stroke-width="2.00" fill="none" stroke-linecap="butt">
<path stroke="#808080" vector-effect="non-scaling-stroke" d="
  M 360.83 138.67
  A 4.77 4.77 0.0 0 0 356.06 133.90
  A 4.77 4.77 0.0 0 0 351.29 138.67
  A 4.77 4.77 0.0 0 0 356.06 143.44
  A 4.77 4.77 0.0 0 0 360.83 138.67"
/>
<path stroke="#808080" vector-effect="non-scaling-stroke" d="
  M 210.63 139.42
  A 4.73 4.73 0.0 0 0 205.90 134.69
  A 4.73 4.73 0.0 0 0 201.17 139.42
  A 4.73 4.73 0.0 0 0 205.90 144.15
  A 4.73 4.73 0.0 0 0 210.63 139.42"
/>
<path stroke="#808080" vector-effect="non-scaling-stroke" d="
  M 353.53 156.33
  A 4.77 4.77 0.0 0 0 348.76 151.56
  A 4.77 4.77 0.0 0 0 343.99 156.33
  A 4.77 4.77 0.0 0 0 348.76 161.10
  A 4.77 4.77 0.0 0 0 353.53 156.33"
/>
<path stroke="#808080" vector-effect="non-scaling-stroke" d="
  M 218.38 156.84
  A 4.75 4.75 0.0 0 0 213.63 152.09
  A 4.75 4.75 0.0 0 0 208.88 156.84
  A 4.75 4.75 0.0 0 0 213.63 161.59
  A 4.75 4.75 0.0 0 0 218.38 156.84"
/>
<path stroke="#808080" vector-effect="non-scaling-stroke" d="
  M 346.25 173.92
  A 4.78 4.78 0.0 0 0 341.47 169.14
  A 4.78 4.78 0.0 0 0 336.69 173.92
  A 4.78 4.78 0.0 0 0 341.47 178.70
  A 4.78 4.78 0.0 0 0 346.25 173.92"
/>
<path stroke="#808080" vector-effect="non-scaling-stroke" d="
  M 226.13 174.23
  A 4.77 4.77 0.0 0 0 221.36 169.46
  A 4.77 4.77 0.0 0 0 216.59 174.23
  A 4.77 4.77 0.0 0 0 221.36 179.00
  A 4.77 4.77 0.0 0 0 226.13 174.23"
/>
<path stroke="#808080" vector-effect="non-scaling-stroke" d="
  M 233.79 191.62
  A 4.77 4.77 0.0 0 0 229.02 186.85
  A 4.77 4.77 0.0 0 0 224.25 191.62
  A 4.77 4.77 0.0 0 0 229.02 196.39
  A 4.77 4.77 0.0 0 0 233.79 191.62"
/>
<path stroke="#808080" vector-effect="non-scaling-stroke" d="
  M 338.93 191.49
  A 4.77 4.77 0.0 0 0 334.16 186.72
  A 4.77 4.77 0.0 0 0 329.39 191.49
  A 4.77 4.77 0.0 0 0 334.16 196.26
  A 4.77 4.77 0.0 0 0 338.93 191.49"
/>
<path stroke="#808080" vector-effect="non-scaling-stroke" d="
  M 178.06 289.19
  Q 170.33 289.30 162.57 289.24
  C 158.42 289.21 155.08 290.84 155.09 295.26
  Q 155.09 315.13 155.13 335.01
  C 155.15 340.34 158.84 341.55 163.64 341.50
  Q 170.74 341.43 178.06 341.56
  Q 178.66 341.57 178.81 342.15
  Q 182.65 356.95 190.45 370.09
  Q 190.75 370.59 190.34 371.01
  Q 185.27 376.19 180.10 381.28
  C 176.44 384.88 174.79 387.78 178.87 391.88
  Q 192.07 405.15 205.32 418.38
  C 208.35 421.40 211.78 423.47 215.27 420.02
  Q 221.24 414.12 227.24 408.04
  Q 227.62 407.67 228.04 407.98
  C 232.59 411.36 237.23 416.68 243.36 416.69
  Q 283.33 416.75 323.35 416.88
  C 328.05 416.90 334.31 411.25 337.68 408.07
  A 0.84 0.83 -44.0 0 1 338.84 408.09
  Q 344.15 413.42 349.56 418.80
  C 352.99 422.20 356.07 422.99 359.66 419.40
  Q 373.35 405.73 387.02 392.03
  C 390.83 388.22 390.03 385.35 386.33 381.72
  Q 380.99 376.46 375.71 371.02
  Q 375.28 370.58 375.59 370.05
  Q 383.37 356.86 387.21 342.01
  A 0.60 0.59 6.3 0 1 387.78 341.56
  Q 395.63 341.42 403.48 341.51
  C 408.62 341.57 410.81 339.28 410.82 334.00
  Q 410.87 314.63 410.85 295.25
  C 410.85 290.97 407.84 289.25 403.74 289.23
  Q 395.81 289.20 388.09 289.23
  A 0.92 0.92 0.0 0 1 387.19 288.54
  Q 383.37 273.77 375.58 260.66
  A 0.95 0.94 -37.4 0 1 375.74 259.50
  Q 381.10 254.23 386.51 248.71
  C 389.77 245.39 390.86 242.51 387.30 238.95
  Q 373.86 225.48 360.39 212.02
  C 356.95 208.58 353.90 207.48 350.18 211.19
  Q 344.36 216.98 338.70 222.69
  A 0.77 0.76 -52.2 0 1 337.77 222.81
  Q 324.59 214.93 309.71 211.12
  Q 309.19 210.99 309.17 210.46
  Q 308.68 198.64 309.02 195.01
  C 309.66 188.23 305.47 187.53 299.80 187.53
  Q 282.93 187.56 266.02 187.54
  C 258.09 187.53 257.05 189.09 257.03 196.73
  Q 257.01 203.46 256.97 210.48
  A 0.61 0.60 83.9 0 1 256.51 211.06
  Q 241.57 214.89 228.29 222.72
  A 0.90 0.90 0.0 0 1 227.20 222.58
  Q 222.23 217.53 217.09 212.45
  C 213.50 208.90 210.49 207.12 206.43 211.19
  Q 193.05 224.57 179.68 237.97
  C 176.52 241.13 175.11 244.15 178.60 247.67
  Q 184.45 253.56 190.36 259.70
  Q 190.74 260.09 190.46 260.56
  Q 182.61 273.74 178.79 288.61
  Q 178.64 289.18 178.06 289.19"
/>
<path stroke="#808080" vector-effect="non-scaling-stroke" d="
  M 462.82 242.60
  A 4.72 4.72 0.0 0 0 458.10 237.88
  A 4.72 4.72 0.0 0 0 453.38 242.60
  A 4.72 4.72 0.0 0 0 458.10 247.32
  A 4.72 4.72 0.0 0 0 462.82 242.60"
/>
<path stroke="#808080" vector-effect="non-scaling-stroke" d="
  M 110.01 244.95
  A 4.73 4.73 0.0 0 0 105.28 240.22
  A 4.73 4.73 0.0 0 0 100.55 244.95
  A 4.73 4.73 0.0 0 0 105.28 249.68
  A 4.73 4.73 0.0 0 0 110.01 244.95"
/>
<path stroke="#808080" vector-effect="non-scaling-stroke" d="
  M 445.42 250.35
  A 4.78 4.78 0.0 0 0 440.64 245.57
  A 4.78 4.78 0.0 0 0 435.86 250.35
  A 4.78 4.78 0.0 0 0 440.64 255.13
  A 4.78 4.78 0.0 0 0 445.42 250.35"
/>
<path stroke="#808080" vector-effect="non-scaling-stroke" d="
  M 127.82 251.81
  A 4.77 4.77 0.0 0 0 123.05 247.04
  A 4.77 4.77 0.0 0 0 118.28 251.81
  A 4.77 4.77 0.0 0 0 123.05 256.58
  A 4.77 4.77 0.0 0 0 127.82 251.81"
/>
<path stroke="#808080" vector-effect="non-scaling-stroke" d="
  M 428.05 258.05
  A 4.77 4.77 0.0 0 0 423.28 253.28
  A 4.77 4.77 0.0 0 0 418.51 258.05
  A 4.77 4.77 0.0 0 0 423.28 262.82
  A 4.77 4.77 0.0 0 0 428.05 258.05"
/>
<path stroke="#808080" vector-effect="non-scaling-stroke" d="
  M 145.58 258.66
  A 4.78 4.78 0.0 0 0 140.80 253.88
  A 4.78 4.78 0.0 0 0 136.02 258.66
  A 4.78 4.78 0.0 0 0 140.80 263.44
  A 4.78 4.78 0.0 0 0 145.58 258.66"
/>
<path stroke="#808080" vector-effect="non-scaling-stroke" d="
  M 163.40 265.55
  A 4.79 4.79 0.0 0 0 158.61 260.76
  A 4.79 4.79 0.0 0 0 153.82 265.55
  A 4.79 4.79 0.0 0 0 158.61 270.34
  A 4.79 4.79 0.0 0 0 163.40 265.55"
/>
<path stroke="#808080" vector-effect="non-scaling-stroke" d="
  M 410.65 265.72
  A 4.79 4.79 0.0 0 0 405.86 260.93
  A 4.79 4.79 0.0 0 0 401.07 265.72
  A 4.79 4.79 0.0 0 0 405.86 270.51
  A 4.79 4.79 0.0 0 0 410.65 265.72"
/>
<path stroke="#808080" vector-effect="non-scaling-stroke" d="
  M 165.23 364.93
  A 4.72 4.72 0.0 0 0 160.51 360.21
  A 4.72 4.72 0.0 0 0 155.79 364.93
  A 4.72 4.72 0.0 0 0 160.51 369.65
  A 4.72 4.72 0.0 0 0 165.23 364.93"
/>
<path stroke="#808080" vector-effect="non-scaling-stroke" d="
  M 412.15 368.96
  A 4.76 4.76 0.0 0 0 407.39 364.20
  A 4.76 4.76 0.0 0 0 402.63 368.96
  A 4.76 4.76 0.0 0 0 407.39 373.72
  A 4.76 4.76 0.0 0 0 412.15 368.96"
/>
<path stroke="#808080" vector-effect="non-scaling-stroke" d="
  M 147.84 372.66
  A 4.76 4.76 0.0 0 0 143.08 367.90
  A 4.76 4.76 0.0 0 0 138.32 372.66
  A 4.76 4.76 0.0 0 0 143.08 377.42
  A 4.76 4.76 0.0 0 0 147.84 372.66"
/>
<path stroke="#808080" vector-effect="non-scaling-stroke" d="
  M 429.98 375.84
  A 4.76 4.76 0.0 0 0 425.22 371.08
  A 4.76 4.76 0.0 0 0 420.46 375.84
  A 4.76 4.76 0.0 0 0 425.22 380.60
  A 4.76 4.76 0.0 0 0 429.98 375.84"
/>
<path stroke="#808080" vector-effect="non-scaling-stroke" d="
  M 130.47 380.37
  A 4.79 4.79 0.0 0 0 125.68 375.58
  A 4.79 4.79 0.0 0 0 120.89 380.37
  A 4.79 4.79 0.0 0 0 125.68 385.16
  A 4.79 4.79 0.0 0 0 130.47 380.37"
/>
<path stroke="#808080" vector-effect="non-scaling-stroke" d="
  M 447.72 382.73
  A 4.77 4.77 0.0 0 0 442.95 377.96
  A 4.77 4.77 0.0 0 0 438.18 382.73
  A 4.77 4.77 0.0 0 0 442.95 387.50
  A 4.77 4.77 0.0 0 0 447.72 382.73"
/>
<path stroke="#808080" vector-effect="non-scaling-stroke" d="
  M 113.04 388.06
  A 4.78 4.78 0.0 0 0 108.26 383.28
  A 4.78 4.78 0.0 0 0 103.48 388.06
  A 4.78 4.78 0.0 0 0 108.26 392.84
  A 4.78 4.78 0.0 0 0 113.04 388.06"
/>
<path stroke="#808080" vector-effect="non-scaling-stroke" d="
  M 465.43 389.62
  A 4.70 4.70 0.0 0 0 460.73 384.92
  A 4.70 4.70 0.0 0 0 456.03 389.62
  A 4.70 4.70 0.0 0 0 460.73 394.32
  A 4.70 4.70 0.0 0 0 465.43 389.62"
/>
<path stroke="#808080" vector-effect="non-scaling-stroke" d="
  M 255.00 508.18
  C 267.39 532.01 298.67 532.34 310.93 508.23
  Q 311.18 507.75 311.72 507.75
  C 314.32 507.73 316.90 507.93 319.21 506.92
  Q 326.12 503.92 326.14 496.26
  Q 326.22 461.08 326.15 426.04
  A 2.20 2.20 0.0 0 0 323.95 423.84
  L 241.81 423.87
  A 1.96 1.96 0.0 0 0 239.85 425.83
  Q 239.84 457.24 239.79 488.88
  Q 239.77 498.32 241.16 501.45
  Q 244.30 508.47 254.18 507.73
  A 0.86 0.85 -15.9 0 1 255.00 508.18"
/>
<path stroke="#808080" vector-effect="non-scaling-stroke" d="
  M 385.25 293.67
  A 1.81 1.80 83.6 0 1 383.49 292.26
  Q 379.74 275.81 371.02 261.63
  C 370.21 260.32 369.96 258.94 371.08 257.83
  Q 377.92 251.08 384.59 244.41
  A 1.40 1.40 0.0 0 0 384.59 242.43
  L 355.56 213.42
  A 0.93 0.93 0.0 0 0 354.25 213.41
  Q 347.31 220.24 340.26 227.27
  Q 338.92 228.61 337.50 227.72
  Q 323.08 218.70 306.48 214.94
  A 2.23 2.22 -83.7 0 1 304.75 212.77
  L 304.74 193.44
  A 1.56 1.55 90.0 0 0 303.19 191.88
  L 262.94 191.87
  A 1.69 1.69 0.0 0 0 261.25 193.56
  L 261.25 213.00
  A 1.92 1.92 0.0 0 1 259.76 214.87
  Q 243.52 218.57 229.00 227.45
  C 227.63 228.29 226.51 228.17 225.43 227.07
  Q 218.61 220.10 211.77 213.33
  A 0.88 0.87 44.8 0 0 210.54 213.33
  L 181.20 242.61
  A 1.15 1.15 0.0 0 0 181.20 244.24
  L 195.13 258.11
  A 2.25 2.24 38.6 0 1 195.45 260.89
  Q 186.64 274.85 182.76 291.26
  C 182.33 293.08 181.59 293.71 179.75 293.70
  Q 169.93 293.64 160.58 293.74
  A 1.00 1.00 0.0 0 0 159.59 294.74
  L 159.57 335.44
  Q 159.57 337.06 161.19 337.06
  L 180.65 337.08
  A 1.98 1.97 -6.4 0 1 182.58 338.61
  Q 186.37 355.23 195.38 369.68
  A 2.33 2.33 0.0 0 1 195.05 372.56
  L 181.44 386.19
  A 1.48 1.47 -45.1 0 0 181.44 388.28
  L 209.86 416.71
  A 1.73 1.73 0.0 0 0 212.30 416.71
  L 225.99 403.02
  A 2.00 2.00 0.0 0 1 228.62 402.85
  L 239.17 411.03
  A 6.14 6.09 -25.9 0 0 242.92 412.31
  Q 282.19 412.34 322.36 412.45
  C 327.06 412.46 333.60 405.77 337.26 402.93
  A 2.17 2.16 48.7 0 1 340.12 403.12
  L 353.69 416.71
  A 1.73 1.73 0.0 0 0 356.13 416.71
  L 384.37 388.47
  Q 385.62 387.23 384.37 385.98
  L 370.83 372.46
  A 2.16 2.16 0.0 0 1 370.53 369.78
  Q 379.31 355.88 383.18 339.65
  C 383.78 337.11 384.38 337.13 386.77 337.12
  Q 395.77 337.07 404.80 337.14
  A 1.66 1.65 -89.8 0 0 406.46 335.48
  L 406.45 295.36
  Q 406.45 293.70 404.79 293.70
  L 385.25 293.67"
/>
<path stroke="#808080" vector-effect="non-scaling-stroke" d="
  M 281.12 224.86
  C 248.88 261.29 244.33 310.01 263.14 353.78
  C 264.13 356.09 270.87 367.41 274.29 367.41
  Q 283.13 367.41 292.05 367.32
  Q 292.56 367.32 292.95 367.01
  C 300.22 361.36 305.27 349.81 307.88 340.77
  C 320.07 298.69 314.11 258.72 285.48 225.47
  C 284.10 223.86 282.81 222.95 281.12 224.86"
/>
<path stroke="#808080" vector-effect="non-scaling-stroke" d="
  M 325.41 375.83
  L 306.50 362.66
  A 0.68 0.68 0.0 0 0 305.55 362.84
  L 304.05 365.07
  Q 303.75 365.51 304.19 365.82
  Q 313.58 372.41 322.99 378.99
  C 327.60 382.21 329.53 379.97 330.20 375.15
  Q 331.96 362.41 333.70 349.64
  C 334.39 344.57 334.12 339.00 330.99 335.46
  Q 325.40 329.11 319.51 322.84
  Q 318.90 322.19 318.75 323.07
  L 318.15 326.62
  Q 318.04 327.26 318.49 327.72
  Q 322.23 331.52 325.79 335.53
  C 329.98 340.25 330.56 342.65 329.78 348.75
  Q 328.09 362.14 326.14 375.51
  Q 326.03 376.26 325.41 375.83"
/>
<path stroke="#808080" vector-effect="non-scaling-stroke" d="
  M 239.84 375.51
  Q 238.14 363.90 236.67 352.27
  C 235.86 345.82 235.01 341.76 238.59 337.36
  Q 240.96 334.45 247.65 327.59
  A 0.98 0.96 -29.4 0 0 247.90 326.73
  L 247.22 323.24
  Q 247.02 322.25 246.34 322.99
  C 241.64 328.06 234.21 334.43 232.37 341.17
  Q 231.50 344.32 232.29 349.83
  Q 234.25 363.62 236.04 377.28
  A 3.69 3.68 68.8 0 0 241.80 379.83
  L 261.84 365.91
  Q 262.33 365.57 261.99 365.08
  L 260.33 362.70
  Q 260.02 362.26 259.57 362.57
  L 240.57 375.83
  A 0.47 0.47 0.0 0 1 239.84 375.51"
/>
<path stroke="#808080" vector-effect="non-scaling-stroke" d="
  M 277.67 372.46
  A 1.86 1.86 0.0 0 0 275.81 370.60
  L 275.65 370.60
  A 1.86 1.86 0.0 0 0 273.79 372.46
  L 273.79 397.96
  A 1.86 1.86 0.0 0 0 275.65 399.82
  L 275.81 399.82
  A 1.86 1.86 0.0 0 0 277.67 397.96
  L 277.67 372.46"
/>
<path stroke="#808080" vector-effect="non-scaling-stroke" d="
  M 284.89 372.32
  A 1.71 1.71 0.0 0 0 283.18 370.61
  L 282.80 370.61
  A 1.71 1.71 0.0 0 0 281.09 372.32
  L 281.09 398.14
  A 1.71 1.71 0.0 0 0 282.80 399.85
  L 283.18 399.85
  A 1.71 1.71 0.0 0 0 284.89 398.14
  L 284.89 372.32"
/>
<path stroke="#808080" vector-effect="non-scaling-stroke" d="
  M 292.1877 372.4666
  A 1.90 1.90 0.0 0 0 290.2844 370.5700
  L 290.2044 370.5701
  A 1.90 1.90 0.0 0 0 288.3078 372.4734
  L 288.3523 397.9734
  A 1.90 1.90 0.0 0 0 290.2556 399.8700
  L 290.3356 399.8699
  A 1.90 1.90 0.0 0 0 292.2322 397.9666
  L 292.1877 372.4666"
/>
<path stroke="#808080" vector-effect="non-scaling-stroke" d="
  M 298.87 252.64
  C 294.91 244.32 289.40 236.24 283.36 229.23
  A 0.53 0.53 0.0 0 0 282.55 229.24
  Q 273.49 239.95 267.17 252.47
  A 0.56 0.56 0.0 0 0 267.52 253.26
  Q 282.97 257.54 298.48 253.48
  A 0.60 0.60 0.0 0 0 298.87 252.64"
/>
<path stroke="#808080" vector-effect="non-scaling-stroke" d="
  M 299.59 351.08
  C 312.08 321.12 314.27 288.26 301.08 257.60
  Q 300.88 257.15 300.41 257.26
  Q 282.98 261.36 265.60 257.08
  Q 265.12 256.96 264.93 257.41
  Q 256.25 278.09 255.77 297.25
  Q 255.13 323.00 265.80 349.74
  Q 268.80 357.26 274.50 363.10
  A 1.23 1.20 67.6 0 0 275.37 363.47
  L 290.50 363.49
  A 1.52 1.46 -66.4 0 0 291.54 363.06
  Q 296.77 357.84 299.59 351.08"
/>
<path stroke="#808080" vector-effect="non-scaling-stroke" d="
  M 298.19 287.83
  A 15.18 15.18 0.0 0 0 283.01 272.65
  A 15.18 15.18 0.0 0 0 267.83 287.83
  A 15.18 15.18 0.0 0 0 283.01 303.01
  A 15.18 15.18 0.0 0 0 298.19 287.83"
/>
<path stroke="#808080" vector-effect="non-scaling-stroke" d="
  M 294.17 287.84
  A 11.20 11.20 0.0 0 0 282.97 276.64
  A 11.20 11.20 0.0 0 0 271.77 287.84
  A 11.20 11.20 0.0 0 0 282.97 299.04
  A 11.20 11.20 0.0 0 0 294.17 287.84"
/>
<path stroke="#808080" vector-effect="non-scaling-stroke" d="
  M 244.61 428.38
  A 0.43 0.43 0.0 0 0 244.18 428.81
  L 244.21 457.85
  A 0.43 0.43 0.0 0 0 244.71 458.27
  L 321.47 444.67
  A 0.43 0.43 0.0 0 0 321.83 444.25
  L 321.80 428.85
  A 0.43 0.43 0.0 0 0 321.37 428.42
  L 244.61 428.38"
/>
<path stroke="#808080" vector-effect="non-scaling-stroke" d="
  M 321.52 463.68
  A 0.36 0.36 0.0 0 0 321.82 463.33
  L 321.80 449.51
  A 0.36 0.36 0.0 0 0 321.38 449.16
  L 244.50 462.85
  A 0.36 0.36 0.0 0 0 244.20 463.20
  L 244.20 477.00
  A 0.36 0.36 0.0 0 0 244.62 477.35
  L 321.52 463.68"
/>
<path stroke="#808080" vector-effect="non-scaling-stroke" d="
  M 321.52 482.70
  A 0.36 0.36 0.0 0 0 321.82 482.35
  L 321.79 468.59
  A 0.36 0.36 0.0 0 0 321.37 468.23
  L 244.50 481.89
  A 0.36 0.36 0.0 0 0 244.20 482.24
  L 244.21 495.98
  A 0.36 0.36 0.0 0 0 244.63 496.34
  L 321.52 482.70"
/>
<path stroke="#808080" vector-effect="non-scaling-stroke" d="
  M 321.35 498.33
  Q 322.28 494.17 321.65 487.61
  Q 321.61 487.22 321.22 487.29
  L 246.72 500.52
  Q 246.13 500.63 246.40 501.17
  Q 247.39 503.15 249.71 503.17
  Q 266.40 503.33 312.66 503.22
  C 316.86 503.21 320.37 502.72 321.35 498.33"
/>
<path stroke="#808080" vector-effect="non-scaling-stroke" d="
  M 260.21 508.27
  C 270.74 526.08 295.22 526.57 305.83 508.27
  Q 306.19 507.64 305.47 507.65
  L 260.53 507.71
  Q 259.88 507.71 260.21 508.27"
/>
</g>
<path fill="#ffffff" d="
  M 0.00 0.00
  L 585.00 0.00
  L 585.00 670.00
  L 0.00 670.00
  L 0.00 0.00
  Z
  M 360.83 138.67
  A 4.77 4.77 0.0 0 0 356.06 133.90
  A 4.77 4.77 0.0 0 0 351.29 138.67
  A 4.77 4.77 0.0 0 0 356.06 143.44
  A 4.77 4.77 0.0 0 0 360.83 138.67
  Z
  M 210.63 139.42
  A 4.73 4.73 0.0 0 0 205.90 134.69
  A 4.73 4.73 0.0 0 0 201.17 139.42
  A 4.73 4.73 0.0 0 0 205.90 144.15
  A 4.73 4.73 0.0 0 0 210.63 139.42
  Z
  M 353.53 156.33
  A 4.77 4.77 0.0 0 0 348.76 151.56
  A 4.77 4.77 0.0 0 0 343.99 156.33
  A 4.77 4.77 0.0 0 0 348.76 161.10
  A 4.77 4.77 0.0 0 0 353.53 156.33
  Z
  M 218.38 156.84
  A 4.75 4.75 0.0 0 0 213.63 152.09
  A 4.75 4.75 0.0 0 0 208.88 156.84
  A 4.75 4.75 0.0 0 0 213.63 161.59
  A 4.75 4.75 0.0 0 0 218.38 156.84
  Z
  M 346.25 173.92
  A 4.78 4.78 0.0 0 0 341.47 169.14
  A 4.78 4.78 0.0 0 0 336.69 173.92
  A 4.78 4.78 0.0 0 0 341.47 178.70
  A 4.78 4.78 0.0 0 0 346.25 173.92
  Z
  M 226.13 174.23
  A 4.77 4.77 0.0 0 0 221.36 169.46
  A 4.77 4.77 0.0 0 0 216.59 174.23
  A 4.77 4.77 0.0 0 0 221.36 179.00
  A 4.77 4.77 0.0 0 0 226.13 174.23
  Z
  M 233.79 191.62
  A 4.77 4.77 0.0 0 0 229.02 186.85
  A 4.77 4.77 0.0 0 0 224.25 191.62
  A 4.77 4.77 0.0 0 0 229.02 196.39
  A 4.77 4.77 0.0 0 0 233.79 191.62
  Z
  M 338.93 191.49
  A 4.77 4.77 0.0 0 0 334.16 186.72
  A 4.77 4.77 0.0 0 0 329.39 191.49
  A 4.77 4.77 0.0 0 0 334.16 196.26
  A 4.77 4.77 0.0 0 0 338.93 191.49
  Z
  M 178.06 289.19
  Q 170.33 289.30 162.57 289.24
  C 158.42 289.21 155.08 290.84 155.09 295.26
  Q 155.09 315.13 155.13 335.01
  C 155.15 340.34 158.84 341.55 163.64 341.50
  Q 170.74 341.43 178.06 341.56
  Q 178.66 341.57 178.81 342.15
  Q 182.65 356.95 190.45 370.09
  Q 190.75 370.59 190.34 371.01
  Q 185.27 376.19 180.10 381.28
  C 176.44 384.88 174.79 387.78 178.87 391.88
  Q 192.07 405.15 205.32 418.38
  C 208.35 421.40 211.78 423.47 215.27 420.02
  Q 221.24 414.12 227.24 408.04
  Q 227.62 407.67 228.04 407.98
  C 232.59 411.36 237.23 416.68 243.36 416.69
  Q 283.33 416.75 323.35 416.88
  C 328.05 416.90 334.31 411.25 337.68 408.07
  A 0.84 0.83 -44.0 0 1 338.84 408.09
  Q 344.15 413.42 349.56 418.80
  C 352.99 422.20 356.07 422.99 359.66 419.40
  Q 373.35 405.73 387.02 392.03
  C 390.83 388.22 390.03 385.35 386.33 381.72
  Q 380.99 376.46 375.71 371.02
  Q 375.28 370.58 375.59 370.05
  Q 383.37 356.86 387.21 342.01
  A 0.60 0.59 6.3 0 1 387.78 341.56
  Q 395.63 341.42 403.48 341.51
  C 408.62 341.57 410.81 339.28 410.82 334.00
  Q 410.87 314.63 410.85 295.25
  C 410.85 290.97 407.84 289.25 403.74 289.23
  Q 395.81 289.20 388.09 289.23
  A 0.92 0.92 0.0 0 1 387.19 288.54
  Q 383.37 273.77 375.58 260.66
  A 0.95 0.94 -37.4 0 1 375.74 259.50
  Q 381.10 254.23 386.51 248.71
  C 389.77 245.39 390.86 242.51 387.30 238.95
  Q 373.86 225.48 360.39 212.02
  C 356.95 208.58 353.90 207.48 350.18 211.19
  Q 344.36 216.98 338.70 222.69
  A 0.77 0.76 -52.2 0 1 337.77 222.81
  Q 324.59 214.93 309.71 211.12
  Q 309.19 210.99 309.17 210.46
  Q 308.68 198.64 309.02 195.01
  C 309.66 188.23 305.47 187.53 299.80 187.53
  Q 282.93 187.56 266.02 187.54
  C 258.09 187.53 257.05 189.09 257.03 196.73
  Q 257.01 203.46 256.97 210.48
  A 0.61 0.60 83.9 0 1 256.51 211.06
  Q 241.57 214.89 228.29 222.72
  A 0.90 0.90 0.0 0 1 227.20 222.58
  Q 222.23 217.53 217.09 212.45
  C 213.50 208.90 210.49 207.12 206.43 211.19
  Q 193.05 224.57 179.68 237.97
  C 176.52 241.13 175.11 244.15 178.60 247.67
  Q 184.45 253.56 190.36 259.70
  Q 190.74 260.09 190.46 260.56
  Q 182.61 273.74 178.79 288.61
  Q 178.64 289.18 178.06 289.19
  Z
  M 462.82 242.60
  A 4.72 4.72 0.0 0 0 458.10 237.88
  A 4.72 4.72 0.0 0 0 453.38 242.60
  A 4.72 4.72 0.0 0 0 458.10 247.32
  A 4.72 4.72 0.0 0 0 462.82 242.60
  Z
  M 110.01 244.95
  A 4.73 4.73 0.0 0 0 105.28 240.22
  A 4.73 4.73 0.0 0 0 100.55 244.95
  A 4.73 4.73 0.0 0 0 105.28 249.68
  A 4.73 4.73 0.0 0 0 110.01 244.95
  Z
  M 445.42 250.35
  A 4.78 4.78 0.0 0 0 440.64 245.57
  A 4.78 4.78 0.0 0 0 435.86 250.35
  A 4.78 4.78 0.0 0 0 440.64 255.13
  A 4.78 4.78 0.0 0 0 445.42 250.35
  Z
  M 127.82 251.81
  A 4.77 4.77 0.0 0 0 123.05 247.04
  A 4.77 4.77 0.0 0 0 118.28 251.81
  A 4.77 4.77 0.0 0 0 123.05 256.58
  A 4.77 4.77 0.0 0 0 127.82 251.81
  Z
  M 428.05 258.05
  A 4.77 4.77 0.0 0 0 423.28 253.28
  A 4.77 4.77 0.0 0 0 418.51 258.05
  A 4.77 4.77 0.0 0 0 423.28 262.82
  A 4.77 4.77 0.0 0 0 428.05 258.05
  Z
  M 145.58 258.66
  A 4.78 4.78 0.0 0 0 140.80 253.88
  A 4.78 4.78 0.0 0 0 136.02 258.66
  A 4.78 4.78 0.0 0 0 140.80 263.44
  A 4.78 4.78 0.0 0 0 145.58 258.66
  Z
  M 163.40 265.55
  A 4.79 4.79 0.0 0 0 158.61 260.76
  A 4.79 4.79 0.0 0 0 153.82 265.55
  A 4.79 4.79 0.0 0 0 158.61 270.34
  A 4.79 4.79 0.0 0 0 163.40 265.55
  Z
  M 410.65 265.72
  A 4.79 4.79 0.0 0 0 405.86 260.93
  A 4.79 4.79 0.0 0 0 401.07 265.72
  A 4.79 4.79 0.0 0 0 405.86 270.51
  A 4.79 4.79 0.0 0 0 410.65 265.72
  Z
  M 165.23 364.93
  A 4.72 4.72 0.0 0 0 160.51 360.21
  A 4.72 4.72 0.0 0 0 155.79 364.93
  A 4.72 4.72 0.0 0 0 160.51 369.65
  A 4.72 4.72 0.0 0 0 165.23 364.93
  Z
  M 412.15 368.96
  A 4.76 4.76 0.0 0 0 407.39 364.20
  A 4.76 4.76 0.0 0 0 402.63 368.96
  A 4.76 4.76 0.0 0 0 407.39 373.72
  A 4.76 4.76 0.0 0 0 412.15 368.96
  Z
  M 147.84 372.66
  A 4.76 4.76 0.0 0 0 143.08 367.90
  A 4.76 4.76 0.0 0 0 138.32 372.66
  A 4.76 4.76 0.0 0 0 143.08 377.42
  A 4.76 4.76 0.0 0 0 147.84 372.66
  Z
  M 429.98 375.84
  A 4.76 4.76 0.0 0 0 425.22 371.08
  A 4.76 4.76 0.0 0 0 420.46 375.84
  A 4.76 4.76 0.0 0 0 425.22 380.60
  A 4.76 4.76 0.0 0 0 429.98 375.84
  Z
  M 130.47 380.37
  A 4.79 4.79 0.0 0 0 125.68 375.58
  A 4.79 4.79 0.0 0 0 120.89 380.37
  A 4.79 4.79 0.0 0 0 125.68 385.16
  A 4.79 4.79 0.0 0 0 130.47 380.37
  Z
  M 447.72 382.73
  A 4.77 4.77 0.0 0 0 442.95 377.96
  A 4.77 4.77 0.0 0 0 438.18 382.73
  A 4.77 4.77 0.0 0 0 442.95 387.50
  A 4.77 4.77 0.0 0 0 447.72 382.73
  Z
  M 113.04 388.06
  A 4.78 4.78 0.0 0 0 108.26 383.28
  A 4.78 4.78 0.0 0 0 103.48 388.06
  A 4.78 4.78 0.0 0 0 108.26 392.84
  A 4.78 4.78 0.0 0 0 113.04 388.06
  Z
  M 465.43 389.62
  A 4.70 4.70 0.0 0 0 460.73 384.92
  A 4.70 4.70 0.0 0 0 456.03 389.62
  A 4.70 4.70 0.0 0 0 460.73 394.32
  A 4.70 4.70 0.0 0 0 465.43 389.62
  Z
  M 255.00 508.18
  C 267.39 532.01 298.67 532.34 310.93 508.23
  Q 311.18 507.75 311.72 507.75
  C 314.32 507.73 316.90 507.93 319.21 506.92
  Q 326.12 503.92 326.14 496.26
  Q 326.22 461.08 326.15 426.04
  A 2.20 2.20 0.0 0 0 323.95 423.84
  L 241.81 423.87
  A 1.96 1.96 0.0 0 0 239.85 425.83
  Q 239.84 457.24 239.79 488.88
  Q 239.77 498.32 241.16 501.45
  Q 244.30 508.47 254.18 507.73
  A 0.86 0.85 -15.9 0 1 255.00 508.18
  Z"
/>
<circle fill="#010101" cx="356.06" cy="138.67" r="4.77"/>
<circle fill="#010101" cx="205.90" cy="139.42" r="4.73"/>
<circle fill="#010101" cx="348.76" cy="156.33" r="4.77"/>
<circle fill="#010101" cx="213.63" cy="156.84" r="4.75"/>
<circle fill="#010101" cx="341.47" cy="173.92" r="4.78"/>
<circle fill="#010101" cx="221.36" cy="174.23" r="4.77"/>
<circle fill="#010101" cx="229.02" cy="191.62" r="4.77"/>
<circle fill="#010101" cx="334.16" cy="191.49" r="4.77"/>
<path fill="#010101" d="
  M 178.79 288.61
  Q 182.61 273.74 190.46 260.56
  Q 190.74 260.09 190.36 259.70
  Q 184.45 253.56 178.60 247.67
  C 175.11 244.15 176.52 241.13 179.68 237.97
  Q 193.05 224.57 206.43 211.19
  C 210.49 207.12 213.50 208.90 217.09 212.45
  Q 222.23 217.53 227.20 222.58
  A 0.90 0.90 0.0 0 0 228.29 222.72
  Q 241.57 214.89 256.51 211.06
  A 0.61 0.60 83.9 0 0 256.97 210.48
  Q 257.01 203.46 257.03 196.73
  C 257.05 189.09 258.09 187.53 266.02 187.54
  Q 282.93 187.56 299.80 187.53
  C 305.47 187.53 309.66 188.23 309.02 195.01
  Q 308.68 198.64 309.17 210.46
  Q 309.19 210.99 309.71 211.12
  Q 324.59 214.93 337.77 222.81
  A 0.77 0.76 -52.2 0 0 338.70 222.69
  Q 344.36 216.98 350.18 211.19
  C 353.90 207.48 356.95 208.58 360.39 212.02
  Q 373.86 225.48 387.30 238.95
  C 390.86 242.51 389.77 245.39 386.51 248.71
  Q 381.10 254.23 375.74 259.50
  A 0.95 0.94 -37.4 0 0 375.58 260.66
  Q 383.37 273.77 387.19 288.54
  A 0.92 0.92 0.0 0 0 388.09 289.23
  Q 395.81 289.20 403.74 289.23
  C 407.84 289.25 410.85 290.97 410.85 295.25
  Q 410.87 314.63 410.82 334.00
  C 410.81 339.28 408.62 341.57 403.48 341.51
  Q 395.63 341.42 387.78 341.56
  A 0.60 0.59 6.3 0 0 387.21 342.01
  Q 383.37 356.86 375.59 370.05
  Q 375.28 370.58 375.71 371.02
  Q 380.99 376.46 386.33 381.72
  C 390.03 385.35 390.83 388.22 387.02 392.03
  Q 373.35 405.73 359.66 419.40
  C 356.07 422.99 352.99 422.20 349.56 418.80
  Q 344.15 413.42 338.84 408.09
  A 0.84 0.83 -44.0 0 0 337.68 408.07
  C 334.31 411.25 328.05 416.90 323.35 416.88
  Q 283.33 416.75 243.36 416.69
  C 237.23 416.68 232.59 411.36 228.04 407.98
  Q 227.62 407.67 227.24 408.04
  Q 221.24 414.12 215.27 420.02
  C 211.78 423.47 208.35 421.40 205.32 418.38
  Q 192.07 405.15 178.87 391.88
  C 174.79 387.78 176.44 384.88 180.10 381.28
  Q 185.27 376.19 190.34 371.01
  Q 190.75 370.59 190.45 370.09
  Q 182.65 356.95 178.81 342.15
  Q 178.66 341.57 178.06 341.56
  Q 170.74 341.43 163.64 341.50
  C 158.84 341.55 155.15 340.34 155.13 335.01
  Q 155.09 315.13 155.09 295.26
  C 155.08 290.84 158.42 289.21 162.57 289.24
  Q 170.33 289.30 178.06 289.19
  Q 178.64 289.18 178.79 288.61
  Z
  M 385.25 293.67
  A 1.81 1.80 83.6 0 1 383.49 292.26
  Q 379.74 275.81 371.02 261.63
  C 370.21 260.32 369.96 258.94 371.08 257.83
  Q 377.92 251.08 384.59 244.41
  A 1.40 1.40 0.0 0 0 384.59 242.43
  L 355.56 213.42
  A 0.93 0.93 0.0 0 0 354.25 213.41
  Q 347.31 220.24 340.26 227.27
  Q 338.92 228.61 337.50 227.72
  Q 323.08 218.70 306.48 214.94
  A 2.23 2.22 -83.7 0 1 304.75 212.77
  L 304.74 193.44
  A 1.56 1.55 90.0 0 0 303.19 191.88
  L 262.94 191.87
  A 1.69 1.69 0.0 0 0 261.25 193.56
  L 261.25 213.00
  A 1.92 1.92 0.0 0 1 259.76 214.87
  Q 243.52 218.57 229.00 227.45
  C 227.63 228.29 226.51 228.17 225.43 227.07
  Q 218.61 220.10 211.77 213.33
  A 0.88 0.87 44.8 0 0 210.54 213.33
  L 181.20 242.61
  A 1.15 1.15 0.0 0 0 181.20 244.24
  L 195.13 258.11
  A 2.25 2.24 38.6 0 1 195.45 260.89
  Q 186.64 274.85 182.76 291.26
  C 182.33 293.08 181.59 293.71 179.75 293.70
  Q 169.93 293.64 160.58 293.74
  A 1.00 1.00 0.0 0 0 159.59 294.74
  L 159.57 335.44
  Q 159.57 337.06 161.19 337.06
  L 180.65 337.08
  A 1.98 1.97 -6.4 0 1 182.58 338.61
  Q 186.37 355.23 195.38 369.68
  A 2.33 2.33 0.0 0 1 195.05 372.56
  L 181.44 386.19
  A 1.48 1.47 -45.1 0 0 181.44 388.28
  L 209.86 416.71
  A 1.73 1.73 0.0 0 0 212.30 416.71
  L 225.99 403.02
  A 2.00 2.00 0.0 0 1 228.62 402.85
  L 239.17 411.03
  A 6.14 6.09 -25.9 0 0 242.92 412.31
  Q 282.19 412.34 322.36 412.45
  C 327.06 412.46 333.60 405.77 337.26 402.93
  A 2.17 2.16 48.7 0 1 340.12 403.12
  L 353.69 416.71
  A 1.73 1.73 0.0 0 0 356.13 416.71
  L 384.37 388.47
  Q 385.62 387.23 384.37 385.98
  L 370.83 372.46
  A 2.16 2.16 0.0 0 1 370.53 369.78
  Q 379.31 355.88 383.18 339.65
  C 383.78 337.11 384.38 337.13 386.77 337.12
  Q 395.77 337.07 404.80 337.14
  A 1.66 1.65 -89.8 0 0 406.46 335.48
  L 406.45 295.36
  Q 406.45 293.70 404.79 293.70
  L 385.25 293.67
  Z"
/>
<path fill="#ffffff" d="
  M 385.25 293.67
  L 404.79 293.70
  Q 406.45 293.70 406.45 295.36
  L 406.46 335.48
  A 1.66 1.65 -89.8 0 1 404.80 337.14
  Q 395.77 337.07 386.77 337.12
  C 384.38 337.13 383.78 337.11 383.18 339.65
  Q 379.31 355.88 370.53 369.78
  A 2.16 2.16 0.0 0 0 370.83 372.46
  L 384.37 385.98
  Q 385.62 387.23 384.37 388.47
  L 356.13 416.71
  A 1.73 1.73 0.0 0 1 353.69 416.71
  L 340.12 403.12
  A 2.17 2.16 48.7 0 0 337.26 402.93
  C 333.60 405.77 327.06 412.46 322.36 412.45
  Q 282.19 412.34 242.92 412.31
  A 6.14 6.09 -25.9 0 1 239.17 411.03
  L 228.62 402.85
  A 2.00 2.00 0.0 0 0 225.99 403.02
  L 212.30 416.71
  A 1.73 1.73 0.0 0 1 209.86 416.71
  L 181.44 388.28
  A 1.48 1.47 -45.1 0 1 181.44 386.19
  L 195.05 372.56
  A 2.33 2.33 0.0 0 0 195.38 369.68
  Q 186.37 355.23 182.58 338.61
  A 1.98 1.97 -6.4 0 0 180.65 337.08
  L 161.19 337.06
  Q 159.57 337.06 159.57 335.44
  L 159.59 294.74
  A 1.00 1.00 0.0 0 1 160.58 293.74
  Q 169.93 293.64 179.75 293.70
  C 181.59 293.71 182.33 293.08 182.76 291.26
  Q 186.64 274.85 195.45 260.89
  A 2.25 2.24 38.6 0 0 195.13 258.11
  L 181.20 244.24
  A 1.15 1.15 0.0 0 1 181.20 242.61
  L 210.54 213.33
  A 0.88 0.87 44.8 0 1 211.77 213.33
  Q 218.61 220.10 225.43 227.07
  C 226.51 228.17 227.63 228.29 229.00 227.45
  Q 243.52 218.57 259.76 214.87
  A 1.92 1.92 0.0 0 0 261.25 213.00
  L 261.25 193.56
  A 1.69 1.69 0.0 0 1 262.94 191.87
  L 303.19 191.88
  A 1.56 1.55 -90.0 0 1 304.74 193.44
  L 304.75 212.77
  A 2.23 2.22 -83.7 0 0 306.48 214.94
  Q 323.08 218.70 337.50 227.72
  Q 338.92 228.61 340.26 227.27
  Q 347.31 220.24 354.25 213.41
  A 0.93 0.93 0.0 0 1 355.56 213.42
  L 384.59 242.43
  A 1.40 1.40 0.0 0 1 384.59 244.41
  Q 377.92 251.08 371.08 257.83
  C 369.96 258.94 370.21 260.32 371.02 261.63
  Q 379.74 275.81 383.49 292.26
  A 1.81 1.80 83.6 0 0 385.25 293.67
  Z
  M 281.12 224.86
  C 248.88 261.29 244.33 310.01 263.14 353.78
  C 264.13 356.09 270.87 367.41 274.29 367.41
  Q 283.13 367.41 292.05 367.32
  Q 292.56 367.32 292.95 367.01
  C 300.22 361.36 305.27 349.81 307.88 340.77
  C 320.07 298.69 314.11 258.72 285.48 225.47
  C 284.10 223.86 282.81 222.95 281.12 224.86
  Z
  M 325.41 375.83
  L 306.50 362.66
  A 0.68 0.68 0.0 0 0 305.55 362.84
  L 304.05 365.07
  Q 303.75 365.51 304.19 365.82
  Q 313.58 372.41 322.99 378.99
  C 327.60 382.21 329.53 379.97 330.20 375.15
  Q 331.96 362.41 333.70 349.64
  C 334.39 344.57 334.12 339.00 330.99 335.46
  Q 325.40 329.11 319.51 322.84
  Q 318.90 322.19 318.75 323.07
  L 318.15 326.62
  Q 318.04 327.26 318.49 327.72
  Q 322.23 331.52 325.79 335.53
  C 329.98 340.25 330.56 342.65 329.78 348.75
  Q 328.09 362.14 326.14 375.51
  Q 326.03 376.26 325.41 375.83
  Z
  M 239.84 375.51
  Q 238.14 363.90 236.67 352.27
  C 235.86 345.82 235.01 341.76 238.59 337.36
  Q 240.96 334.45 247.65 327.59
  A 0.98 0.96 -29.4 0 0 247.90 326.73
  L 247.22 323.24
  Q 247.02 322.25 246.34 322.99
  C 241.64 328.06 234.21 334.43 232.37 341.17
  Q 231.50 344.32 232.29 349.83
  Q 234.25 363.62 236.04 377.28
  A 3.69 3.68 68.8 0 0 241.80 379.83
  L 261.84 365.91
  Q 262.33 365.57 261.99 365.08
  L 260.33 362.70
  Q 260.02 362.26 259.57 362.57
  L 240.57 375.83
  A 0.47 0.47 0.0 0 1 239.84 375.51
  Z
  M 277.67 372.46
  A 1.86 1.86 0.0 0 0 275.81 370.60
  L 275.65 370.60
  A 1.86 1.86 0.0 0 0 273.79 372.46
  L 273.79 397.96
  A 1.86 1.86 0.0 0 0 275.65 399.82
  L 275.81 399.82
  A 1.86 1.86 0.0 0 0 277.67 397.96
  L 277.67 372.46
  Z
  M 284.89 372.32
  A 1.71 1.71 0.0 0 0 283.18 370.61
  L 282.80 370.61
  A 1.71 1.71 0.0 0 0 281.09 372.32
  L 281.09 398.14
  A 1.71 1.71 0.0 0 0 282.80 399.85
  L 283.18 399.85
  A 1.71 1.71 0.0 0 0 284.89 398.14
  L 284.89 372.32
  Z
  M 292.1877 372.4666
  A 1.90 1.90 0.0 0 0 290.2844 370.5700
  L 290.2044 370.5701
  A 1.90 1.90 0.0 0 0 288.3078 372.4734
  L 288.3523 397.9734
  A 1.90 1.90 0.0 0 0 290.2556 399.8700
  L 290.3356 399.8699
  A 1.90 1.90 0.0 0 0 292.2322 397.9666
  L 292.1877 372.4666
  Z"
/>
<path fill="#010101" d="
  M 263.14 353.78
  C 244.33 310.01 248.88 261.29 281.12 224.86
  C 282.81 222.95 284.10 223.86 285.48 225.47
  C 314.11 258.72 320.07 298.69 307.88 340.77
  C 305.27 349.81 300.22 361.36 292.95 367.01
  Q 292.56 367.32 292.05 367.32
  Q 283.13 367.41 274.29 367.41
  C 270.87 367.41 264.13 356.09 263.14 353.78
  Z
  M 298.87 252.64
  C 294.91 244.32 289.40 236.24 283.36 229.23
  A 0.53 0.53 0.0 0 0 282.55 229.24
  Q 273.49 239.95 267.17 252.47
  A 0.56 0.56 0.0 0 0 267.52 253.26
  Q 282.97 257.54 298.48 253.48
  A 0.60 0.60 0.0 0 0 298.87 252.64
  Z
  M 299.59 351.08
  C 312.08 321.12 314.27 288.26 301.08 257.60
  Q 300.88 257.15 300.41 257.26
  Q 282.98 261.36 265.60 257.08
  Q 265.12 256.96 264.93 257.41
  Q 256.25 278.09 255.77 297.25
  Q 255.13 323.00 265.80 349.74
  Q 268.80 357.26 274.50 363.10
  A 1.23 1.20 67.6 0 0 275.37 363.47
  L 290.50 363.49
  A 1.52 1.46 -66.4 0 0 291.54 363.06
  Q 296.77 357.84 299.59 351.08
  Z"
/>
<path fill="#ffffff" d="
  M 283.36 229.23
  C 289.40 236.24 294.91 244.32 298.87 252.64
  A 0.60 0.60 0.0 0 1 298.48 253.48
  Q 282.97 257.54 267.52 253.26
  A 0.56 0.56 0.0 0 1 267.17 252.47
  Q 273.49 239.95 282.55 229.24
  A 0.53 0.53 0.0 0 1 283.36 229.23
  Z"
/>
<circle fill="#010101" cx="458.10" cy="242.60" r="4.72"/>
<circle fill="#010101" cx="105.28" cy="244.95" r="4.73"/>
<circle fill="#010101" cx="440.64" cy="250.35" r="4.78"/>
<circle fill="#010101" cx="123.05" cy="251.81" r="4.77"/>
<circle fill="#010101" cx="423.28" cy="258.05" r="4.77"/>
<circle fill="#010101" cx="140.80" cy="258.66" r="4.78"/>
<path fill="#ffffff" d="
  M 299.59 351.08
  Q 296.77 357.84 291.54 363.06
  A 1.52 1.46 -66.4 0 1 290.50 363.49
  L 275.37 363.47
  A 1.23 1.20 67.6 0 1 274.50 363.10
  Q 268.80 357.26 265.80 349.74
  Q 255.13 323.00 255.77 297.25
  Q 256.25 278.09 264.93 257.41
  Q 265.12 256.96 265.60 257.08
  Q 282.98 261.36 300.41 257.26
  Q 300.88 257.15 301.08 257.60
  C 314.27 288.26 312.08 321.12 299.59 351.08
  Z
  M 298.19 287.83
  A 15.18 15.18 0.0 0 0 283.01 272.65
  A 15.18 15.18 0.0 0 0 267.83 287.83
  A 15.18 15.18 0.0 0 0 283.01 303.01
  A 15.18 15.18 0.0 0 0 298.19 287.83
  Z"
/>
<circle fill="#010101" cx="158.61" cy="265.55" r="4.79"/>
<circle fill="#010101" cx="405.86" cy="265.72" r="4.79"/>
<path fill="#010101" d="
  M 298.19 287.83
  A 15.18 15.18 0.0 0 1 283.01 303.01
  A 15.18 15.18 0.0 0 1 267.83 287.83
  A 15.18 15.18 0.0 0 1 283.01 272.65
  A 15.18 15.18 0.0 0 1 298.19 287.83
  Z
  M 294.17 287.84
  A 11.20 11.20 0.0 0 0 282.97 276.64
  A 11.20 11.20 0.0 0 0 271.77 287.84
  A 11.20 11.20 0.0 0 0 282.97 299.04
  A 11.20 11.20 0.0 0 0 294.17 287.84
  Z"
/>
<circle fill="#ffffff" cx="282.97" cy="287.84" r="11.20"/>
<path fill="#010101" d="
  M 326.14 375.51
  Q 328.09 362.14 329.78 348.75
  C 330.56 342.65 329.98 340.25 325.79 335.53
  Q 322.23 331.52 318.49 327.72
  Q 318.04 327.26 318.15 326.62
  L 318.75 323.07
  Q 318.90 322.19 319.51 322.84
  Q 325.40 329.11 330.99 335.46
  C 334.12 339.00 334.39 344.57 333.70 349.64
  Q 331.96 362.41 330.20 375.15
  C 329.53 379.97 327.60 382.21 322.99 378.99
  Q 313.58 372.41 304.19 365.82
  Q 303.75 365.51 304.05 365.07
  L 305.55 362.84
  A 0.68 0.68 0.0 0 1 306.50 362.66
  L 325.41 375.83
  Q 326.03 376.26 326.14 375.51
  Z"
/>
<path fill="#010101" d="
  M 240.57 375.83
  L 259.57 362.57
  Q 260.02 362.26 260.33 362.70
  L 261.99 365.08
  Q 262.33 365.57 261.84 365.91
  L 241.80 379.83
  A 3.69 3.68 68.8 0 1 236.04 377.28
  Q 234.25 363.62 232.29 349.83
  Q 231.50 344.32 232.37 341.17
  C 234.21 334.43 241.64 328.06 246.34 322.99
  Q 247.02 322.25 247.22 323.24
  L 247.90 326.73
  A 0.98 0.96 -29.4 0 1 247.65 327.59
  Q 240.96 334.45 238.59 337.36
  C 235.01 341.76 235.86 345.82 236.67 352.27
  Q 238.14 363.90 239.84 375.51
  A 0.47 0.47 0.0 0 0 240.57 375.83
  Z"
/>
<circle fill="#010101" cx="160.51" cy="364.93" r="4.72"/>
<circle fill="#010101" cx="407.39" cy="368.96" r="4.76"/>
<circle fill="#010101" cx="143.08" cy="372.66" r="4.76"/>
<rect fill="#010101" x="273.79" y="370.60" width="3.88" height="29.22" rx="1.86"/>
<rect fill="#010101" x="281.09" y="370.61" width="3.80" height="29.24" rx="1.71"/>
<rect fill="#010101" x="-1.94" y="-14.65" transform="translate(290.27,385.22) rotate(-0.1)" width="3.88" height="29.30" rx="1.90"/>
<circle fill="#010101" cx="425.22" cy="375.84" r="4.76"/>
<circle fill="#010101" cx="125.68" cy="380.37" r="4.79"/>
<circle fill="#010101" cx="442.95" cy="382.73" r="4.77"/>
<circle fill="#010101" cx="108.26" cy="388.06" r="4.78"/>
<circle fill="#010101" cx="460.73" cy="389.62" r="4.70"/>
<path fill="#010101" d="
  M 254.18 507.73
  Q 244.30 508.47 241.16 501.45
  Q 239.77 498.32 239.79 488.88
  Q 239.84 457.24 239.85 425.83
  A 1.96 1.96 0.0 0 1 241.81 423.87
  L 323.95 423.84
  A 2.20 2.20 0.0 0 1 326.15 426.04
  Q 326.22 461.08 326.14 496.26
  Q 326.12 503.92 319.21 506.92
  C 316.90 507.93 314.32 507.73 311.72 507.75
  Q 311.18 507.75 310.93 508.23
  C 298.67 532.34 267.39 532.01 255.00 508.18
  A 0.86 0.85 -15.9 0 0 254.18 507.73
  Z
  M 244.61 428.38
  A 0.43 0.43 0.0 0 0 244.18 428.81
  L 244.21 457.85
  A 0.43 0.43 0.0 0 0 244.71 458.27
  L 321.47 444.67
  A 0.43 0.43 0.0 0 0 321.83 444.25
  L 321.80 428.85
  A 0.43 0.43 0.0 0 0 321.37 428.42
  L 244.61 428.38
  Z
  M 321.52 463.68
  A 0.36 0.36 0.0 0 0 321.82 463.33
  L 321.80 449.51
  A 0.36 0.36 0.0 0 0 321.38 449.16
  L 244.50 462.85
  A 0.36 0.36 0.0 0 0 244.20 463.20
  L 244.20 477.00
  A 0.36 0.36 0.0 0 0 244.62 477.35
  L 321.52 463.68
  Z
  M 321.52 482.70
  A 0.36 0.36 0.0 0 0 321.82 482.35
  L 321.79 468.59
  A 0.36 0.36 0.0 0 0 321.37 468.23
  L 244.50 481.89
  A 0.36 0.36 0.0 0 0 244.20 482.24
  L 244.21 495.98
  A 0.36 0.36 0.0 0 0 244.63 496.34
  L 321.52 482.70
  Z
  M 321.35 498.33
  Q 322.28 494.17 321.65 487.61
  Q 321.61 487.22 321.22 487.29
  L 246.72 500.52
  Q 246.13 500.63 246.40 501.17
  Q 247.39 503.15 249.71 503.17
  Q 266.40 503.33 312.66 503.22
  C 316.86 503.21 320.37 502.72 321.35 498.33
  Z
  M 260.21 508.27
  C 270.74 526.08 295.22 526.57 305.83 508.27
  Q 306.19 507.64 305.47 507.65
  L 260.53 507.71
  Q 259.88 507.71 260.21 508.27
  Z"
/>
<path fill="#ffffff" d="
  M 244.61 428.38
  L 321.37 428.42
  A 0.43 0.43 0.0 0 1 321.80 428.85
  L 321.83 444.25
  A 0.43 0.43 0.0 0 1 321.47 444.67
  L 244.71 458.27
  A 0.43 0.43 0.0 0 1 244.21 457.85
  L 244.18 428.81
  A 0.43 0.43 0.0 0 1 244.61 428.38
  Z"
/>
<path fill="#ffffff" d="
  M 321.52 463.68
  L 244.62 477.35
  A 0.36 0.36 0.0 0 1 244.20 477.00
  L 244.20 463.20
  A 0.36 0.36 0.0 0 1 244.50 462.85
  L 321.38 449.16
  A 0.36 0.36 0.0 0 1 321.80 449.51
  L 321.82 463.33
  A 0.36 0.36 0.0 0 1 321.52 463.68
  Z"
/>
<path fill="#ffffff" d="
  M 321.52 482.70
  L 244.63 496.34
  A 0.36 0.36 0.0 0 1 244.21 495.98
  L 244.20 482.24
  A 0.36 0.36 0.0 0 1 244.50 481.89
  L 321.37 468.23
  A 0.36 0.36 0.0 0 1 321.79 468.59
  L 321.82 482.35
  A 0.36 0.36 0.0 0 1 321.52 482.70
  Z"
/>
<path fill="#ffffff" d="
  M 321.35 498.33
  C 320.37 502.72 316.86 503.21 312.66 503.22
  Q 266.40 503.33 249.71 503.17
  Q 247.39 503.15 246.40 501.17
  Q 246.13 500.63 246.72 500.52
  L 321.22 487.29
  Q 321.61 487.22 321.65 487.61
  Q 322.28 494.17 321.35 498.33
  Z"
/>
<path fill="#ffffff" d="
  M 305.83 508.27
  C 295.22 526.57 270.74 526.08 260.21 508.27
  Q 259.88 507.71 260.53 507.71
  L 305.47 507.65
  Q 306.19 507.64 305.83 508.27
  Z"
/>
</svg>
