<?xml version="1.0" encoding="UTF-8" standalone="no"?>
<!DOCTYPE svg PUBLIC "-//W3C//DTD SVG 1.1//EN" "http://www.w3.org/Graphics/SVG/1.1/DTD/svg11.dtd">
<svg xmlns="http://www.w3.org/2000/svg" version="1.1" viewBox="0.00 0.00 211.00 97.00">
<g stroke-width="2.00" fill="none" stroke-linecap="butt">
<path stroke="#cbcbcb" vector-effect="non-scaling-stroke" d="
  M 68.42 39.82
  L 82.65 62.37
  Q 82.95 62.85 83.52 62.86
  L 87.91 62.93
  Q 88.50 62.94 88.50 62.34
  L 88.49 32.89
  Q 88.49 32.28 87.89 32.28
  L 84.35 32.28
  Q 83.73 32.28 83.73 32.90
  L 83.72 54.70
  A 0.29 0.29 0.0 0 1 83.19 54.85
  L 69.32 32.73
  Q 69.04 32.28 68.51 32.28
  L 63.72 32.27
  Q 63.22 32.27 63.22 32.78
  L 63.21 62.47
  Q 63.21 62.97 63.72 62.96
  L 67.43 62.93
  A 0.61 0.61 0.0 0 0 68.03 62.32
  L 67.99 39.95
  Q 67.99 39.13 68.42 39.82"
/>
<path stroke="#cbcbcb" vector-effect="non-scaling-stroke" d="
  M 100.69 36.53
  L 110.46 36.49
  Q 111.17 36.49 111.18 35.79
  L 111.20 33.18
  Q 111.21 32.41 110.44 32.40
  L 95.57 32.29
  Q 94.91 32.28 94.91 32.94
  L 94.85 62.01
  A 0.90 0.90 0.0 0 0 95.76 62.92
  L 111.45 62.72
  A 0.55 0.55 0.0 0 0 111.99 62.13
  L 111.77 59.10
  A 0.60 0.59 -2.0 0 0 111.17 58.55
  L 101.25 58.48
  Q 100.03 58.48 100.02 57.25
  L 100.01 50.25
  Q 100.01 49.61 100.64 49.58
  Q 104.69 49.39 108.76 49.37
  Q 110.63 49.36 110.36 46.71
  A 1.62 1.61 -2.7 0 0 108.75 45.25
  L 100.67 45.23
  A 0.58 0.57 -0.5 0 1 100.09 44.67
  L 99.94 37.31
  Q 99.92 36.53 100.69 36.53"
/>
<path stroke="#cbcbcb" vector-effect="non-scaling-stroke" d="
  M 121.25 36.53
  A 0.77 0.77 0.0 0 1 122.02 37.30
  L 121.98 62.00
  A 0.77 0.77 0.0 0 0 122.72 62.77
  L 126.01 62.89
  A 0.77 0.77 0.0 0 0 126.80 62.11
  L 126.62 37.31
  A 0.77 0.77 0.0 0 1 127.35 36.54
  L 134.80 36.19
  A 0.77 0.77 0.0 0 0 135.53 35.40
  L 135.46 33.43
  A 0.77 0.77 0.0 0 0 134.70 32.69
  L 114.09 32.29
  A 0.77 0.77 0.0 0 0 113.30 33.05
  L 113.27 35.77
  A 0.77 0.77 0.0 0 0 114.04 36.55
  L 121.25 36.53"
/>
<path stroke="#cbcbcb" vector-effect="non-scaling-stroke" d="
  M 58.37 60.43
  A 3.02 3.02 0.0 0 0 55.35 57.41
  A 3.02 3.02 0.0 0 0 52.33 60.43
  A 3.02 3.02 0.0 0 0 55.35 63.45
  A 3.02 3.02 0.0 0 0 58.37 60.43"
/>
</g>
<path fill="#ffffff" d="
  M 0.00 0.00
  L 211.00 0.00
  L 211.00 97.00
  L 0.00 97.00
  L 0.00 0.00
  Z
  M 68.42 39.82
  L 82.65 62.37
  Q 82.95 62.85 83.52 62.86
  L 87.91 62.93
  Q 88.50 62.94 88.50 62.34
  L 88.49 32.89
  Q 88.49 32.28 87.89 32.28
  L 84.35 32.28
  Q 83.73 32.28 83.73 32.90
  L 83.72 54.70
  A 0.29 0.29 0.0 0 1 83.19 54.85
  L 69.32 32.73
  Q 69.04 32.28 68.51 32.28
  L 63.72 32.27
  Q 63.22 32.27 63.22 32.78
  L 63.21 62.47
  Q 63.21 62.97 63.72 62.96
  L 67.43 62.93
  A 0.61 0.61 0.0 0 0 68.03 62.32
  L 67.99 39.95
  Q 67.99 39.13 68.42 39.82
  Z
  M 100.69 36.53
  L 110.46 36.49
  Q 111.17 36.49 111.18 35.79
  L 111.20 33.18
  Q 111.21 32.41 110.44 32.40
  L 95.57 32.29
  Q 94.91 32.28 94.91 32.94
  L 94.85 62.01
  A 0.90 0.90 0.0 0 0 95.76 62.92
  L 111.45 62.72
  A 0.55 0.55 0.0 0 0 111.99 62.13
  L 111.77 59.10
  A 0.60 0.59 -2.0 0 0 111.17 58.55
  L 101.25 58.48
  Q 100.03 58.48 100.02 57.25
  L 100.01 50.25
  Q 100.01 49.61 100.64 49.58
  Q 104.69 49.39 108.76 49.37
  Q 110.63 49.36 110.36 46.71
  A 1.62 1.61 -2.7 0 0 108.75 45.25
  L 100.67 45.23
  A 0.58 0.57 -0.5 0 1 100.09 44.67
  L 99.94 37.31
  Q 99.92 36.53 100.69 36.53
  Z
  M 121.25 36.53
  A 0.77 0.77 0.0 0 1 122.02 37.30
  L 121.98 62.00
  A 0.77 0.77 0.0 0 0 122.72 62.77
  L 126.01 62.89
  A 0.77 0.77 0.0 0 0 126.80 62.11
  L 126.62 37.31
  A 0.77 0.77 0.0 0 1 127.35 36.54
  L 134.80 36.19
  A 0.77 0.77 0.0 0 0 135.53 35.40
  L 135.46 33.43
  A 0.77 0.77 0.0 0 0 134.70 32.69
  L 114.09 32.29
  A 0.77 0.77 0.0 0 0 113.30 33.05
  L 113.27 35.77
  A 0.77 0.77 0.0 0 0 114.04 36.55
  L 121.25 36.53
  Z
  M 58.37 60.43
  A 3.02 3.02 0.0 0 0 55.35 57.41
  A 3.02 3.02 0.0 0 0 52.33 60.43
  A 3.02 3.02 0.0 0 0 55.35 63.45
  A 3.02 3.02 0.0 0 0 58.37 60.43
  Z"
/>
<path fill="#969696" d="
  M 67.99 39.95
  L 68.03 62.32
  A 0.61 0.61 0.0 0 1 67.43 62.93
  L 63.72 62.96
  Q 63.21 62.97 63.21 62.47
  L 63.22 32.78
  Q 63.22 32.27 63.72 32.27
  L 68.51 32.28
  Q 69.04 32.28 69.32 32.73
  L 83.19 54.85
  A 0.29 0.29 0.0 0 0 83.72 54.70
  L 83.73 32.90
  Q 83.73 32.28 84.35 32.28
  L 87.89 32.28
  Q 88.49 32.28 88.49 32.89
  L 88.50 62.34
  Q 88.50 62.94 87.91 62.93
  L 83.52 62.86
  Q 82.95 62.85 82.65 62.37
  L 68.42 39.82
  Q 67.99 39.13 67.99 39.95
  Z"
/>
<path fill="#969696" d="
  M 99.94 37.31
  L 100.09 44.67
  A 0.58 0.57 -0.5 0 0 100.67 45.23
  L 108.75 45.25
  A 1.62 1.61 -2.7 0 1 110.36 46.71
  Q 110.63 49.36 108.76 49.37
  Q 104.69 49.39 100.64 49.58
  Q 100.01 49.61 100.01 50.25
  L 100.02 57.25
  Q 100.03 58.48 101.25 58.48
  L 111.17 58.55
  A 0.60 0.59 -2.0 0 1 111.77 59.10
  L 111.99 62.13
  A 0.55 0.55 0.0 0 1 111.45 62.72
  L 95.76 62.92
  A 0.90 0.90 0.0 0 1 94.85 62.01
  L 94.91 32.94
  Q 94.91 32.28 95.57 32.29
  L 110.44 32.40
  Q 111.21 32.41 111.20 33.18
  L 111.18 35.79
  Q 111.17 36.49 110.46 36.49
  L 100.69 36.53
  Q 99.92 36.53 99.94 37.31
  Z"
/>
<path fill="#969696" d="
  M 121.25 36.53
  L 114.04 36.55
  A 0.77 0.77 0.0 0 1 113.27 35.77
  L 113.30 33.05
  A 0.77 0.77 0.0 0 1 114.09 32.29
  L 134.70 32.69
  A 0.77 0.77 0.0 0 1 135.46 33.43
  L 135.53 35.40
  A 0.77 0.77 0.0 0 1 134.80 36.19
  L 127.35 36.54
  A 0.77 0.77 0.0 0 0 126.62 37.31
  L 126.80 62.11
  A 0.77 0.77 0.0 0 1 126.01 62.89
  L 122.72 62.77
  A 0.77 0.77 0.0 0 1 121.98 62.00
  L 122.02 37.30
  A 0.77 0.77 0.0 0 0 121.25 36.53
  Z"
/>
<circle fill="#969696" cx="55.35" cy="60.43" r="3.02"/>
</svg>
