<?xml version="1.0" encoding="UTF-8" standalone="no"?>
<!DOCTYPE svg PUBLIC "-//W3C//DTD SVG 1.1//EN" "http://www.w3.org/Graphics/SVG/1.1/DTD/svg11.dtd">
<svg xmlns="http://www.w3.org/2000/svg" version="1.1" viewBox="0.00 0.00 236.00 101.00">
<g stroke-width="2.00" fill="none" stroke-linecap="butt">
<path stroke="#c1c1c1" vector-effect="non-scaling-stroke" d="
  M 97.16 33.46
  C 97.24 31.24 97.12 28.56 98.00 26.53
  Q 98.17 26.12 97.73 26.19
  Q 96.07 26.42 96.14 28.27
  Q 96.25 30.90 96.36 33.52
  Q 96.37 33.65 96.50 33.69
  Q 96.62 33.73 96.74 33.76
  A 0.33 0.32 9.0 0 0 97.16 33.46"
/>
<path stroke="#c1c1c1" vector-effect="non-scaling-stroke" d="
  M 142.99 27.52
  C 143.66 27.82 144.70 28.03 145.57 27.85
  A 0.46 0.45 42.7 0 0 145.53 26.95
  L 142.88 26.61
  Q 142.39 26.55 142.55 27.02
  Q 142.67 27.38 142.99 27.52"
/>
<path stroke="#c1c1c1" vector-effect="non-scaling-stroke" d="
  M 63.95 31.53
  Q 64.98 30.61 65.16 29.47
  A 0.40 0.40 0.0 0 1 65.96 29.51
  L 66.22 33.63
  A 0.21 0.21 0.0 0 0 66.47 33.83
  Q 66.60 33.81 66.73 33.79
  Q 66.86 33.77 66.86 33.64
  L 66.82 27.22
  A 0.61 0.61 0.0 0 0 65.63 27.01
  L 63.95 31.53"
/>
<path stroke="#c1c1c1" vector-effect="non-scaling-stroke" d="
  M 63.95 31.53
  Q 62.92 32.09 62.02 30.42
  Q 61.12 28.76 60.69 26.95
  A 0.58 0.58 0.0 0 0 59.55 27.06
  L 59.27 33.16
  Q 59.26 33.44 59.48 33.62
  Q 59.62 33.73 59.84 33.69
  A 0.33 0.32 82.5 0 0 60.09 33.36
  L 59.91 29.72
  A 0.54 0.54 0.0 0 1 60.93 29.45
  L 62.72 33.02
  A 0.58 0.58 0.0 0 0 63.78 32.96
  Q 64.01 32.37 63.95 31.53"
/>
<path stroke="#c1c1c1" vector-effect="non-scaling-stroke" d="
  M 99.82 30.67
  Q 99.69 32.27 100.32 33.71
  Q 100.46 34.01 100.69 34.12
  Q 101.00 34.26 101.26 34.17
  Q 101.79 33.99 101.48 33.52
  Q 99.96 31.28 101.37 28.80
  Q 101.70 28.21 101.07 27.97
  L 100.45 27.74
  Q 99.90 27.53 99.61 28.04
  Q 99.15 28.87 99.60 29.67
  Q 99.86 30.14 99.82 30.67"
/>
<path stroke="#c1c1c1" vector-effect="non-scaling-stroke" d="
  M 105.3794 28.8554
  A 0.99 0.77 -2.0 0 0 104.3631 28.1205
  A 0.99 0.77 -2.0 0 0 103.4006 28.9246
  A 0.99 0.77 -2.0 0 0 104.4169 29.6595
  A 0.99 0.77 -2.0 0 0 105.3794 28.8554"
/>
<path stroke="#c1c1c1" vector-effect="non-scaling-stroke" d="
  M 72.26 29.98
  L 74.00 28.91
  A 0.24 0.24 0.0 0 0 73.83 28.47
  C 69.77 29.16 70.72 34.46 73.78 33.90
  A 0.22 0.22 0.0 0 0 73.78 33.47
  Q 71.70 33.09 71.71 30.96
  Q 71.71 30.32 72.26 29.98"
/>
<path stroke="#c1c1c1" vector-effect="non-scaling-stroke" d="
  M 87.27 32.94
  L 86.11 33.76
  A 0.24 0.24 0.0 0 0 86.27 34.20
  Q 87.85 34.06 88.69 32.69
  Q 88.97 32.25 88.55 31.93
  L 87.03 30.76
  A 0.62 0.62 0.0 0 1 87.02 29.78
  L 88.09 28.92
  A 0.35 0.35 0.0 0 0 87.85 28.29
  Q 86.14 28.39 85.79 30.05
  Q 85.71 30.47 86.01 30.77
  L 87.34 32.09
  A 0.56 0.56 0.0 0 1 87.27 32.94"
/>
<path stroke="#c1c1c1" vector-effect="non-scaling-stroke" d="
  M 81.6505 34.0816
  A 2.78 2.55 96.6 0 0 84.5031 31.6131
  A 2.78 2.55 96.6 0 0 82.2895 28.5584
  A 2.78 2.55 96.6 0 0 79.4369 31.0269
  A 2.78 2.55 96.6 0 0 81.6505 34.0816"
/>
<path stroke="#c1c1c1" vector-effect="non-scaling-stroke" d="
  M 94.92 31.25
  A 2.66 2.66 0.0 0 0 92.26 28.59
  A 2.66 2.66 0.0 0 0 89.60 31.25
  A 2.66 2.66 0.0 0 0 92.26 33.91
  A 2.66 2.66 0.0 0 0 94.92 31.25"
/>
<path stroke="#c1c1c1" vector-effect="non-scaling-stroke" d="
  M 76.97 33.46
  C 77.01 31.82 76.45 30.23 78.24 29.29
  Q 79.32 28.72 78.11 28.77
  L 77.02 28.81
  Q 76.33 28.84 76.31 29.52
  L 76.16 33.54
  Q 76.16 33.64 76.25 33.68
  Q 76.38 33.73 76.51 33.78
  A 0.35 0.34 -79.7 0 0 76.97 33.46"
/>
<path stroke="#c1c1c1" vector-effect="non-scaling-stroke" d="
  M 69.2100 32.9493
  A 1.79 0.31 88.4 0 0 69.4699 31.1513
  A 1.79 0.31 88.4 0 0 69.1100 29.3707
  A 1.79 0.31 88.4 0 0 68.8501 31.1687
  A 1.79 0.31 88.4 0 0 69.2100 32.9493"
/>
<path stroke="#c1c1c1" vector-effect="non-scaling-stroke" d="
  M 98.42 55.01
  A 0.46 0.46 0.0 0 1 97.96 54.55
  L 97.98 36.54
  A 0.46 0.46 0.0 0 0 97.45 36.09
  L 96.06 36.28
  A 0.46 0.46 0.0 0 0 95.67 36.74
  L 95.61 56.80
  A 0.46 0.46 0.0 0 0 96.07 57.26
  L 106.14 57.19
  A 0.46 0.46 0.0 0 0 106.60 56.73
  L 106.60 55.46
  A 0.46 0.46 0.0 0 0 106.14 55.00
  L 98.42 55.01"
/>
<path stroke="#c1c1c1" vector-effect="non-scaling-stroke" d="
  M 67.37 54.04
  C 65.58 56.70 61.66 55.68 59.40 54.44
  Q 58.96 54.20 58.78 54.67
  C 58.30 55.98 58.98 56.78 60.26 57.12
  C 64.41 58.24 70.66 57.18 70.05 51.71
  C 69.61 47.82 65.80 46.47 62.65 44.38
  C 57.67 41.09 63.75 36.22 68.53 38.86
  A 0.64 0.63 -63.8 0 0 69.42 38.55
  C 69.89 37.47 69.33 36.68 68.21 36.46
  Q 65.60 35.97 63.49 36.32
  C 59.23 37.04 56.85 42.37 60.54 45.45
  C 62.34 46.95 70.01 50.13 67.37 54.04"
/>
<path stroke="#c1c1c1" vector-effect="non-scaling-stroke" d="
  M 85.10 57.37
  C 94.79 54.02 94.87 37.28 83.76 36.15
  C 69.75 34.72 68.31 56.19 81.25 57.55
  A 1.29 1.25 68.7 0 1 82.00 57.89
  C 83.69 59.48 85.87 62.81 88.41 62.53
  A 0.54 0.54 0.0 0 0 88.72 61.60
  L 84.95 58.12
  Q 84.40 57.61 85.10 57.37"
/>
<path stroke="#c1c1c1" vector-effect="non-scaling-stroke" d="
  M 113.25 54.42
  Q 112.84 54.16 112.59 54.58
  Q 111.82 55.86 113.24 56.94
  Q 114.27 57.73 117.07 57.65
  C 121.34 57.54 124.66 55.69 123.66 50.63
  C 122.93 46.95 112.43 44.25 115.31 39.84
  C 116.85 37.48 120.27 37.82 122.53 38.93
  Q 123.32 39.33 123.34 38.43
  L 123.35 37.59
  Q 123.37 36.91 122.71 36.73
  Q 119.20 35.79 116.74 36.45
  C 112.50 37.61 110.93 43.12 114.85 45.87
  C 117.68 47.87 122.61 49.56 121.32 53.96
  A 1.55 1.52 -5.0 0 1 120.49 54.93
  Q 116.75 56.71 113.25 54.42"
/>
<path stroke="#c1c1c1" vector-effect="non-scaling-stroke" d="
  M 128.54 50.37
  L 137.26 50.48
  Q 138.49 50.49 138.62 49.27
  C 139.68 39.78 126.90 40.03 125.89 48.43
  C 125.15 54.51 128.50 58.08 134.87 57.33
  Q 137.41 57.03 138.08 55.54
  A 0.56 0.55 -84.5 0 0 137.45 54.77
  C 136.00 55.12 134.62 55.84 133.32 55.83
  Q 128.59 55.82 128.06 50.91
  Q 128.00 50.37 128.54 50.37"
/>
<path stroke="#c1c1c1" vector-effect="non-scaling-stroke" d="
  M 143.93 43.51
  Q 143.57 42.34 142.37 42.22
  A 0.75 0.75 0.0 0 0 141.54 42.97
  L 141.54 56.45
  Q 141.54 57.14 142.22 57.26
  L 143.30 57.45
  A 0.56 0.55 -85.0 0 0 143.96 56.89
  C 143.89 53.16 142.29 43.69 148.65 44.17
  A 0.85 0.85 0.0 0 0 149.30 42.71
  C 147.93 41.39 145.83 42.96 144.53 43.75
  Q 144.08 44.02 143.93 43.51"
/>
<path stroke="#c1c1c1" vector-effect="non-scaling-stroke" d="
  M 156.90 54.01
  Q 154.72 48.96 153.18 43.67
  Q 152.93 42.81 152.46 42.48
  Q 151.75 41.99 150.96 42.40
  Q 150.45 42.67 150.65 43.21
  L 155.40 56.23
  A 1.13 1.12 7.8 0 0 155.80 56.75
  Q 157.92 58.22 158.84 55.77
  Q 161.24 49.38 163.75 43.01
  Q 164.02 42.31 163.27 42.29
  L 162.43 42.26
  Q 161.80 42.25 161.59 42.83
  L 157.43 54.00
  Q 157.18 54.66 156.90 54.01"
/>
<path stroke="#c1c1c1" vector-effect="non-scaling-stroke" d="
  M 167.22 50.31
  L 176.53 50.43
  Q 177.14 50.44 177.22 49.83
  C 177.76 45.96 175.51 41.79 171.27 42.09
  C 161.43 42.79 162.21 59.60 173.80 57.34
  Q 175.64 56.98 176.71 55.54
  A 0.61 0.61 0.0 0 0 175.99 54.61
  C 171.93 56.27 167.11 56.57 166.75 50.81
  Q 166.72 50.30 167.22 50.31"
/>
<path stroke="#c1c1c1" vector-effect="non-scaling-stroke" d="
  M 182.54 43.73
  Q 182.33 42.50 181.12 42.23
  A 0.69 0.68 -83.9 0 0 180.29 42.90
  L 180.29 56.69
  Q 180.29 57.35 180.94 57.30
  L 181.83 57.24
  Q 182.48 57.20 182.47 56.54
  Q 182.41 52.51 182.60 48.26
  C 182.80 43.90 187.51 43.30 190.74 43.80
  Q 191.03 43.85 191.10 43.56
  L 191.16 43.30
  Q 191.35 42.54 190.58 42.72
  Q 188.73 43.14 186.97 42.31
  Q 186.43 42.06 185.90 42.33
  L 182.86 43.89
  Q 182.59 44.03 182.54 43.73"
/>
<path stroke="#c1c1c1" vector-effect="non-scaling-stroke" d="
  M 82.2392 33.3160
  A 2.05 1.78 83.3 0 0 83.7678 31.0723
  A 2.05 1.78 83.3 0 0 81.7608 29.2440
  A 2.05 1.78 83.3 0 0 80.2322 31.4877
  A 2.05 1.78 83.3 0 0 82.2392 33.3160"
/>
<path stroke="#c1c1c1" vector-effect="non-scaling-stroke" d="
  M 92.1272 33.3035
  A 2.03 1.70 94.6 0 0 93.9845 31.4163
  A 2.03 1.70 94.6 0 0 92.4528 29.2565
  A 2.03 1.70 94.6 0 0 90.5955 31.1437
  A 2.03 1.70 94.6 0 0 92.1272 33.3035"
/>
<path stroke="#c1c1c1" vector-effect="non-scaling-stroke" d="
  M 82.1490 55.6984
  A 8.91 7.55 91.1 0 0 89.8686 46.9349
  A 8.91 7.55 91.1 0 0 82.4910 37.8816
  A 8.91 7.55 91.1 0 0 74.7714 46.6451
  A 8.91 7.55 91.1 0 0 82.1490 55.6984"
/>
<path stroke="#c1c1c1" vector-effect="non-scaling-stroke" d="
  M 128.82 48.63
  L 136.10 48.63
  A 0.43 0.43 0.0 0 0 136.53 48.20
  L 136.53 48.06
  A 4.01 4.00 -90.0 0 0 132.53 44.05
  L 132.39 44.05
  A 4.01 4.00 90.0 0 0 128.39 48.06
  L 128.39 48.20
  A 0.43 0.43 0.0 0 0 128.82 48.63"
/>
<path stroke="#c1c1c1" vector-effect="non-scaling-stroke" d="
  M 167.51 48.63
  L 174.71 48.61
  A 0.44 0.44 0.0 0 0 175.15 48.17
  L 175.15 47.83
  A 3.98 3.92 -0.1 0 0 171.17 43.92
  L 171.05 43.92
  A 3.98 3.92 -0.1 0 0 167.07 47.85
  L 167.07 48.19
  A 0.44 0.44 0.0 0 0 167.51 48.63"
/>
</g>
<path fill="#ffffff" d="
  M 0.00 0.00
  L 236.00 0.00
  L 236.00 101.00
  L 0.00 101.00
  L 0.00 0.00
  Z
  M 97.16 33.46
  C 97.24 31.24 97.12 28.56 98.00 26.53
  Q 98.17 26.12 97.73 26.19
  Q 96.07 26.42 96.14 28.27
  Q 96.25 30.90 96.36 33.52
  Q 96.37 33.65 96.50 33.69
  Q 96.62 33.73 96.74 33.76
  A 0.33 0.32 9.0 0 0 97.16 33.46
  Z
  M 142.99 27.52
  C 143.66 27.82 144.70 28.03 145.57 27.85
  A 0.46 0.45 42.7 0 0 145.53 26.95
  L 142.88 26.61
  Q 142.39 26.55 142.55 27.02
  Q 142.67 27.38 142.99 27.52
  Z
  M 63.95 31.53
  Q 64.98 30.61 65.16 29.47
  A 0.40 0.40 0.0 0 1 65.96 29.51
  L 66.22 33.63
  A 0.21 0.21 0.0 0 0 66.47 33.83
  Q 66.60 33.81 66.73 33.79
  Q 66.86 33.77 66.86 33.64
  L 66.82 27.22
  A 0.61 0.61 0.0 0 0 65.63 27.01
  L 63.95 31.53
  Q 62.92 32.09 62.02 30.42
  Q 61.12 28.76 60.69 26.95
  A 0.58 0.58 0.0 0 0 59.55 27.06
  L 59.27 33.16
  Q 59.26 33.44 59.48 33.62
  Q 59.62 33.73 59.84 33.69
  A 0.33 0.32 82.5 0 0 60.09 33.36
  L 59.91 29.72
  A 0.54 0.54 0.0 0 1 60.93 29.45
  L 62.72 33.02
  A 0.58 0.58 0.0 0 0 63.78 32.96
  Q 64.01 32.37 63.95 31.53
  Z
  M 99.82 30.67
  Q 99.69 32.27 100.32 33.71
  Q 100.46 34.01 100.69 34.12
  Q 101.00 34.26 101.26 34.17
  Q 101.79 33.99 101.48 33.52
  Q 99.96 31.28 101.37 28.80
  Q 101.70 28.21 101.07 27.97
  L 100.45 27.74
  Q 99.90 27.53 99.61 28.04
  Q 99.15 28.87 99.60 29.67
  Q 99.86 30.14 99.82 30.67
  Z
  M 105.3794 28.8554
  A 0.99 0.77 -2.0 0 0 104.3631 28.1205
  A 0.99 0.77 -2.0 0 0 103.4006 28.9246
  A 0.99 0.77 -2.0 0 0 104.4169 29.6595
  A 0.99 0.77 -2.0 0 0 105.3794 28.8554
  Z
  M 72.26 29.98
  L 74.00 28.91
  A 0.24 0.24 0.0 0 0 73.83 28.47
  C 69.77 29.16 70.72 34.46 73.78 33.90
  A 0.22 0.22 0.0 0 0 73.78 33.47
  Q 71.70 33.09 71.71 30.96
  Q 71.71 30.32 72.26 29.98
  Z
  M 87.27 32.94
  L 86.11 33.76
  A 0.24 0.24 0.0 0 0 86.27 34.20
  Q 87.85 34.06 88.69 32.69
  Q 88.97 32.25 88.55 31.93
  L 87.03 30.76
  A 0.62 0.62 0.0 0 1 87.02 29.78
  L 88.09 28.92
  A 0.35 0.35 0.0 0 0 87.85 28.29
  Q 86.14 28.39 85.79 30.05
  Q 85.71 30.47 86.01 30.77
  L 87.34 32.09
  A 0.56 0.56 0.0 0 1 87.27 32.94
  Z
  M 81.6505 34.0816
  A 2.78 2.55 96.6 0 0 84.5031 31.6131
  A 2.78 2.55 96.6 0 0 82.2895 28.5584
  A 2.78 2.55 96.6 0 0 79.4369 31.0269
  A 2.78 2.55 96.6 0 0 81.6505 34.0816
  Z
  M 94.92 31.25
  A 2.66 2.66 0.0 0 0 92.26 28.59
  A 2.66 2.66 0.0 0 0 89.60 31.25
  A 2.66 2.66 0.0 0 0 92.26 33.91
  A 2.66 2.66 0.0 0 0 94.92 31.25
  Z
  M 76.97 33.46
  C 77.01 31.82 76.45 30.23 78.24 29.29
  Q 79.32 28.72 78.11 28.77
  L 77.02 28.81
  Q 76.33 28.84 76.31 29.52
  L 76.16 33.54
  Q 76.16 33.64 76.25 33.68
  Q 76.38 33.73 76.51 33.78
  A 0.35 0.34 -79.7 0 0 76.97 33.46
  Z
  M 69.2100 32.9493
  A 1.79 0.31 88.4 0 0 69.4699 31.1513
  A 1.79 0.31 88.4 0 0 69.1100 29.3707
  A 1.79 0.31 88.4 0 0 68.8501 31.1687
  A 1.79 0.31 88.4 0 0 69.2100 32.9493
  Z
  M 98.42 55.01
  A 0.46 0.46 0.0 0 1 97.96 54.55
  L 97.98 36.54
  A 0.46 0.46 0.0 0 0 97.45 36.09
  L 96.06 36.28
  A 0.46 0.46 0.0 0 0 95.67 36.74
  L 95.61 56.80
  A 0.46 0.46 0.0 0 0 96.07 57.26
  L 106.14 57.19
  A 0.46 0.46 0.0 0 0 106.60 56.73
  L 106.60 55.46
  A 0.46 0.46 0.0 0 0 106.14 55.00
  L 98.42 55.01
  Z
  M 67.37 54.04
  C 65.58 56.70 61.66 55.68 59.40 54.44
  Q 58.96 54.20 58.78 54.67
  C 58.30 55.98 58.98 56.78 60.26 57.12
  C 64.41 58.24 70.66 57.18 70.05 51.71
  C 69.61 47.82 65.80 46.47 62.65 44.38
  C 57.67 41.09 63.75 36.22 68.53 38.86
  A 0.64 0.63 -63.8 0 0 69.42 38.55
  C 69.89 37.47 69.33 36.68 68.21 36.46
  Q 65.60 35.97 63.49 36.32
  C 59.23 37.04 56.85 42.37 60.54 45.45
  C 62.34 46.95 70.01 50.13 67.37 54.04
  Z
  M 85.10 57.37
  C 94.79 54.02 94.87 37.28 83.76 36.15
  C 69.75 34.72 68.31 56.19 81.25 57.55
  A 1.29 1.25 68.7 0 1 82.00 57.89
  C 83.69 59.48 85.87 62.81 88.41 62.53
  A 0.54 0.54 0.0 0 0 88.72 61.60
  L 84.95 58.12
  Q 84.40 57.61 85.10 57.37
  Z
  M 113.25 54.42
  Q 112.84 54.16 112.59 54.58
  Q 111.82 55.86 113.24 56.94
  Q 114.27 57.73 117.07 57.65
  C 121.34 57.54 124.66 55.69 123.66 50.63
  C 122.93 46.95 112.43 44.25 115.31 39.84
  C 116.85 37.48 120.27 37.82 122.53 38.93
  Q 123.32 39.33 123.34 38.43
  L 123.35 37.59
  Q 123.37 36.91 122.71 36.73
  Q 119.20 35.79 116.74 36.45
  C 112.50 37.61 110.93 43.12 114.85 45.87
  C 117.68 47.87 122.61 49.56 121.32 53.96
  A 1.55 1.52 -5.0 0 1 120.49 54.93
  Q 116.75 56.71 113.25 54.42
  Z
  M 128.54 50.37
  L 137.26 50.48
  Q 138.49 50.49 138.62 49.27
  C 139.68 39.78 126.90 40.03 125.89 48.43
  C 125.15 54.51 128.50 58.08 134.87 57.33
  Q 137.41 57.03 138.08 55.54
  A 0.56 0.55 -84.5 0 0 137.45 54.77
  C 136.00 55.12 134.62 55.84 133.32 55.83
  Q 128.59 55.82 128.06 50.91
  Q 128.00 50.37 128.54 50.37
  Z
  M 143.93 43.51
  Q 143.57 42.34 142.37 42.22
  A 0.75 0.75 0.0 0 0 141.54 42.97
  L 141.54 56.45
  Q 141.54 57.14 142.22 57.26
  L 143.30 57.45
  A 0.56 0.55 -85.0 0 0 143.96 56.89
  C 143.89 53.16 142.29 43.69 148.65 44.17
  A 0.85 0.85 0.0 0 0 149.30 42.71
  C 147.93 41.39 145.83 42.96 144.53 43.75
  Q 144.08 44.02 143.93 43.51
  Z
  M 156.90 54.01
  Q 154.72 48.96 153.18 43.67
  Q 152.93 42.81 152.46 42.48
  Q 151.75 41.99 150.96 42.40
  Q 150.45 42.67 150.65 43.21
  L 155.40 56.23
  A 1.13 1.12 7.8 0 0 155.80 56.75
  Q 157.92 58.22 158.84 55.77
  Q 161.24 49.38 163.75 43.01
  Q 164.02 42.31 163.27 42.29
  L 162.43 42.26
  Q 161.80 42.25 161.59 42.83
  L 157.43 54.00
  Q 157.18 54.66 156.90 54.01
  Z
  M 167.22 50.31
  L 176.53 50.43
  Q 177.14 50.44 177.22 49.83
  C 177.76 45.96 175.51 41.79 171.27 42.09
  C 161.43 42.79 162.21 59.60 173.80 57.34
  Q 175.64 56.98 176.71 55.54
  A 0.61 0.61 0.0 0 0 175.99 54.61
  C 171.93 56.27 167.11 56.57 166.75 50.81
  Q 166.72 50.30 167.22 50.31
  Z
  M 182.54 43.73
  Q 182.33 42.50 181.12 42.23
  A 0.69 0.68 -83.9 0 0 180.29 42.90
  L 180.29 56.69
  Q 180.29 57.35 180.94 57.30
  L 181.83 57.24
  Q 182.48 57.20 182.47 56.54
  Q 182.41 52.51 182.60 48.26
  C 182.80 43.90 187.51 43.30 190.74 43.80
  Q 191.03 43.85 191.10 43.56
  L 191.16 43.30
  Q 191.35 42.54 190.58 42.72
  Q 188.73 43.14 186.97 42.31
  Q 186.43 42.06 185.90 42.33
  L 182.86 43.89
  Q 182.59 44.03 182.54 43.73
  Z"
/>
<path fill="#838382" d="
  M 98.00 26.53
  C 97.12 28.56 97.24 31.24 97.16 33.46
  A 0.33 0.32 9.0 0 1 96.74 33.76
  Q 96.62 33.73 96.50 33.69
  Q 96.37 33.65 96.36 33.52
  Q 96.25 30.90 96.14 28.27
  Q 96.07 26.42 97.73 26.19
  Q 98.17 26.12 98.00 26.53
  Z"
/>
<path fill="#838382" d="
  M 142.99 27.52
  Q 142.67 27.38 142.55 27.02
  Q 142.39 26.55 142.88 26.61
  L 145.53 26.95
  A 0.46 0.45 42.7 0 1 145.57 27.85
  C 144.70 28.03 143.66 27.82 142.99 27.52
  Z"
/>
<path fill="#838382" d="
  M 63.95 31.53
  Q 64.01 32.37 63.78 32.96
  A 0.58 0.58 0.0 0 1 62.72 33.02
  L 60.93 29.45
  A 0.54 0.54 0.0 0 0 59.91 29.72
  L 60.09 33.36
  A 0.33 0.32 82.5 0 1 59.84 33.69
  Q 59.62 33.73 59.48 33.62
  Q 59.26 33.44 59.27 33.16
  L 59.55 27.06
  A 0.58 0.58 0.0 0 1 60.69 26.95
  Q 61.12 28.76 62.02 30.42
  Q 62.92 32.09 63.95 31.53
  Z"
/>
<path fill="#838382" d="
  M 63.95 31.53
  L 65.63 27.01
  A 0.61 0.61 0.0 0 1 66.82 27.22
  L 66.86 33.64
  Q 66.86 33.77 66.73 33.79
  Q 66.60 33.81 66.47 33.83
  A 0.21 0.21 0.0 0 1 66.22 33.63
  L 65.96 29.51
  A 0.40 0.40 0.0 0 0 65.16 29.47
  Q 64.98 30.61 63.95 31.53
  Z"
/>
<path fill="#838382" d="
  M 99.60 29.67
  Q 99.15 28.87 99.61 28.04
  Q 99.90 27.53 100.45 27.74
  L 101.07 27.97
  Q 101.70 28.21 101.37 28.80
  Q 99.96 31.28 101.48 33.52
  Q 101.79 33.99 101.26 34.17
  Q 101.00 34.26 100.69 34.12
  Q 100.46 34.01 100.32 33.71
  Q 99.69 32.27 99.82 30.67
  Q 99.86 30.14 99.60 29.67
  Z"
/>
<ellipse fill="#838382" cx="0.00" cy="0.00" transform="translate(104.39,28.89) rotate(-2.0)" rx="0.99" ry="0.77"/>
<path fill="#838382" d="
  M 71.71 30.96
  Q 71.70 33.09 73.78 33.47
  A 0.22 0.22 0.0 0 1 73.78 33.90
  C 70.72 34.46 69.77 29.16 73.83 28.47
  A 0.24 0.24 0.0 0 1 74.00 28.91
  L 72.26 29.98
  Q 71.71 30.32 71.71 30.96
  Z"
/>
<path fill="#838382" d="
  M 87.34 32.09
  L 86.01 30.77
  Q 85.71 30.47 85.79 30.05
  Q 86.14 28.39 87.85 28.29
  A 0.35 0.35 0.0 0 1 88.09 28.92
  L 87.02 29.78
  A 0.62 0.62 0.0 0 0 87.03 30.76
  L 88.55 31.93
  Q 88.97 32.25 88.69 32.69
  Q 87.85 34.06 86.27 34.20
  A 0.24 0.24 0.0 0 1 86.11 33.76
  L 87.27 32.94
  A 0.56 0.56 0.0 0 0 87.34 32.09
  Z"
/>
<path fill="#838382" d="
  M 81.6505 34.0816
  A 2.78 2.55 96.6 0 1 79.4369 31.0269
  A 2.78 2.55 96.6 0 1 82.2895 28.5584
  A 2.78 2.55 96.6 0 1 84.5031 31.6131
  A 2.78 2.55 96.6 0 1 81.6505 34.0816
  Z
  M 82.2392 33.3160
  A 2.05 1.78 83.3 0 0 83.7678 31.0723
  A 2.05 1.78 83.3 0 0 81.7608 29.2440
  A 2.05 1.78 83.3 0 0 80.2322 31.4877
  A 2.05 1.78 83.3 0 0 82.2392 33.3160
  Z"
/>
<path fill="#838382" d="
  M 94.92 31.25
  A 2.66 2.66 0.0 0 1 92.26 33.91
  A 2.66 2.66 0.0 0 1 89.60 31.25
  A 2.66 2.66 0.0 0 1 92.26 28.59
  A 2.66 2.66 0.0 0 1 94.92 31.25
  Z
  M 92.1272 33.3035
  A 2.03 1.70 94.6 0 0 93.9845 31.4163
  A 2.03 1.70 94.6 0 0 92.4528 29.2565
  A 2.03 1.70 94.6 0 0 90.5955 31.1437
  A 2.03 1.70 94.6 0 0 92.1272 33.3035
  Z"
/>
<path fill="#838382" d="
  M 78.24 29.29
  C 76.45 30.23 77.01 31.82 76.97 33.46
  A 0.35 0.34 -79.7 0 1 76.51 33.78
  Q 76.38 33.73 76.25 33.68
  Q 76.16 33.64 76.16 33.54
  L 76.31 29.52
  Q 76.33 28.84 77.02 28.81
  L 78.11 28.77
  Q 79.32 28.72 78.24 29.29
  Z"
/>
<ellipse fill="#838382" cx="0.00" cy="0.00" transform="translate(69.16,31.16) rotate(88.4)" rx="1.79" ry="0.31"/>
<ellipse fill="#ffffff" cx="0.00" cy="0.00" transform="translate(82.00,31.28) rotate(83.3)" rx="2.05" ry="1.78"/>
<ellipse fill="#ffffff" cx="0.00" cy="0.00" transform="translate(92.29,31.28) rotate(94.6)" rx="2.03" ry="1.70"/>
<path fill="#838382" d="
  M 98.42 55.01
  L 106.14 55.00
  A 0.46 0.46 0.0 0 1 106.60 55.46
  L 106.60 56.73
  A 0.46 0.46 0.0 0 1 106.14 57.19
  L 96.07 57.26
  A 0.46 0.46 0.0 0 1 95.61 56.80
  L 95.67 36.74
  A 0.46 0.46 0.0 0 1 96.06 36.28
  L 97.45 36.09
  A 0.46 0.46 0.0 0 1 97.98 36.54
  L 97.96 54.55
  A 0.46 0.46 0.0 0 0 98.42 55.01
  Z"
/>
<path fill="#838382" d="
  M 59.40 54.44
  C 61.66 55.68 65.58 56.70 67.37 54.04
  C 70.01 50.13 62.34 46.95 60.54 45.45
  C 56.85 42.37 59.23 37.04 63.49 36.32
  Q 65.60 35.97 68.21 36.46
  C 69.33 36.68 69.89 37.47 69.42 38.55
  A 0.64 0.63 -63.8 0 1 68.53 38.86
  C 63.75 36.22 57.67 41.09 62.65 44.38
  C 65.80 46.47 69.61 47.82 70.05 51.71
  C 70.66 57.18 64.41 58.24 60.26 57.12
  C 58.98 56.78 58.30 55.98 58.78 54.67
  Q 58.96 54.20 59.40 54.44
  Z"
/>
<path fill="#838382" d="
  M 84.95 58.12
  L 88.72 61.60
  A 0.54 0.54 0.0 0 1 88.41 62.53
  C 85.87 62.81 83.69 59.48 82.00 57.89
  A 1.29 1.25 68.7 0 0 81.25 57.55
  C 68.31 56.19 69.75 34.72 83.76 36.15
  C 94.87 37.28 94.79 54.02 85.10 57.37
  Q 84.40 57.61 84.95 58.12
  Z
  M 82.1490 55.6984
  A 8.91 7.55 91.1 0 0 89.8686 46.9349
  A 8.91 7.55 91.1 0 0 82.4910 37.8816
  A 8.91 7.55 91.1 0 0 74.7714 46.6451
  A 8.91 7.55 91.1 0 0 82.1490 55.6984
  Z"
/>
<path fill="#838382" d="
  M 113.25 54.42
  Q 116.75 56.71 120.49 54.93
  A 1.55 1.52 -5.0 0 0 121.32 53.96
  C 122.61 49.56 117.68 47.87 114.85 45.87
  C 110.93 43.12 112.50 37.61 116.74 36.45
  Q 119.20 35.79 122.71 36.73
  Q 123.37 36.91 123.35 37.59
  L 123.34 38.43
  Q 123.32 39.33 122.53 38.93
  C 120.27 37.82 116.85 37.48 115.31 39.84
  C 112.43 44.25 122.93 46.95 123.66 50.63
  C 124.66 55.69 121.34 57.54 117.07 57.65
  Q 114.27 57.73 113.24 56.94
  Q 111.82 55.86 112.59 54.58
  Q 112.84 54.16 113.25 54.42
  Z"
/>
<ellipse fill="#ffffff" cx="0.00" cy="0.00" transform="translate(82.32,46.79) rotate(91.1)" rx="8.91" ry="7.55"/>
<path fill="#838382" d="
  M 128.06 50.91
  Q 128.59 55.82 133.32 55.83
  C 134.62 55.84 136.00 55.12 137.45 54.77
  A 0.56 0.55 -84.5 0 1 138.08 55.54
  Q 137.41 57.03 134.87 57.33
  C 128.50 58.08 125.15 54.51 125.89 48.43
  C 126.90 40.03 139.68 39.78 138.62 49.27
  Q 138.49 50.49 137.26 50.48
  L 128.54 50.37
  Q 128.00 50.37 128.06 50.91
  Z
  M 128.82 48.63
  L 136.10 48.63
  A 0.43 0.43 0.0 0 0 136.53 48.20
  L 136.53 48.06
  A 4.01 4.00 -90.0 0 0 132.53 44.05
  L 132.39 44.05
  A 4.01 4.00 90.0 0 0 128.39 48.06
  L 128.39 48.20
  A 0.43 0.43 0.0 0 0 128.82 48.63
  Z"
/>
<path fill="#838382" d="
  M 144.53 43.75
  C 145.83 42.96 147.93 41.39 149.30 42.71
  A 0.85 0.85 0.0 0 1 148.65 44.17
  C 142.29 43.69 143.89 53.16 143.96 56.89
  A 0.56 0.55 -85.0 0 1 143.30 57.45
  L 142.22 57.26
  Q 141.54 57.14 141.54 56.45
  L 141.54 42.97
  A 0.75 0.75 0.0 0 1 142.37 42.22
  Q 143.57 42.34 143.93 43.51
  Q 144.08 44.02 144.53 43.75
  Z"
/>
<path fill="#838382" d="
  M 157.43 54.00
  L 161.59 42.83
  Q 161.80 42.25 162.43 42.26
  L 163.27 42.29
  Q 164.02 42.31 163.75 43.01
  Q 161.24 49.38 158.84 55.77
  Q 157.92 58.22 155.80 56.75
  A 1.13 1.12 7.8 0 1 155.40 56.23
  L 150.65 43.21
  Q 150.45 42.67 150.96 42.40
  Q 151.75 41.99 152.46 42.48
  Q 152.93 42.81 153.18 43.67
  Q 154.72 48.96 156.90 54.01
  Q 157.18 54.66 157.43 54.00
  Z"
/>
<path fill="#838382" d="
  M 166.75 50.81
  C 167.11 56.57 171.93 56.27 175.99 54.61
  A 0.61 0.61 0.0 0 1 176.71 55.54
  Q 175.64 56.98 173.80 57.34
  C 162.21 59.60 161.43 42.79 171.27 42.09
  C 175.51 41.79 177.76 45.96 177.22 49.83
  Q 177.14 50.44 176.53 50.43
  L 167.22 50.31
  Q 166.72 50.30 166.75 50.81
  Z
  M 167.51 48.63
  L 174.71 48.61
  A 0.44 0.44 0.0 0 0 175.15 48.17
  L 175.15 47.83
  A 3.98 3.92 -0.1 0 0 171.17 43.92
  L 171.05 43.92
  A 3.98 3.92 -0.1 0 0 167.07 47.85
  L 167.07 48.19
  A 0.44 0.44 0.0 0 0 167.51 48.63
  Z"
/>
<path fill="#838382" d="
  M 182.86 43.89
  L 185.90 42.33
  Q 186.43 42.06 186.97 42.31
  Q 188.73 43.14 190.58 42.72
  Q 191.35 42.54 191.16 43.30
  L 191.10 43.56
  Q 191.03 43.85 190.74 43.80
  C 187.51 43.30 182.80 43.90 182.60 48.26
  Q 182.41 52.51 182.47 56.54
  Q 182.48 57.20 181.83 57.24
  L 180.94 57.30
  Q 180.29 57.35 180.29 56.69
  L 180.29 42.90
  A 0.69 0.68 -83.9 0 1 181.12 42.23
  Q 182.33 42.50 182.54 43.73
  Q 182.59 44.03 182.86 43.89
  Z"
/>
<path fill="#ffffff" d="
  M 167.51 48.63
  A 0.44 0.44 0.0 0 1 167.07 48.19
  L 167.07 47.85
  A 3.98 3.92 -0.1 0 1 171.05 43.92
  L 171.17 43.92
  A 3.98 3.92 -0.1 0 1 175.15 47.83
  L 175.15 48.17
  A 0.44 0.44 0.0 0 1 174.71 48.61
  L 167.51 48.63
  Z"
/>
<path fill="#ffffff" d="
  M 128.82 48.63
  A 0.43 0.43 0.0 0 1 128.39 48.20
  L 128.39 48.06
  A 4.01 4.00 -90.0 0 1 132.39 44.05
  L 132.53 44.05
  A 4.01 4.00 -90.0 0 1 136.53 48.06
  L 136.53 48.20
  A 0.43 0.43 0.0 0 1 136.10 48.63
  L 128.82 48.63
  Z"
/>
</svg>
