<?xml version="1.0" encoding="UTF-8" standalone="no"?>
<!DOCTYPE svg PUBLIC "-//W3C//DTD SVG 1.1//EN" "http://www.w3.org/Graphics/SVG/1.1/DTD/svg11.dtd">
<svg xmlns="http://www.w3.org/2000/svg" version="1.1" viewBox="0.00 0.00 211.00 97.00">
<g stroke-width="2.00" fill="none" stroke-linecap="butt">
<path stroke="#cbcbcb" vector-effect="non-scaling-stroke" d="
  M 57.07 31.32
  A 0.36 0.36 0.0 0 0 56.51 30.89
  L 42.92 42.36
  A 0.36 0.36 0.0 0 0 42.84 42.45
  L 30.50 63.87
  A 0.36 0.36 0.0 0 0 30.81 64.41
  L 41.38 64.46
  A 0.36 0.36 0.0 0 0 41.71 64.25
  L 57.07 31.32"
/>
<path stroke="#cbcbcb" vector-effect="non-scaling-stroke" d="
  M 64.95 64.27
  A 0.12 0.12 0.0 0 1 64.88 64.47
  L 43.47 68.08
  A 0.12 0.12 0.0 0 0 43.37 68.20
  L 43.36 68.39
  A 0.12 0.12 0.0 0 0 43.48 68.52
  L 79.74 68.52
  A 0.12 0.12 0.0 0 0 79.85 68.34
  L 59.41 32.97
  A 0.12 0.12 0.0 0 0 59.19 32.99
  L 52.98 50.03
  A 0.12 0.12 0.0 0 0 53.00 50.15
  L 64.95 64.27"
/>
<path stroke="#cbcbcb" vector-effect="non-scaling-stroke" d="
  M 90.37 58.07
  L 98.77 58.14
  A 0.73 0.72 -9.3 0 1 99.44 58.61
  L 101.43 63.91
  Q 101.64 64.45 102.21 64.41
  L 103.59 64.31
  Q 104.32 64.26 104.06 63.58
  Q 100.20 53.41 96.25 43.26
  C 95.71 41.88 94.67 41.43 93.36 42.26
  A 1.54 1.47 85.0 0 0 92.75 43.02
  L 84.92 63.80
  A 0.51 0.50 8.8 0 0 85.42 64.48
  L 86.72 64.42
  Q 87.40 64.38 87.63 63.75
  L 89.50 58.67
  Q 89.73 58.07 90.37 58.07"
/>
<path stroke="#cbcbcb" vector-effect="non-scaling-stroke" d="
  M 132.34 62.76
  Q 132.17 63.85 133.11 64.25
  A 1.02 1.01 11.5 0 0 134.53 63.32
  L 134.58 49.17
  A 0.71 0.70 -88.3 0 0 133.92 48.46
  L 133.09 48.41
  A 0.60 0.60 0.0 0 0 132.44 49.02
  C 132.47 53.07 134.22 63.55 127.11 62.70
  C 124.91 62.44 124.18 60.94 124.11 58.91
  Q 123.90 52.30 124.01 48.92
  A 0.65 0.64 1.8 0 0 123.38 48.26
  L 122.34 48.22
  Q 121.71 48.20 121.71 48.83
  C 121.73 52.51 121.02 59.40 122.65 62.26
  C 124.74 65.92 129.06 64.78 131.95 62.53
  Q 132.43 62.16 132.34 62.76"
/>
<path stroke="#b9b8b9" vector-effect="non-scaling-stroke" d="
  M 142.11 50.65
  Q 142.62 49.06 141.21 48.37
  A 0.67 0.67 0.0 0 0 140.24 48.97
  L 140.27 63.89
  Q 140.27 64.43 140.81 64.43
  L 141.62 64.42
  A 0.64 0.64 0.0 0 0 142.26 63.78
  C 142.23 58.86 140.50 50.22 147.89 50.20
  Q 148.46 50.19 148.33 49.64
  L 148.17 48.90
  Q 148.01 48.21 147.29 48.26
  Q 144.34 48.48 142.76 50.95
  A 0.36 0.36 0.0 0 1 142.11 50.65"
/>
<path stroke="#b9b8b9" vector-effect="non-scaling-stroke" d="
  M 152.99 56.74
  L 162.51 56.76
  Q 162.98 56.76 163.07 56.30
  C 165.10 46.46 152.06 45.28 150.44 54.65
  C 149.25 61.47 153.60 66.27 160.63 64.07
  Q 162.13 63.60 162.95 62.20
  A 0.46 0.46 0.0 0 0 162.32 61.57
  C 158.24 63.92 152.30 63.42 152.32 57.41
  Q 152.32 56.74 152.99 56.74"
/>
<path stroke="#cbcbcb" vector-effect="non-scaling-stroke" d="
  M 109.39 61.63
  L 118.33 49.30
  A 0.51 0.51 0.0 0 0 117.93 48.49
  Q 112.54 48.45 106.87 48.56
  Q 105.78 48.59 106.13 49.91
  Q 106.27 50.41 106.79 50.41
  L 114.32 50.39
  A 0.42 0.41 -71.8 0 1 114.65 51.05
  L 105.42 63.65
  A 0.43 0.43 0.0 0 0 105.77 64.34
  L 117.87 64.27
  Q 118.50 64.27 118.50 63.63
  L 118.50 63.04
  A 0.72 0.72 0.0 0 0 117.78 62.32
  L 109.74 62.31
  Q 108.89 62.31 109.39 61.63"
/>
<path stroke="#cbcbcb" vector-effect="non-scaling-stroke" d="
  M 90.67 55.38
  A 0.32 0.32 0.0 0 0 90.97 55.81
  L 97.96 55.82
  A 0.32 0.32 0.0 0 0 98.26 55.39
  L 94.78 45.90
  A 0.32 0.32 0.0 0 0 94.18 45.90
  L 90.67 55.38"
/>
<path stroke="#b9b8b9" vector-effect="non-scaling-stroke" d="
  M 152.70 55.24
  L 161.42 55.18
  A 0.20 0.20 0.0 0 0 161.62 54.98
  L 161.61 54.63
  A 4.77 4.49 89.6 0 0 157.09 49.89
  L 156.95 49.89
  A 4.77 4.49 89.6 0 0 152.49 54.69
  L 152.50 55.04
  A 0.20 0.20 0.0 0 0 152.70 55.24"
/>
</g>
<path fill="#ffffff" d="
  M 0.00 0.00
  L 211.00 0.00
  L 211.00 97.00
  L 0.00 97.00
  L 0.00 0.00
  Z
  M 57.07 31.32
  A 0.36 0.36 0.0 0 0 56.51 30.89
  L 42.92 42.36
  A 0.36 0.36 0.0 0 0 42.84 42.45
  L 30.50 63.87
  A 0.36 0.36 0.0 0 0 30.81 64.41
  L 41.38 64.46
  A 0.36 0.36 0.0 0 0 41.71 64.25
  L 57.07 31.32
  Z
  M 64.95 64.27
  A 0.12 0.12 0.0 0 1 64.88 64.47
  L 43.47 68.08
  A 0.12 0.12 0.0 0 0 43.37 68.20
  L 43.36 68.39
  A 0.12 0.12 0.0 0 0 43.48 68.52
  L 79.74 68.52
  A 0.12 0.12 0.0 0 0 79.85 68.34
  L 59.41 32.97
  A 0.12 0.12 0.0 0 0 59.19 32.99
  L 52.98 50.03
  A 0.12 0.12 0.0 0 0 53.00 50.15
  L 64.95 64.27
  Z
  M 90.37 58.07
  L 98.77 58.14
  A 0.73 0.72 -9.3 0 1 99.44 58.61
  L 101.43 63.91
  Q 101.64 64.45 102.21 64.41
  L 103.59 64.31
  Q 104.32 64.26 104.06 63.58
  Q 100.20 53.41 96.25 43.26
  C 95.71 41.88 94.67 41.43 93.36 42.26
  A 1.54 1.47 85.0 0 0 92.75 43.02
  L 84.92 63.80
  A 0.51 0.50 8.8 0 0 85.42 64.48
  L 86.72 64.42
  Q 87.40 64.38 87.63 63.75
  L 89.50 58.67
  Q 89.73 58.07 90.37 58.07
  Z
  M 132.34 62.76
  Q 132.17 63.85 133.11 64.25
  A 1.02 1.01 11.5 0 0 134.53 63.32
  L 134.58 49.17
  A 0.71 0.70 -88.3 0 0 133.92 48.46
  L 133.09 48.41
  A 0.60 0.60 0.0 0 0 132.44 49.02
  C 132.47 53.07 134.22 63.55 127.11 62.70
  C 124.91 62.44 124.18 60.94 124.11 58.91
  Q 123.90 52.30 124.01 48.92
  A 0.65 0.64 1.8 0 0 123.38 48.26
  L 122.34 48.22
  Q 121.71 48.20 121.71 48.83
  C 121.73 52.51 121.02 59.40 122.65 62.26
  C 124.74 65.92 129.06 64.78 131.95 62.53
  Q 132.43 62.16 132.34 62.76
  Z
  M 142.11 50.65
  Q 142.62 49.06 141.21 48.37
  A 0.67 0.67 0.0 0 0 140.24 48.97
  L 140.27 63.89
  Q 140.27 64.43 140.81 64.43
  L 141.62 64.42
  A 0.64 0.64 0.0 0 0 142.26 63.78
  C 142.23 58.86 140.50 50.22 147.89 50.20
  Q 148.46 50.19 148.33 49.64
  L 148.17 48.90
  Q 148.01 48.21 147.29 48.26
  Q 144.34 48.48 142.76 50.95
  A 0.36 0.36 0.0 0 1 142.11 50.65
  Z
  M 152.99 56.74
  L 162.51 56.76
  Q 162.98 56.76 163.07 56.30
  C 165.10 46.46 152.06 45.28 150.44 54.65
  C 149.25 61.47 153.60 66.27 160.63 64.07
  Q 162.13 63.60 162.95 62.20
  A 0.46 0.46 0.0 0 0 162.32 61.57
  C 158.24 63.92 152.30 63.42 152.32 57.41
  Q 152.32 56.74 152.99 56.74
  Z
  M 109.39 61.63
  L 118.33 49.30
  A 0.51 0.51 0.0 0 0 117.93 48.49
  Q 112.54 48.45 106.87 48.56
  Q 105.78 48.59 106.13 49.91
  Q 106.27 50.41 106.79 50.41
  L 114.32 50.39
  A 0.42 0.41 -71.8 0 1 114.65 51.05
  L 105.42 63.65
  A 0.43 0.43 0.0 0 0 105.77 64.34
  L 117.87 64.27
  Q 118.50 64.27 118.50 63.63
  L 118.50 63.04
  A 0.72 0.72 0.0 0 0 117.78 62.32
  L 109.74 62.31
  Q 108.89 62.31 109.39 61.63
  Z"
/>
<path fill="#969696" d="
  M 57.07 31.32
  L 41.71 64.25
  A 0.36 0.36 0.0 0 1 41.38 64.46
  L 30.81 64.41
  A 0.36 0.36 0.0 0 1 30.50 63.87
  L 42.84 42.45
  A 0.36 0.36 0.0 0 1 42.92 42.36
  L 56.51 30.89
  A 0.36 0.36 0.0 0 1 57.07 31.32
  Z"
/>
<path fill="#969696" d="
  M 64.95 64.27
  L 53.00 50.15
  A 0.12 0.12 0.0 0 1 52.98 50.03
  L 59.19 32.99
  A 0.12 0.12 0.0 0 1 59.41 32.97
  L 79.85 68.34
  A 0.12 0.12 0.0 0 1 79.74 68.52
  L 43.48 68.52
  A 0.12 0.12 0.0 0 1 43.36 68.39
  L 43.37 68.20
  A 0.12 0.12 0.0 0 1 43.47 68.08
  L 64.88 64.47
  A 0.12 0.12 0.0 0 0 64.95 64.27
  Z"
/>
<path fill="#969696" d="
  M 89.50 58.67
  L 87.63 63.75
  Q 87.40 64.38 86.72 64.42
  L 85.42 64.48
  A 0.51 0.50 8.8 0 1 84.92 63.80
  L 92.75 43.02
  A 1.54 1.47 85.0 0 1 93.36 42.26
  C 94.67 41.43 95.71 41.88 96.25 43.26
  Q 100.20 53.41 104.06 63.58
  Q 104.32 64.26 103.59 64.31
  L 102.21 64.41
  Q 101.64 64.45 101.43 63.91
  L 99.44 58.61
  A 0.73 0.72 -9.3 0 0 98.77 58.14
  L 90.37 58.07
  Q 89.73 58.07 89.50 58.67
  Z
  M 90.67 55.38
  A 0.32 0.32 0.0 0 0 90.97 55.81
  L 97.96 55.82
  A 0.32 0.32 0.0 0 0 98.26 55.39
  L 94.78 45.90
  A 0.32 0.32 0.0 0 0 94.18 45.90
  L 90.67 55.38
  Z"
/>
<path fill="#ffffff" d="
  M 90.67 55.38
  L 94.18 45.90
  A 0.32 0.32 0.0 0 1 94.78 45.90
  L 98.26 55.39
  A 0.32 0.32 0.0 0 1 97.96 55.82
  L 90.97 55.81
  A 0.32 0.32 0.0 0 1 90.67 55.38
  Z"
/>
<path fill="#969696" d="
  M 131.95 62.53
  C 129.06 64.78 124.74 65.92 122.65 62.26
  C 121.02 59.40 121.73 52.51 121.71 48.83
  Q 121.71 48.20 122.34 48.22
  L 123.38 48.26
  A 0.65 0.64 1.8 0 1 124.01 48.92
  Q 123.90 52.30 124.11 58.91
  C 124.18 60.94 124.91 62.44 127.11 62.70
  C 134.22 63.55 132.47 53.07 132.44 49.02
  A 0.60 0.60 0.0 0 1 133.09 48.41
  L 133.92 48.46
  A 0.71 0.70 -88.3 0 1 134.58 49.17
  L 134.53 63.32
  A 1.02 1.01 11.5 0 1 133.11 64.25
  Q 132.17 63.85 132.34 62.76
  Q 132.43 62.16 131.95 62.53
  Z"
/>
<path fill="#727172" d="
  M 142.76 50.95
  Q 144.34 48.48 147.29 48.26
  Q 148.01 48.21 148.17 48.90
  L 148.33 49.64
  Q 148.46 50.19 147.89 50.20
  C 140.50 50.22 142.23 58.86 142.26 63.78
  A 0.64 0.64 0.0 0 1 141.62 64.42
  L 140.81 64.43
  Q 140.27 64.43 140.27 63.89
  L 140.24 48.97
  A 0.67 0.67 0.0 0 1 141.21 48.37
  Q 142.62 49.06 142.11 50.65
  A 0.36 0.36 0.0 0 0 142.76 50.95
  Z"
/>
<path fill="#727172" d="
  M 152.32 57.41
  C 152.30 63.42 158.24 63.92 162.32 61.57
  A 0.46 0.46 0.0 0 1 162.95 62.20
  Q 162.13 63.60 160.63 64.07
  C 153.60 66.27 149.25 61.47 150.44 54.65
  C 152.06 45.28 165.10 46.46 163.07 56.30
  Q 162.98 56.76 162.51 56.76
  L 152.99 56.74
  Q 152.32 56.74 152.32 57.41
  Z
  M 152.70 55.24
  L 161.42 55.18
  A 0.20 0.20 0.0 0 0 161.62 54.98
  L 161.61 54.63
  A 4.77 4.49 89.6 0 0 157.09 49.89
  L 156.95 49.89
  A 4.77 4.49 89.6 0 0 152.49 54.69
  L 152.50 55.04
  A 0.20 0.20 0.0 0 0 152.70 55.24
  Z"
/>
<path fill="#969696" d="
  M 109.74 62.31
  L 117.78 62.32
  A 0.72 0.72 0.0 0 1 118.50 63.04
  L 118.50 63.63
  Q 118.50 64.27 117.87 64.27
  L 105.77 64.34
  A 0.43 0.43 0.0 0 1 105.42 63.65
  L 114.65 51.05
  A 0.42 0.41 -71.8 0 0 114.32 50.39
  L 106.79 50.41
  Q 106.27 50.41 106.13 49.91
  Q 105.78 48.59 106.87 48.56
  Q 112.54 48.45 117.93 48.49
  A 0.51 0.51 0.0 0 1 118.33 49.30
  L 109.39 61.63
  Q 108.89 62.31 109.74 62.31
  Z"
/>
<path fill="#ffffff" d="
  M 152.70 55.24
  A 0.20 0.20 0.0 0 1 152.50 55.04
  L 152.49 54.69
  A 4.77 4.49 89.6 0 1 156.95 49.89
  L 157.09 49.89
  A 4.77 4.49 89.6 0 1 161.61 54.63
  L 161.62 54.98
  A 0.20 0.20 0.0 0 1 161.42 55.18
  L 152.70 55.24
  Z"
/>
</svg>
