<?xml version="1.0" encoding="UTF-8" standalone="no"?>
<!DOCTYPE svg PUBLIC "-//W3C//DTD SVG 1.1//EN" "http://www.w3.org/Graphics/SVG/1.1/DTD/svg11.dtd">
<svg xmlns="http://www.w3.org/2000/svg" version="1.1" viewBox="0.00 0.00 225.00 225.00">
<g stroke-width="2.00" fill="none" stroke-linecap="butt">
<path stroke="#808080" vector-effect="non-scaling-stroke" d="
  M 143.92 188.31
  Q 150.96 188.15 158.01 188.33
  C 170.85 188.65 182.75 176.63 182.73 163.75
  Q 182.70 153.30 182.74 142.82
  Q 182.74 142.31 183.19 142.07
  Q 188.63 139.22 194.12 136.47
  Q 199.53 133.75 200.99 131.94
  Q 204.18 127.98 200.93 122.55
  Q 192.25 108.01 183.70 93.37
  Q 182.65 91.58 182.56 89.45
  C 181.10 55.75 157.02 30.99 125.35 24.37
  C 90.86 17.15 55.40 31.60 37.88 62.45
  C 27.99 79.86 25.39 100.98 31.37 120.21
  C 36.21 135.80 44.37 145.41 55.79 161.48
  Q 60.80 168.54 63.19 176.95
  C 65.54 185.18 64.87 195.56 64.77 204.71
  Q 64.76 205.21 65.26 205.21
  L 69.72 205.21
  Q 70.15 205.22 70.16 204.78
  C 70.36 195.16 71.02 184.16 68.41 175.30
  C 64.19 161.01 52.17 147.41 45.81 137.96
  C 23.29 104.53 33.42 60.85 66.97 39.63
  C 109.77 12.57 176.04 33.99 177.22 91.36
  C 177.26 93.29 177.68 94.06 178.62 95.64
  Q 187.62 110.86 196.40 125.77
  Q 197.93 128.37 195.25 129.74
  L 177.75 138.73
  A 0.83 0.82 -13.7 0 0 177.30 139.46
  Q 177.20 147.37 177.27 155.31
  Q 177.35 165.77 176.07 169.59
  Q 173.21 178.12 164.41 181.55
  Q 161.03 182.86 155.39 182.90
  Q 146.72 182.97 138.06 182.93
  C 134.58 182.92 133.75 187.22 137.46 188.35
  Q 137.93 188.49 137.93 188.98
  L 137.93 204.70
  Q 137.93 205.21 138.45 205.21
  L 142.78 205.22
  Q 143.27 205.22 143.27 204.72
  L 143.27 188.98
  Q 143.27 188.33 143.92 188.31"
/>
<path stroke="#808080" vector-effect="non-scaling-stroke" d="
  M 118.42 135.75
  Q 126.88 133.00 133.53 127.07
  Q 133.95 126.70 134.50 126.78
  L 144.05 128.25
  Q 144.75 128.35 145.10 127.74
  L 151.44 116.75
  Q 151.70 116.30 151.37 115.88
  L 145.17 108.05
  Q 144.81 107.59 144.96 107.03
  Q 147.39 98.38 144.94 89.74
  A 0.99 0.99 0.0 0 1 145.12 88.85
  L 151.22 81.22
  A 1.17 1.16 -40.9 0 0 151.32 79.92
  L 145.03 69.00
  A 0.73 0.71 70.4 0 0 144.29 68.64
  L 134.38 70.10
  Q 133.86 70.18 133.47 69.82
  Q 126.88 63.74 118.33 61.05
  A 0.98 0.98 0.0 0 1 117.70 60.46
  L 114.03 51.27
  Q 113.83 50.75 113.27 50.75
  L 100.47 50.75
  Q 99.92 50.75 99.72 51.26
  L 96.03 60.50
  A 1.05 1.02 1.6 0 1 95.38 61.10
  Q 86.80 63.73 80.25 69.82
  Q 79.89 70.16 79.39 70.09
  L 69.57 68.64
  Q 69.00 68.55 68.71 69.05
  L 62.32 80.12
  Q 62.06 80.56 62.38 80.96
  L 68.63 88.88
  A 1.01 0.98 -57.6 0 1 68.81 89.74
  Q 66.45 98.42 68.80 107.10
  A 1.02 1.00 -33.3 0 1 68.61 107.99
  L 62.42 115.84
  Q 62.05 116.31 62.35 116.84
  L 68.72 127.84
  Q 69.02 128.35 69.61 128.26
  L 79.27 126.80
  Q 79.90 126.70 80.37 127.13
  Q 86.90 133.10 95.35 135.73
  A 1.04 1.03 88.1 0 1 95.99 136.33
  L 99.77 145.70
  A 0.75 0.74 -11.2 0 0 100.46 146.16
  L 113.33 146.14
  Q 113.83 146.14 114.01 145.67
  L 117.70 136.42
  Q 117.90 135.92 118.42 135.75"
/>
<path stroke="#808080" vector-effect="non-scaling-stroke" d="
  M 109.55 174.38
  A 2.72 2.72 0.0 0 0 106.83 171.66
  A 2.72 2.72 0.0 0 0 104.11 174.38
  A 2.72 2.72 0.0 0 0 106.83 177.10
  A 2.72 2.72 0.0 0 0 109.55 174.38"
/>
<path stroke="#808080" vector-effect="non-scaling-stroke" d="
  M 118.02 182.79
  A 2.71 2.71 0.0 0 0 115.31 180.08
  A 2.71 2.71 0.0 0 0 112.60 182.79
  A 2.71 2.71 0.0 0 0 115.31 185.50
  A 2.71 2.71 0.0 0 0 118.02 182.79"
/>
<path stroke="#808080" vector-effect="non-scaling-stroke" d="
  M 129.26 185.59
  A 2.72 2.72 0.0 0 0 126.54 182.87
  A 2.72 2.72 0.0 0 0 123.82 185.59
  A 2.72 2.72 0.0 0 0 126.54 188.31
  A 2.72 2.72 0.0 0 0 129.26 185.59"
/>
<path stroke="#808080" vector-effect="non-scaling-stroke" d="
  M 74.60 88.38
  Q 71.49 98.44 74.62 108.49
  Q 74.79 109.05 74.43 109.50
  L 68.98 116.40
  Q 68.69 116.77 68.92 117.18
  L 71.50 121.74
  Q 71.83 122.31 72.48 122.22
  L 81.11 121.02
  Q 81.66 120.94 82.04 121.35
  Q 89.13 129.06 99.41 131.33
  A 1.10 1.09 -4.1 0 1 100.18 131.99
  L 103.49 140.23
  Q 103.70 140.75 104.25 140.75
  L 109.50 140.76
  Q 110.04 140.76 110.25 140.26
  L 113.51 132.07
  Q 113.67 131.67 114.08 131.50
  C 115.44 130.92 117.45 130.55 118.36 130.22
  Q 126.10 127.37 131.81 121.31
  Q 132.16 120.95 132.66 121.02
  L 141.36 122.25
  Q 141.88 122.32 142.14 121.87
  L 144.77 117.31
  Q 145.06 116.80 144.70 116.34
  L 139.27 109.43
  Q 138.91 108.97 139.09 108.41
  Q 142.37 98.34 139.05 88.29
  Q 138.91 87.86 139.19 87.50
  L 144.63 80.67
  Q 145.06 80.13 144.72 79.53
  L 142.11 74.97
  Q 141.84 74.51 141.31 74.59
  L 132.64 75.87
  Q 132.13 75.95 131.77 75.57
  Q 124.56 67.90 114.29 65.46
  A 1.13 1.12 -3.4 0 1 113.50 64.77
  L 110.21 56.48
  Q 110.08 56.15 109.73 56.15
  L 104.18 56.13
  Q 103.69 56.13 103.50 56.59
  L 100.20 64.86
  Q 99.99 65.38 99.44 65.50
  Q 89.17 67.86 82.08 75.55
  Q 81.69 75.98 81.11 75.89
  L 72.41 74.57
  Q 71.86 74.49 71.59 74.97
  L 68.86 79.82
  A 0.51 0.50 -50.6 0 0 68.91 80.38
  L 74.40 87.32
  Q 74.78 87.80 74.60 88.38"
/>
<path stroke="#808080" vector-effect="non-scaling-stroke" d="
  M 109.57 73.13
  A 2.72 2.72 0.0 0 0 106.85 70.41
  A 2.72 2.72 0.0 0 0 104.13 73.13
  A 2.72 2.72 0.0 0 0 106.85 75.85
  A 2.72 2.72 0.0 0 0 109.57 73.13"
/>
<path stroke="#808080" vector-effect="non-scaling-stroke" d="
  M 97.00 76.51
  A 2.74 2.74 0.0 0 0 94.26 73.77
  A 2.74 2.74 0.0 0 0 91.52 76.51
  A 2.74 2.74 0.0 0 0 94.26 79.25
  A 2.74 2.74 0.0 0 0 97.00 76.51"
/>
<path stroke="#808080" vector-effect="non-scaling-stroke" d="
  M 122.24 76.51
  A 2.73 2.73 0.0 0 0 119.51 73.78
  A 2.73 2.73 0.0 0 0 116.78 76.51
  A 2.73 2.73 0.0 0 0 119.51 79.24
  A 2.73 2.73 0.0 0 0 122.24 76.51"
/>
<path stroke="#808080" vector-effect="non-scaling-stroke" d="
  M 123.63 98.44
  A 16.78 16.78 0.0 0 0 106.85 81.66
  A 16.78 16.78 0.0 0 0 90.07 98.44
  A 16.78 16.78 0.0 0 0 106.85 115.22
  A 16.78 16.78 0.0 0 0 123.63 98.44"
/>
<path stroke="#808080" vector-effect="non-scaling-stroke" d="
  M 87.67 85.76
  A 2.73 2.73 0.0 0 0 84.94 83.03
  A 2.73 2.73 0.0 0 0 82.21 85.76
  A 2.73 2.73 0.0 0 0 84.94 88.49
  A 2.73 2.73 0.0 0 0 87.67 85.76"
/>
<path stroke="#808080" vector-effect="non-scaling-stroke" d="
  M 131.51 85.76
  A 2.74 2.74 0.0 0 0 128.77 83.02
  A 2.74 2.74 0.0 0 0 126.03 85.76
  A 2.74 2.74 0.0 0 0 128.77 88.50
  A 2.74 2.74 0.0 0 0 131.51 85.76"
/>
<path stroke="#808080" vector-effect="non-scaling-stroke" d="
  M 84.26 98.45
  A 2.72 2.72 0.0 0 0 81.54 95.73
  A 2.72 2.72 0.0 0 0 78.82 98.45
  A 2.72 2.72 0.0 0 0 81.54 101.17
  A 2.72 2.72 0.0 0 0 84.26 98.45"
/>
<path stroke="#808080" vector-effect="non-scaling-stroke" d="
  M 134.94 98.44
  A 2.72 2.72 0.0 0 0 132.22 95.72
  A 2.72 2.72 0.0 0 0 129.50 98.44
  A 2.72 2.72 0.0 0 0 132.22 101.16
  A 2.72 2.72 0.0 0 0 134.94 98.44"
/>
<path stroke="#808080" vector-effect="non-scaling-stroke" d="
  M 87.67 111.11
  A 2.73 2.73 0.0 0 0 84.94 108.38
  A 2.73 2.73 0.0 0 0 82.21 111.11
  A 2.73 2.73 0.0 0 0 84.94 113.84
  A 2.73 2.73 0.0 0 0 87.67 111.11"
/>
<path stroke="#808080" vector-effect="non-scaling-stroke" d="
  M 131.52 111.11
  A 2.74 2.74 0.0 0 0 128.78 108.37
  A 2.74 2.74 0.0 0 0 126.04 111.11
  A 2.74 2.74 0.0 0 0 128.78 113.85
  A 2.74 2.74 0.0 0 0 131.52 111.11"
/>
<path stroke="#808080" vector-effect="non-scaling-stroke" d="
  M 96.97 120.36
  A 2.73 2.73 0.0 0 0 94.24 117.63
  A 2.73 2.73 0.0 0 0 91.51 120.36
  A 2.73 2.73 0.0 0 0 94.24 123.09
  A 2.73 2.73 0.0 0 0 96.97 120.36"
/>
<path stroke="#808080" vector-effect="non-scaling-stroke" d="
  M 122.24 120.39
  A 2.73 2.73 0.0 0 0 119.51 117.66
  A 2.73 2.73 0.0 0 0 116.78 120.39
  A 2.73 2.73 0.0 0 0 119.51 123.12
  A 2.73 2.73 0.0 0 0 122.24 120.39"
/>
<path stroke="#808080" vector-effect="non-scaling-stroke" d="
  M 109.57 123.74
  A 2.72 2.72 0.0 0 0 106.85 121.02
  A 2.72 2.72 0.0 0 0 104.13 123.74
  A 2.72 2.72 0.0 0 0 106.85 126.46
  A 2.72 2.72 0.0 0 0 109.57 123.74"
/>
<path stroke="#808080" vector-effect="non-scaling-stroke" d="
  M 118.18 98.44
  A 11.32 11.32 0.0 0 0 106.86 87.12
  A 11.32 11.32 0.0 0 0 95.54 98.44
  A 11.32 11.32 0.0 0 0 106.86 109.76
  A 11.32 11.32 0.0 0 0 118.18 98.44"
/>
</g>
<path fill="#ffffff" d="
  M 0.00 0.00
  L 225.00 0.00
  L 225.00 225.00
  L 0.00 225.00
  L 0.00 0.00
  Z
  M 143.92 188.31
  Q 150.96 188.15 158.01 188.33
  C 170.85 188.65 182.75 176.63 182.73 163.75
  Q 182.70 153.30 182.74 142.82
  Q 182.74 142.31 183.19 142.07
  Q 188.63 139.22 194.12 136.47
  Q 199.53 133.75 200.99 131.94
  Q 204.18 127.98 200.93 122.55
  Q 192.25 108.01 183.70 93.37
  Q 182.65 91.58 182.56 89.45
  C 181.10 55.75 157.02 30.99 125.35 24.37
  C 90.86 17.15 55.40 31.60 37.88 62.45
  C 27.99 79.86 25.39 100.98 31.37 120.21
  C 36.21 135.80 44.37 145.41 55.79 161.48
  Q 60.80 168.54 63.19 176.95
  C 65.54 185.18 64.87 195.56 64.77 204.71
  Q 64.76 205.21 65.26 205.21
  L 69.72 205.21
  Q 70.15 205.22 70.16 204.78
  C 70.36 195.16 71.02 184.16 68.41 175.30
  C 64.19 161.01 52.17 147.41 45.81 137.96
  C 23.29 104.53 33.42 60.85 66.97 39.63
  C 109.77 12.57 176.04 33.99 177.22 91.36
  C 177.26 93.29 177.68 94.06 178.62 95.64
  Q 187.62 110.86 196.40 125.77
  Q 197.93 128.37 195.25 129.74
  L 177.75 138.73
  A 0.83 0.82 -13.7 0 0 177.30 139.46
  Q 177.20 147.37 177.27 155.31
  Q 177.35 165.77 176.07 169.59
  Q 173.21 178.12 164.41 181.55
  Q 161.03 182.86 155.39 182.90
  Q 146.72 182.97 138.06 182.93
  C 134.58 182.92 133.75 187.22 137.46 188.35
  Q 137.93 188.49 137.93 188.98
  L 137.93 204.70
  Q 137.93 205.21 138.45 205.21
  L 142.78 205.22
  Q 143.27 205.22 143.27 204.72
  L 143.27 188.98
  Q 143.27 188.33 143.92 188.31
  Z
  M 118.42 135.75
  Q 126.88 133.00 133.53 127.07
  Q 133.95 126.70 134.50 126.78
  L 144.05 128.25
  Q 144.75 128.35 145.10 127.74
  L 151.44 116.75
  Q 151.70 116.30 151.37 115.88
  L 145.17 108.05
  Q 144.81 107.59 144.96 107.03
  Q 147.39 98.38 144.94 89.74
  A 0.99 0.99 0.0 0 1 145.12 88.85
  L 151.22 81.22
  A 1.17 1.16 -40.9 0 0 151.32 79.92
  L 145.03 69.00
  A 0.73 0.71 70.4 0 0 144.29 68.64
  L 134.38 70.10
  Q 133.86 70.18 133.47 69.82
  Q 126.88 63.74 118.33 61.05
  A 0.98 0.98 0.0 0 1 117.70 60.46
  L 114.03 51.27
  Q 113.83 50.75 113.27 50.75
  L 100.47 50.75
  Q 99.92 50.75 99.72 51.26
  L 96.03 60.50
  A 1.05 1.02 1.6 0 1 95.38 61.10
  Q 86.80 63.73 80.25 69.82
  Q 79.89 70.16 79.39 70.09
  L 69.57 68.64
  Q 69.00 68.55 68.71 69.05
  L 62.32 80.12
  Q 62.06 80.56 62.38 80.96
  L 68.63 88.88
  A 1.01 0.98 -57.6 0 1 68.81 89.74
  Q 66.45 98.42 68.80 107.10
  A 1.02 1.00 -33.3 0 1 68.61 107.99
  L 62.42 115.84
  Q 62.05 116.31 62.35 116.84
  L 68.72 127.84
  Q 69.02 128.35 69.61 128.26
  L 79.27 126.80
  Q 79.90 126.70 80.37 127.13
  Q 86.90 133.10 95.35 135.73
  A 1.04 1.03 88.1 0 1 95.99 136.33
  L 99.77 145.70
  A 0.75 0.74 -11.2 0 0 100.46 146.16
  L 113.33 146.14
  Q 113.83 146.14 114.01 145.67
  L 117.70 136.42
  Q 117.90 135.92 118.42 135.75
  Z
  M 109.55 174.38
  A 2.72 2.72 0.0 0 0 106.83 171.66
  A 2.72 2.72 0.0 0 0 104.11 174.38
  A 2.72 2.72 0.0 0 0 106.83 177.10
  A 2.72 2.72 0.0 0 0 109.55 174.38
  Z
  M 118.02 182.79
  A 2.71 2.71 0.0 0 0 115.31 180.08
  A 2.71 2.71 0.0 0 0 112.60 182.79
  A 2.71 2.71 0.0 0 0 115.31 185.50
  A 2.71 2.71 0.0 0 0 118.02 182.79
  Z
  M 129.26 185.59
  A 2.72 2.72 0.0 0 0 126.54 182.87
  A 2.72 2.72 0.0 0 0 123.82 185.59
  A 2.72 2.72 0.0 0 0 126.54 188.31
  A 2.72 2.72 0.0 0 0 129.26 185.59
  Z"
/>
<path fill="#000000" d="
  M 143.27 188.98
  L 143.27 204.72
  Q 143.27 205.22 142.78 205.22
  L 138.45 205.21
  Q 137.93 205.21 137.93 204.70
  L 137.93 188.98
  Q 137.93 188.49 137.46 188.35
  C 133.75 187.22 134.58 182.92 138.06 182.93
  Q 146.72 182.97 155.39 182.90
  Q 161.03 182.86 164.41 181.55
  Q 173.21 178.12 176.07 169.59
  Q 177.35 165.77 177.27 155.31
  Q 177.20 147.37 177.30 139.46
  A 0.83 0.82 -13.7 0 1 177.75 138.73
  L 195.25 129.74
  Q 197.93 128.37 196.40 125.77
  Q 187.62 110.86 178.62 95.64
  C 177.68 94.06 177.26 93.29 177.22 91.36
  C 176.04 33.99 109.77 12.57 66.97 39.63
  C 33.42 60.85 23.29 104.53 45.81 137.96
  C 52.17 147.41 64.19 161.01 68.41 175.30
  C 71.02 184.16 70.36 195.16 70.16 204.78
  Q 70.15 205.22 69.72 205.21
  L 65.26 205.21
  Q 64.76 205.21 64.77 204.71
  C 64.87 195.56 65.54 185.18 63.19 176.95
  Q 60.80 168.54 55.79 161.48
  C 44.37 145.41 36.21 135.80 31.37 120.21
  C 25.39 100.98 27.99 79.86 37.88 62.45
  C 55.40 31.60 90.86 17.15 125.35 24.37
  C 157.02 30.99 181.10 55.75 182.56 89.45
  Q 182.65 91.58 183.70 93.37
  Q 192.25 108.01 200.93 122.55
  Q 204.18 127.98 200.99 131.94
  Q 199.53 133.75 194.12 136.47
  Q 188.63 139.22 183.19 142.07
  Q 182.74 142.31 182.74 142.82
  Q 182.70 153.30 182.73 163.75
  C 182.75 176.63 170.85 188.65 158.01 188.33
  Q 150.96 188.15 143.92 188.31
  Q 143.27 188.33 143.27 188.98
  Z"
/>
<path fill="#000000" d="
  M 117.70 136.42
  L 114.01 145.67
  Q 113.83 146.14 113.33 146.14
  L 100.46 146.16
  A 0.75 0.74 -11.2 0 1 99.77 145.70
  L 95.99 136.33
  A 1.04 1.03 88.1 0 0 95.35 135.73
  Q 86.90 133.10 80.37 127.13
  Q 79.90 126.70 79.27 126.80
  L 69.61 128.26
  Q 69.02 128.35 68.72 127.84
  L 62.35 116.84
  Q 62.05 116.31 62.42 115.84
  L 68.61 107.99
  A 1.02 1.00 -33.3 0 0 68.80 107.10
  Q 66.45 98.42 68.81 89.74
  A 1.01 0.98 -57.6 0 0 68.63 88.88
  L 62.38 80.96
  Q 62.06 80.56 62.32 80.12
  L 68.71 69.05
  Q 69.00 68.55 69.57 68.64
  L 79.39 70.09
  Q 79.89 70.16 80.25 69.82
  Q 86.80 63.73 95.38 61.10
  A 1.05 1.02 1.6 0 0 96.03 60.50
  L 99.72 51.26
  Q 99.92 50.75 100.47 50.75
  L 113.27 50.75
  Q 113.83 50.75 114.03 51.27
  L 117.70 60.46
  A 0.98 0.98 0.0 0 0 118.33 61.05
  Q 126.88 63.74 133.47 69.82
  Q 133.86 70.18 134.38 70.10
  L 144.29 68.64
  A 0.73 0.71 70.4 0 1 145.03 69.00
  L 151.32 79.92
  A 1.17 1.16 -40.9 0 1 151.22 81.22
  L 145.12 88.85
  A 0.99 0.99 0.0 0 0 144.94 89.74
  Q 147.39 98.38 144.96 107.03
  Q 144.81 107.59 145.17 108.05
  L 151.37 115.88
  Q 151.70 116.30 151.44 116.75
  L 145.10 127.74
  Q 144.75 128.35 144.05 128.25
  L 134.50 126.78
  Q 133.95 126.70 133.53 127.07
  Q 126.88 133.00 118.42 135.75
  Q 117.90 135.92 117.70 136.42
  Z
  M 74.60 88.38
  Q 71.49 98.44 74.62 108.49
  Q 74.79 109.05 74.43 109.50
  L 68.98 116.40
  Q 68.69 116.77 68.92 117.18
  L 71.50 121.74
  Q 71.83 122.31 72.48 122.22
  L 81.11 121.02
  Q 81.66 120.94 82.04 121.35
  Q 89.13 129.06 99.41 131.33
  A 1.10 1.09 -4.1 0 1 100.18 131.99
  L 103.49 140.23
  Q 103.70 140.75 104.25 140.75
  L 109.50 140.76
  Q 110.04 140.76 110.25 140.26
  L 113.51 132.07
  Q 113.67 131.67 114.08 131.50
  C 115.44 130.92 117.45 130.55 118.36 130.22
  Q 126.10 127.37 131.81 121.31
  Q 132.16 120.95 132.66 121.02
  L 141.36 122.25
  Q 141.88 122.32 142.14 121.87
  L 144.77 117.31
  Q 145.06 116.80 144.70 116.34
  L 139.27 109.43
  Q 138.91 108.97 139.09 108.41
  Q 142.37 98.34 139.05 88.29
  Q 138.91 87.86 139.19 87.50
  L 144.63 80.67
  Q 145.06 80.13 144.72 79.53
  L 142.11 74.97
  Q 141.84 74.51 141.31 74.59
  L 132.64 75.87
  Q 132.13 75.95 131.77 75.57
  Q 124.56 67.90 114.29 65.46
  A 1.13 1.12 -3.4 0 1 113.50 64.77
  L 110.21 56.48
  Q 110.08 56.15 109.73 56.15
  L 104.18 56.13
  Q 103.69 56.13 103.50 56.59
  L 100.20 64.86
  Q 99.99 65.38 99.44 65.50
  Q 89.17 67.86 82.08 75.55
  Q 81.69 75.98 81.11 75.89
  L 72.41 74.57
  Q 71.86 74.49 71.59 74.97
  L 68.86 79.82
  A 0.51 0.50 -50.6 0 0 68.91 80.38
  L 74.40 87.32
  Q 74.78 87.80 74.60 88.38
  Z"
/>
<path fill="#ffffff" d="
  M 74.40 87.32
  L 68.91 80.38
  A 0.51 0.50 -50.6 0 1 68.86 79.82
  L 71.59 74.97
  Q 71.86 74.49 72.41 74.57
  L 81.11 75.89
  Q 81.69 75.98 82.08 75.55
  Q 89.17 67.86 99.44 65.50
  Q 99.99 65.38 100.20 64.86
  L 103.50 56.59
  Q 103.69 56.13 104.18 56.13
  L 109.73 56.15
  Q 110.08 56.15 110.21 56.48
  L 113.50 64.77
  A 1.13 1.12 -3.4 0 0 114.29 65.46
  Q 124.56 67.90 131.77 75.57
  Q 132.13 75.95 132.64 75.87
  L 141.31 74.59
  Q 141.84 74.51 142.11 74.97
  L 144.72 79.53
  Q 145.06 80.13 144.63 80.67
  L 139.19 87.50
  Q 138.91 87.86 139.05 88.29
  Q 142.37 98.34 139.09 108.41
  Q 138.91 108.97 139.27 109.43
  L 144.70 116.34
  Q 145.06 116.80 144.77 117.31
  L 142.14 121.87
  Q 141.88 122.32 141.36 122.25
  L 132.66 121.02
  Q 132.16 120.95 131.81 121.31
  Q 126.10 127.37 118.36 130.22
  C 117.45 130.55 115.44 130.92 114.08 131.50
  Q 113.67 131.67 113.51 132.07
  L 110.25 140.26
  Q 110.04 140.76 109.50 140.76
  L 104.25 140.75
  Q 103.70 140.75 103.49 140.23
  L 100.18 131.99
  A 1.10 1.09 -4.1 0 0 99.41 131.33
  Q 89.13 129.06 82.04 121.35
  Q 81.66 120.94 81.11 121.02
  L 72.48 122.22
  Q 71.83 122.31 71.50 121.74
  L 68.92 117.18
  Q 68.69 116.77 68.98 116.40
  L 74.43 109.50
  Q 74.79 109.05 74.62 108.49
  Q 71.49 98.44 74.60 88.38
  Q 74.78 87.80 74.40 87.32
  Z
  M 109.57 73.13
  A 2.72 2.72 0.0 0 0 106.85 70.41
  A 2.72 2.72 0.0 0 0 104.13 73.13
  A 2.72 2.72 0.0 0 0 106.85 75.85
  A 2.72 2.72 0.0 0 0 109.57 73.13
  Z
  M 97.00 76.51
  A 2.74 2.74 0.0 0 0 94.26 73.77
  A 2.74 2.74 0.0 0 0 91.52 76.51
  A 2.74 2.74 0.0 0 0 94.26 79.25
  A 2.74 2.74 0.0 0 0 97.00 76.51
  Z
  M 122.24 76.51
  A 2.73 2.73 0.0 0 0 119.51 73.78
  A 2.73 2.73 0.0 0 0 116.78 76.51
  A 2.73 2.73 0.0 0 0 119.51 79.24
  A 2.73 2.73 0.0 0 0 122.24 76.51
  Z
  M 123.63 98.44
  A 16.78 16.78 0.0 0 0 106.85 81.66
  A 16.78 16.78 0.0 0 0 90.07 98.44
  A 16.78 16.78 0.0 0 0 106.85 115.22
  A 16.78 16.78 0.0 0 0 123.63 98.44
  Z
  M 87.67 85.76
  A 2.73 2.73 0.0 0 0 84.94 83.03
  A 2.73 2.73 0.0 0 0 82.21 85.76
  A 2.73 2.73 0.0 0 0 84.94 88.49
  A 2.73 2.73 0.0 0 0 87.67 85.76
  Z
  M 131.51 85.76
  A 2.74 2.74 0.0 0 0 128.77 83.02
  A 2.74 2.74 0.0 0 0 126.03 85.76
  A 2.74 2.74 0.0 0 0 128.77 88.50
  A 2.74 2.74 0.0 0 0 131.51 85.76
  Z
  M 84.26 98.45
  A 2.72 2.72 0.0 0 0 81.54 95.73
  A 2.72 2.72 0.0 0 0 78.82 98.45
  A 2.72 2.72 0.0 0 0 81.54 101.17
  A 2.72 2.72 0.0 0 0 84.26 98.45
  Z
  M 134.94 98.44
  A 2.72 2.72 0.0 0 0 132.22 95.72
  A 2.72 2.72 0.0 0 0 129.50 98.44
  A 2.72 2.72 0.0 0 0 132.22 101.16
  A 2.72 2.72 0.0 0 0 134.94 98.44
  Z
  M 87.67 111.11
  A 2.73 2.73 0.0 0 0 84.94 108.38
  A 2.73 2.73 0.0 0 0 82.21 111.11
  A 2.73 2.73 0.0 0 0 84.94 113.84
  A 2.73 2.73 0.0 0 0 87.67 111.11
  Z
  M 131.52 111.11
  A 2.74 2.74 0.0 0 0 128.78 108.37
  A 2.74 2.74 0.0 0 0 126.04 111.11
  A 2.74 2.74 0.0 0 0 128.78 113.85
  A 2.74 2.74 0.0 0 0 131.52 111.11
  Z
  M 96.97 120.36
  A 2.73 2.73 0.0 0 0 94.24 117.63
  A 2.73 2.73 0.0 0 0 91.51 120.36
  A 2.73 2.73 0.0 0 0 94.24 123.09
  A 2.73 2.73 0.0 0 0 96.97 120.36
  Z
  M 122.24 120.39
  A 2.73 2.73 0.0 0 0 119.51 117.66
  A 2.73 2.73 0.0 0 0 116.78 120.39
  A 2.73 2.73 0.0 0 0 119.51 123.12
  A 2.73 2.73 0.0 0 0 122.24 120.39
  Z
  M 109.57 123.74
  A 2.72 2.72 0.0 0 0 106.85 121.02
  A 2.72 2.72 0.0 0 0 104.13 123.74
  A 2.72 2.72 0.0 0 0 106.85 126.46
  A 2.72 2.72 0.0 0 0 109.57 123.74
  Z"
/>
<circle fill="#000000" cx="106.85" cy="73.13" r="2.72"/>
<circle fill="#000000" cx="94.26" cy="76.51" r="2.74"/>
<circle fill="#000000" cx="119.51" cy="76.51" r="2.73"/>
<path fill="#000000" d="
  M 123.63 98.44
  A 16.78 16.78 0.0 0 1 106.85 115.22
  A 16.78 16.78 0.0 0 1 90.07 98.44
  A 16.78 16.78 0.0 0 1 106.85 81.66
  A 16.78 16.78 0.0 0 1 123.63 98.44
  Z
  M 118.18 98.44
  A 11.32 11.32 0.0 0 0 106.86 87.12
  A 11.32 11.32 0.0 0 0 95.54 98.44
  A 11.32 11.32 0.0 0 0 106.86 109.76
  A 11.32 11.32 0.0 0 0 118.18 98.44
  Z"
/>
<circle fill="#000000" cx="84.94" cy="85.76" r="2.73"/>
<circle fill="#000000" cx="128.77" cy="85.76" r="2.74"/>
<circle fill="#ffffff" cx="106.86" cy="98.44" r="11.32"/>
<circle fill="#000000" cx="81.54" cy="98.45" r="2.72"/>
<circle fill="#000000" cx="132.22" cy="98.44" r="2.72"/>
<circle fill="#000000" cx="84.94" cy="111.11" r="2.73"/>
<circle fill="#000000" cx="128.78" cy="111.11" r="2.74"/>
<circle fill="#000000" cx="94.24" cy="120.36" r="2.73"/>
<circle fill="#000000" cx="119.51" cy="120.39" r="2.73"/>
<circle fill="#000000" cx="106.85" cy="123.74" r="2.72"/>
<circle fill="#000000" cx="106.83" cy="174.38" r="2.72"/>
<circle fill="#000000" cx="115.31" cy="182.79" r="2.71"/>
<circle fill="#000000" cx="126.54" cy="185.59" r="2.72"/>
</svg>
