<?xml version="1.0" encoding="UTF-8" standalone="no"?>
<!DOCTYPE svg PUBLIC "-//W3C//DTD SVG 1.1//EN" "http://www.w3.org/Graphics/SVG/1.1/DTD/svg11.dtd">
<svg xmlns="http://www.w3.org/2000/svg" version="1.1" viewBox="0.00 0.00 211.00 97.00">
<g stroke-width="2.00" fill="none" stroke-linecap="butt">
<path stroke="#c8c7c7" vector-effect="non-scaling-stroke" d="
  M 79.41 55.18
  C 84.44 53.69 93.38 48.73 86.82 42.66
  Q 84.39 40.41 79.11 38.94
  A 0.58 0.58 0.0 0 1 78.70 38.23
  C 79.59 34.96 80.11 28.10 77.16 25.66
  C 73.77 22.86 67.29 27.14 64.66 30.02
  Q 64.30 30.41 63.89 30.06
  C 61.02 27.56 56.55 24.07 52.73 24.92
  C 47.66 26.04 48.55 34.46 49.47 38.17
  A 0.55 0.54 75.3 0 1 49.09 38.83
  C 44.32 40.21 34.21 45.38 41.85 51.65
  Q 44.96 54.22 49.03 55.28
  A 0.59 0.59 0.0 0 1 49.46 55.97
  C 48.75 59.57 47.58 66.95 51.98 68.97
  C 55.51 70.59 61.09 66.78 63.82 64.21
  Q 64.24 63.82 64.65 64.22
  C 74.39 73.71 81.60 69.28 78.94 55.95
  Q 78.82 55.35 79.41 55.18"
/>
<path stroke="#c8c7c7" vector-effect="non-scaling-stroke" d="
  M 100.22 48.89
  L 103.34 48.98
  Q 103.92 49.00 104.23 49.49
  Q 106.38 52.86 108.52 56.23
  Q 109.60 57.93 111.55 57.41
  Q 112.17 57.25 111.81 56.72
  L 106.84 49.41
  Q 106.59 49.04 107.01 48.89
  Q 113.50 46.58 111.55 40.32
  C 109.93 35.15 102.47 36.26 97.61 36.46
  Q 97.10 36.48 97.10 36.98
  L 97.12 56.67
  Q 97.12 57.39 97.84 57.42
  L 98.86 57.47
  A 0.59 0.59 0.0 0 0 99.47 56.89
  L 99.56 49.53
  Q 99.57 48.88 100.22 48.89"
/>
<path stroke="#c8c7c7" vector-effect="non-scaling-stroke" d="
  M 165.86 42.13
  L 163.36 42.52
  A 0.58 0.58 0.0 0 0 163.28 43.65
  L 165.64 44.39
  Q 166.05 44.52 166.05 44.95
  Q 166.03 49.48 166.07 54.00
  C 166.10 57.88 168.83 57.99 171.76 56.92
  A 0.66 0.66 0.0 0 0 171.44 55.64
  L 169.73 55.88
  A 1.47 1.46 -4.2 0 1 168.07 54.45
  L 167.99 44.66
  A 0.62 0.61 89.5 0 1 168.59 44.04
  L 170.78 44.00
  Q 171.29 43.99 171.32 43.48
  L 171.35 43.04
  Q 171.40 42.43 170.79 42.42
  L 168.50 42.36
  Q 167.90 42.35 167.95 41.75
  L 168.20 38.62
  A 0.58 0.58 0.0 0 0 167.60 38.00
  L 166.44 38.06
  A 0.53 0.52 -4.6 0 0 165.94 38.64
  L 166.25 41.62
  Q 166.30 42.06 165.86 42.13"
/>
<path stroke="#c8c7c7" vector-effect="non-scaling-stroke" d="
  M 116.55 50.53
  L 127.81 50.47
  A 1.50 1.49 -7.9 0 0 129.25 48.57
  C 127.63 42.94 123.79 40.18 118.14 42.74
  Q 112.89 45.12 114.18 51.71
  C 115.40 57.94 122.84 58.96 127.41 56.03
  Q 127.84 55.75 127.92 55.38
  Q 128.03 54.88 127.60 54.48
  Q 127.23 54.14 126.81 54.39
  Q 119.71 58.54 116.15 51.16
  A 0.44 0.44 0.0 0 1 116.55 50.53"
/>
<path stroke="#c8c7c7" vector-effect="non-scaling-stroke" d="
  M 142.08 49.21
  C 139.41 47.59 134.79 46.92 132.99 50.21
  C 129.76 56.09 136.90 59.15 141.51 56.54
  A 0.49 0.48 -48.6 0 1 141.92 56.51
  L 144.18 57.46
  Q 144.90 57.76 144.87 56.98
  C 144.78 53.73 145.47 46.60 144.03 44.12
  C 142.14 40.85 136.76 41.58 133.92 43.38
  Q 132.91 44.02 133.34 45.04
  A 0.79 0.79 0.0 0 0 134.62 45.30
  C 137.76 42.28 144.07 43.30 142.61 49.00
  Q 142.49 49.46 142.08 49.21"
/>
<path stroke="#c8c7c7" vector-effect="non-scaling-stroke" d="
  M 151.58 47.30
  Q 153.45 42.50 158.59 44.01
  A 1.83 1.83 0.0 0 1 159.45 44.56
  Q 159.84 45.02 160.43 45.27
  A 0.96 0.96 0.0 0 0 161.31 43.57
  Q 156.27 40.47 152.29 43.22
  C 145.10 48.18 150.43 60.66 159.85 56.92
  Q 161.30 56.35 161.63 55.22
  A 0.85 0.85 0.0 0 0 160.29 54.32
  C 154.74 58.73 149.37 52.94 151.58 47.30"
/>
<path stroke="#c8c7c7" vector-effect="non-scaling-stroke" d="
  M 51.75 27.57
  C 50.42 30.50 50.46 34.49 51.45 37.53
  Q 51.63 38.08 52.19 37.99
  L 57.83 37.12
  A 1.28 1.28 0.0 0 0 58.64 36.64
  L 62.31 31.99
  Q 62.62 31.60 62.25 31.25
  C 59.91 29.10 55.98 26.20 52.47 26.98
  A 1.06 1.04 5.0 0 0 51.75 27.57"
/>
<path stroke="#c8c7c7" vector-effect="non-scaling-stroke" d="
  M 71.44 27.42
  Q 68.17 29.10 65.99 31.24
  Q 65.60 31.62 65.94 32.05
  L 69.55 36.63
  Q 69.86 37.03 70.37 37.11
  L 75.99 38.03
  A 0.63 0.63 0.0 0 0 76.70 37.58
  C 77.61 34.33 78.86 23.60 71.44 27.42"
/>
<path stroke="#c8c7c7" vector-effect="non-scaling-stroke" d="
  M 61.52 36.28
  A 0.34 0.34 0.0 0 0 61.78 36.83
  L 66.46 36.91
  A 0.34 0.34 0.0 0 0 66.73 36.36
  L 64.44 33.35
  A 0.34 0.34 0.0 0 0 63.91 33.34
  L 61.52 36.28"
/>
<path stroke="#c8c7c7" vector-effect="non-scaling-stroke" d="
  M 71.36 50.80
  C 71.91 49.71 73.41 47.71 72.87 46.18
  Q 71.81 43.16 68.67 39.34
  Q 68.39 39.00 67.94 39.00
  L 59.88 38.95
  A 0.80 0.79 15.4 0 0 59.20 39.33
  L 54.99 46.46
  A 1.00 0.97 -45.2 0 0 54.98 47.43
  L 59.13 54.64
  A 1.10 1.09 -14.5 0 0 60.06 55.18
  L 68.02 55.20
  Q 68.48 55.20 68.76 54.84
  Q 70.29 52.91 71.36 50.80"
/>
<path stroke="#c8c7c7" vector-effect="non-scaling-stroke" d="
  M 53.22 43.69
  A 0.49 0.49 0.0 0 0 54.11 43.81
  L 56.35 40.17
  A 0.49 0.49 0.0 0 0 55.85 39.43
  L 52.68 39.98
  A 0.49 0.49 0.0 0 0 52.29 40.60
  L 53.22 43.69"
/>
<path stroke="#c8c7c7" vector-effect="non-scaling-stroke" d="
  M 72.15 39.43
  A 0.40 0.40 0.0 0 0 71.75 40.03
  L 74.07 43.91
  A 0.40 0.40 0.0 0 0 74.79 43.84
  L 76.01 40.48
  A 0.40 0.40 0.0 0 0 75.70 39.95
  L 72.15 39.43"
/>
<path stroke="#c8c7c7" vector-effect="non-scaling-stroke" d="
  M 52.45 46.70
  L 50.21 41.25
  Q 50.00 40.75 49.47 40.86
  C 46.44 41.49 41.01 43.75 40.95 47.41
  A 1.52 1.52 0.0 0 0 41.32 48.43
  Q 44.61 52.20 49.49 53.42
  A 0.65 0.65 0.0 0 0 50.25 53.03
  L 52.45 47.30
  A 0.81 0.81 0.0 0 0 52.45 46.70"
/>
<path stroke="#c8c7c7" vector-effect="non-scaling-stroke" d="
  M 75.88 47.35
  C 76.07 48.77 77.47 51.34 78.05 52.86
  Q 78.21 53.27 78.64 53.18
  Q 83.41 52.13 86.64 48.54
  A 2.32 2.32 0.0 0 0 86.57 45.35
  Q 83.26 42.02 78.70 40.85
  Q 78.20 40.73 78.00 41.21
  C 77.36 42.72 75.68 45.79 75.88 47.35"
/>
<path stroke="#c8c7c7" vector-effect="non-scaling-stroke" d="
  M 56.14 54.91
  A 0.34 0.34 0.0 0 0 56.51 54.41
  L 54.02 50.00
  A 0.34 0.34 0.0 0 0 53.41 50.06
  L 52.14 53.68
  A 0.34 0.34 0.0 0 0 52.39 54.12
  L 56.14 54.91"
/>
<path stroke="#c8c7c7" vector-effect="non-scaling-stroke" d="
  M 74.80 49.92
  A 0.34 0.34 0.0 0 0 74.18 49.87
  L 71.73 54.21
  A 0.34 0.34 0.0 0 0 72.09 54.71
  L 75.85 53.98
  A 0.34 0.34 0.0 0 0 76.11 53.53
  L 74.80 49.92"
/>
<path stroke="#c8c7c7" vector-effect="non-scaling-stroke" d="
  M 52.48 67.08
  C 56.06 67.92 59.92 65.12 62.27 62.87
  Q 62.67 62.49 62.32 62.07
  L 58.74 57.59
  Q 58.37 57.14 57.80 57.04
  L 52.19 56.12
  Q 51.68 56.04 51.51 56.53
  Q 49.80 61.55 51.73 66.43
  A 1.09 1.08 85.6 0 0 52.48 67.08"
/>
<path stroke="#c8c7c7" vector-effect="non-scaling-stroke" d="
  M 66.09 62.76
  C 67.83 64.55 74.04 69.47 76.36 66.28
  C 77.97 64.06 77.45 59.04 76.95 56.70
  A 0.67 0.66 80.1 0 0 76.22 56.18
  L 70.48 56.94
  A 1.51 1.47 -74.5 0 0 69.49 57.52
  L 66.05 62.08
  Q 65.78 62.44 66.09 62.76"
/>
<path stroke="#c8c7c7" vector-effect="non-scaling-stroke" d="
  M 66.78 57.83
  A 0.40 0.40 0.0 0 0 66.47 57.17
  L 61.79 57.21
  A 0.40 0.40 0.0 0 0 61.49 57.87
  L 63.86 60.56
  A 0.40 0.40 0.0 0 0 64.46 60.56
  L 66.78 57.83"
/>
<path stroke="#c8c7c7" vector-effect="non-scaling-stroke" d="
  M 99.52 39.14
  L 99.50 46.08
  A 0.67 0.67 0.0 0 0 100.17 46.75
  L 105.24 46.77
  A 4.20 3.94 0.2 0 0 109.45 42.85
  L 109.45 42.45
  A 4.20 3.94 0.2 0 0 105.26 38.49
  L 100.19 38.48
  A 0.67 0.67 0.0 0 0 99.52 39.14"
/>
<path stroke="#c8c7c7" vector-effect="non-scaling-stroke" d="
  M 68.57 47.01
  A 4.47 4.47 0.0 0 0 64.10 42.54
  A 4.47 4.47 0.0 0 0 59.63 47.01
  A 4.47 4.47 0.0 0 0 64.10 51.48
  A 4.47 4.47 0.0 0 0 68.57 47.01"
/>
<path stroke="#c8c7c7" vector-effect="non-scaling-stroke" d="
  M 116.49 48.85
  L 126.88 48.67
  A 0.14 0.14 0.0 0 0 127.02 48.53
  L 127.02 48.50
  A 5.22 4.91 -1.0 0 0 121.72 43.68
  L 121.48 43.68
  A 5.22 4.91 -1.0 0 0 116.34 48.68
  L 116.34 48.71
  A 0.14 0.14 0.0 0 0 116.49 48.85"
/>
<path stroke="#c8c7c7" vector-effect="non-scaling-stroke" d="
  M 142.9798 52.7880
  A 4.35 3.46 0.5 0 0 138.6602 49.2901
  A 4.35 3.46 0.5 0 0 134.2802 52.7120
  A 4.35 3.46 0.5 0 0 138.5998 56.2099
  A 4.35 3.46 0.5 0 0 142.9798 52.7880"
/>
</g>
<path fill="#ffffff" d="
  M 0.00 0.00
  L 211.00 0.00
  L 211.00 97.00
  L 0.00 97.00
  L 0.00 0.00
  Z
  M 79.41 55.18
  C 84.44 53.69 93.38 48.73 86.82 42.66
  Q 84.39 40.41 79.11 38.94
  A 0.58 0.58 0.0 0 1 78.70 38.23
  C 79.59 34.96 80.11 28.10 77.16 25.66
  C 73.77 22.86 67.29 27.14 64.66 30.02
  Q 64.30 30.41 63.89 30.06
  C 61.02 27.56 56.55 24.07 52.73 24.92
  C 47.66 26.04 48.55 34.46 49.47 38.17
  A 0.55 0.54 75.3 0 1 49.09 38.83
  C 44.32 40.21 34.21 45.38 41.85 51.65
  Q 44.96 54.22 49.03 55.28
  A 0.59 0.59 0.0 0 1 49.46 55.97
  C 48.75 59.57 47.58 66.95 51.98 68.97
  C 55.51 70.59 61.09 66.78 63.82 64.21
  Q 64.24 63.82 64.65 64.22
  C 74.39 73.71 81.60 69.28 78.94 55.95
  Q 78.82 55.35 79.41 55.18
  Z
  M 100.22 48.89
  L 103.34 48.98
  Q 103.92 49.00 104.23 49.49
  Q 106.38 52.86 108.52 56.23
  Q 109.60 57.93 111.55 57.41
  Q 112.17 57.25 111.81 56.72
  L 106.84 49.41
  Q 106.59 49.04 107.01 48.89
  Q 113.50 46.58 111.55 40.32
  C 109.93 35.15 102.47 36.26 97.61 36.46
  Q 97.10 36.48 97.10 36.98
  L 97.12 56.67
  Q 97.12 57.39 97.84 57.42
  L 98.86 57.47
  A 0.59 0.59 0.0 0 0 99.47 56.89
  L 99.56 49.53
  Q 99.57 48.88 100.22 48.89
  Z
  M 165.86 42.13
  L 163.36 42.52
  A 0.58 0.58 0.0 0 0 163.28 43.65
  L 165.64 44.39
  Q 166.05 44.52 166.05 44.95
  Q 166.03 49.48 166.07 54.00
  C 166.10 57.88 168.83 57.99 171.76 56.92
  A 0.66 0.66 0.0 0 0 171.44 55.64
  L 169.73 55.88
  A 1.47 1.46 -4.2 0 1 168.07 54.45
  L 167.99 44.66
  A 0.62 0.61 89.5 0 1 168.59 44.04
  L 170.78 44.00
  Q 171.29 43.99 171.32 43.48
  L 171.35 43.04
  Q 171.40 42.43 170.79 42.42
  L 168.50 42.36
  Q 167.90 42.35 167.95 41.75
  L 168.20 38.62
  A 0.58 0.58 0.0 0 0 167.60 38.00
  L 166.44 38.06
  A 0.53 0.52 -4.6 0 0 165.94 38.64
  L 166.25 41.62
  Q 166.30 42.06 165.86 42.13
  Z
  M 116.55 50.53
  L 127.81 50.47
  A 1.50 1.49 -7.9 0 0 129.25 48.57
  C 127.63 42.94 123.79 40.18 118.14 42.74
  Q 112.89 45.12 114.18 51.71
  C 115.40 57.94 122.84 58.96 127.41 56.03
  Q 127.84 55.75 127.92 55.38
  Q 128.03 54.88 127.60 54.48
  Q 127.23 54.14 126.81 54.39
  Q 119.71 58.54 116.15 51.16
  A 0.44 0.44 0.0 0 1 116.55 50.53
  Z
  M 142.08 49.21
  C 139.41 47.59 134.79 46.92 132.99 50.21
  C 129.76 56.09 136.90 59.15 141.51 56.54
  A 0.49 0.48 -48.6 0 1 141.92 56.51
  L 144.18 57.46
  Q 144.90 57.76 144.87 56.98
  C 144.78 53.73 145.47 46.60 144.03 44.12
  C 142.14 40.85 136.76 41.58 133.92 43.38
  Q 132.91 44.02 133.34 45.04
  A 0.79 0.79 0.0 0 0 134.62 45.30
  C 137.76 42.28 144.07 43.30 142.61 49.00
  Q 142.49 49.46 142.08 49.21
  Z
  M 151.58 47.30
  Q 153.45 42.50 158.59 44.01
  A 1.83 1.83 0.0 0 1 159.45 44.56
  Q 159.84 45.02 160.43 45.27
  A 0.96 0.96 0.0 0 0 161.31 43.57
  Q 156.27 40.47 152.29 43.22
  C 145.10 48.18 150.43 60.66 159.85 56.92
  Q 161.30 56.35 161.63 55.22
  A 0.85 0.85 0.0 0 0 160.29 54.32
  C 154.74 58.73 149.37 52.94 151.58 47.30
  Z"
/>
<path fill="#908f8e" d="
  M 78.94 55.95
  C 81.60 69.28 74.39 73.71 64.65 64.22
  Q 64.24 63.82 63.82 64.21
  C 61.09 66.78 55.51 70.59 51.98 68.97
  C 47.58 66.95 48.75 59.57 49.46 55.97
  A 0.59 0.59 0.0 0 0 49.03 55.28
  Q 44.96 54.22 41.85 51.65
  C 34.21 45.38 44.32 40.21 49.09 38.83
  A 0.55 0.54 75.3 0 0 49.47 38.17
  C 48.55 34.46 47.66 26.04 52.73 24.92
  C 56.55 24.07 61.02 27.56 63.89 30.06
  Q 64.30 30.41 64.66 30.02
  C 67.29 27.14 73.77 22.86 77.16 25.66
  C 80.11 28.10 79.59 34.96 78.70 38.23
  A 0.58 0.58 0.0 0 0 79.11 38.94
  Q 84.39 40.41 86.82 42.66
  C 93.38 48.73 84.44 53.69 79.41 55.18
  Q 78.82 55.35 78.94 55.95
  Z
  M 51.75 27.57
  C 50.42 30.50 50.46 34.49 51.45 37.53
  Q 51.63 38.08 52.19 37.99
  L 57.83 37.12
  A 1.28 1.28 0.0 0 0 58.64 36.64
  L 62.31 31.99
  Q 62.62 31.60 62.25 31.25
  C 59.91 29.10 55.98 26.20 52.47 26.98
  A 1.06 1.04 5.0 0 0 51.75 27.57
  Z
  M 71.44 27.42
  Q 68.17 29.10 65.99 31.24
  Q 65.60 31.62 65.94 32.05
  L 69.55 36.63
  Q 69.86 37.03 70.37 37.11
  L 75.99 38.03
  A 0.63 0.63 0.0 0 0 76.70 37.58
  C 77.61 34.33 78.86 23.60 71.44 27.42
  Z
  M 61.52 36.28
  A 0.34 0.34 0.0 0 0 61.78 36.83
  L 66.46 36.91
  A 0.34 0.34 0.0 0 0 66.73 36.36
  L 64.44 33.35
  A 0.34 0.34 0.0 0 0 63.91 33.34
  L 61.52 36.28
  Z
  M 71.36 50.80
  C 71.91 49.71 73.41 47.71 72.87 46.18
  Q 71.81 43.16 68.67 39.34
  Q 68.39 39.00 67.94 39.00
  L 59.88 38.95
  A 0.80 0.79 15.4 0 0 59.20 39.33
  L 54.99 46.46
  A 1.00 0.97 -45.2 0 0 54.98 47.43
  L 59.13 54.64
  A 1.10 1.09 -14.5 0 0 60.06 55.18
  L 68.02 55.20
  Q 68.48 55.20 68.76 54.84
  Q 70.29 52.91 71.36 50.80
  Z
  M 53.22 43.69
  A 0.49 0.49 0.0 0 0 54.11 43.81
  L 56.35 40.17
  A 0.49 0.49 0.0 0 0 55.85 39.43
  L 52.68 39.98
  A 0.49 0.49 0.0 0 0 52.29 40.60
  L 53.22 43.69
  Z
  M 72.15 39.43
  A 0.40 0.40 0.0 0 0 71.75 40.03
  L 74.07 43.91
  A 0.40 0.40 0.0 0 0 74.79 43.84
  L 76.01 40.48
  A 0.40 0.40 0.0 0 0 75.70 39.95
  L 72.15 39.43
  Z
  M 52.45 46.70
  L 50.21 41.25
  Q 50.00 40.75 49.47 40.86
  C 46.44 41.49 41.01 43.75 40.95 47.41
  A 1.52 1.52 0.0 0 0 41.32 48.43
  Q 44.61 52.20 49.49 53.42
  A 0.65 0.65 0.0 0 0 50.25 53.03
  L 52.45 47.30
  A 0.81 0.81 0.0 0 0 52.45 46.70
  Z
  M 75.88 47.35
  C 76.07 48.77 77.47 51.34 78.05 52.86
  Q 78.21 53.27 78.64 53.18
  Q 83.41 52.13 86.64 48.54
  A 2.32 2.32 0.0 0 0 86.57 45.35
  Q 83.26 42.02 78.70 40.85
  Q 78.20 40.73 78.00 41.21
  C 77.36 42.72 75.68 45.79 75.88 47.35
  Z
  M 56.14 54.91
  A 0.34 0.34 0.0 0 0 56.51 54.41
  L 54.02 50.00
  A 0.34 0.34 0.0 0 0 53.41 50.06
  L 52.14 53.68
  A 0.34 0.34 0.0 0 0 52.39 54.12
  L 56.14 54.91
  Z
  M 74.80 49.92
  A 0.34 0.34 0.0 0 0 74.18 49.87
  L 71.73 54.21
  A 0.34 0.34 0.0 0 0 72.09 54.71
  L 75.85 53.98
  A 0.34 0.34 0.0 0 0 76.11 53.53
  L 74.80 49.92
  Z
  M 52.48 67.08
  C 56.06 67.92 59.92 65.12 62.27 62.87
  Q 62.67 62.49 62.32 62.07
  L 58.74 57.59
  Q 58.37 57.14 57.80 57.04
  L 52.19 56.12
  Q 51.68 56.04 51.51 56.53
  Q 49.80 61.55 51.73 66.43
  A 1.09 1.08 85.6 0 0 52.48 67.08
  Z
  M 66.09 62.76
  C 67.83 64.55 74.04 69.47 76.36 66.28
  C 77.97 64.06 77.45 59.04 76.95 56.70
  A 0.67 0.66 80.1 0 0 76.22 56.18
  L 70.48 56.94
  A 1.51 1.47 -74.5 0 0 69.49 57.52
  L 66.05 62.08
  Q 65.78 62.44 66.09 62.76
  Z
  M 66.78 57.83
  A 0.40 0.40 0.0 0 0 66.47 57.17
  L 61.79 57.21
  A 0.40 0.40 0.0 0 0 61.49 57.87
  L 63.86 60.56
  A 0.40 0.40 0.0 0 0 64.46 60.56
  L 66.78 57.83
  Z"
/>
<path fill="#ffffff" d="
  M 51.45 37.53
  C 50.46 34.49 50.42 30.50 51.75 27.57
  A 1.06 1.04 5.0 0 1 52.47 26.98
  C 55.98 26.20 59.91 29.10 62.25 31.25
  Q 62.62 31.60 62.31 31.99
  L 58.64 36.64
  A 1.28 1.28 0.0 0 1 57.83 37.12
  L 52.19 37.99
  Q 51.63 38.08 51.45 37.53
  Z"
/>
<path fill="#ffffff" d="
  M 71.44 27.42
  C 78.86 23.60 77.61 34.33 76.70 37.58
  A 0.63 0.63 0.0 0 1 75.99 38.03
  L 70.37 37.11
  Q 69.86 37.03 69.55 36.63
  L 65.94 32.05
  Q 65.60 31.62 65.99 31.24
  Q 68.17 29.10 71.44 27.42
  Z"
/>
<path fill="#ffffff" d="
  M 61.52 36.28
  L 63.91 33.34
  A 0.34 0.34 0.0 0 1 64.44 33.35
  L 66.73 36.36
  A 0.34 0.34 0.0 0 1 66.46 36.91
  L 61.78 36.83
  A 0.34 0.34 0.0 0 1 61.52 36.28
  Z"
/>
<path fill="#908f8e" d="
  M 99.56 49.53
  L 99.47 56.89
  A 0.59 0.59 0.0 0 1 98.86 57.47
  L 97.84 57.42
  Q 97.12 57.39 97.12 56.67
  L 97.10 36.98
  Q 97.10 36.48 97.61 36.46
  C 102.47 36.26 109.93 35.15 111.55 40.32
  Q 113.50 46.58 107.01 48.89
  Q 106.59 49.04 106.84 49.41
  L 111.81 56.72
  Q 112.17 57.25 111.55 57.41
  Q 109.60 57.93 108.52 56.23
  Q 106.38 52.86 104.23 49.49
  Q 103.92 49.00 103.34 48.98
  L 100.22 48.89
  Q 99.57 48.88 99.56 49.53
  Z
  M 99.52 39.14
  L 99.50 46.08
  A 0.67 0.67 0.0 0 0 100.17 46.75
  L 105.24 46.77
  A 4.20 3.94 0.2 0 0 109.45 42.85
  L 109.45 42.45
  A 4.20 3.94 0.2 0 0 105.26 38.49
  L 100.19 38.48
  A 0.67 0.67 0.0 0 0 99.52 39.14
  Z"
/>
<path fill="#908f8e" d="
  M 166.25 41.62
  L 165.94 38.64
  A 0.53 0.52 -4.6 0 1 166.44 38.06
  L 167.60 38.00
  A 0.58 0.58 0.0 0 1 168.20 38.62
  L 167.95 41.75
  Q 167.90 42.35 168.50 42.36
  L 170.79 42.42
  Q 171.40 42.43 171.35 43.04
  L 171.32 43.48
  Q 171.29 43.99 170.78 44.00
  L 168.59 44.04
  A 0.62 0.61 89.5 0 0 167.99 44.66
  L 168.07 54.45
  A 1.47 1.46 -4.2 0 0 169.73 55.88
  L 171.44 55.64
  A 0.66 0.66 0.0 0 1 171.76 56.92
  C 168.83 57.99 166.10 57.88 166.07 54.00
  Q 166.03 49.48 166.05 44.95
  Q 166.05 44.52 165.64 44.39
  L 163.28 43.65
  A 0.58 0.58 0.0 0 1 163.36 42.52
  L 165.86 42.13
  Q 166.30 42.06 166.25 41.62
  Z"
/>
<path fill="#ffffff" d="
  M 99.52 39.14
  A 0.67 0.67 0.0 0 1 100.19 38.48
  L 105.26 38.49
  A 4.20 3.94 0.2 0 1 109.45 42.45
  L 109.45 42.85
  A 4.20 3.94 0.2 0 1 105.24 46.77
  L 100.17 46.75
  A 0.67 0.67 0.0 0 1 99.50 46.08
  L 99.52 39.14
  Z"
/>
<path fill="#ffffff" d="
  M 71.36 50.80
  Q 70.29 52.91 68.76 54.84
  Q 68.48 55.20 68.02 55.20
  L 60.06 55.18
  A 1.10 1.09 -14.5 0 1 59.13 54.64
  L 54.98 47.43
  A 1.00 0.97 -45.2 0 1 54.99 46.46
  L 59.20 39.33
  A 0.80 0.79 15.4 0 1 59.88 38.95
  L 67.94 39.00
  Q 68.39 39.00 68.67 39.34
  Q 71.81 43.16 72.87 46.18
  C 73.41 47.71 71.91 49.71 71.36 50.80
  Z
  M 68.57 47.01
  A 4.47 4.47 0.0 0 0 64.10 42.54
  A 4.47 4.47 0.0 0 0 59.63 47.01
  A 4.47 4.47 0.0 0 0 64.10 51.48
  A 4.47 4.47 0.0 0 0 68.57 47.01
  Z"
/>
<path fill="#ffffff" d="
  M 53.22 43.69
  L 52.29 40.60
  A 0.49 0.49 0.0 0 1 52.68 39.98
  L 55.85 39.43
  A 0.49 0.49 0.0 0 1 56.35 40.17
  L 54.11 43.81
  A 0.49 0.49 0.0 0 1 53.22 43.69
  Z"
/>
<path fill="#ffffff" d="
  M 72.15 39.43
  L 75.70 39.95
  A 0.40 0.40 0.0 0 1 76.01 40.48
  L 74.79 43.84
  A 0.40 0.40 0.0 0 1 74.07 43.91
  L 71.75 40.03
  A 0.40 0.40 0.0 0 1 72.15 39.43
  Z"
/>
<path fill="#ffffff" d="
  M 50.21 41.25
  L 52.45 46.70
  A 0.81 0.81 0.0 0 1 52.45 47.30
  L 50.25 53.03
  A 0.65 0.65 0.0 0 1 49.49 53.42
  Q 44.61 52.20 41.32 48.43
  A 1.52 1.52 0.0 0 1 40.95 47.41
  C 41.01 43.75 46.44 41.49 49.47 40.86
  Q 50.00 40.75 50.21 41.25
  Z"
/>
<path fill="#ffffff" d="
  M 78.05 52.86
  C 77.47 51.34 76.07 48.77 75.88 47.35
  C 75.68 45.79 77.36 42.72 78.00 41.21
  Q 78.20 40.73 78.70 40.85
  Q 83.26 42.02 86.57 45.35
  A 2.32 2.32 0.0 0 1 86.64 48.54
  Q 83.41 52.13 78.64 53.18
  Q 78.21 53.27 78.05 52.86
  Z"
/>
<path fill="#908f8e" d="
  M 116.15 51.16
  Q 119.71 58.54 126.81 54.39
  Q 127.23 54.14 127.60 54.48
  Q 128.03 54.88 127.92 55.38
  Q 127.84 55.75 127.41 56.03
  C 122.84 58.96 115.40 57.94 114.18 51.71
  Q 112.89 45.12 118.14 42.74
  C 123.79 40.18 127.63 42.94 129.25 48.57
  A 1.50 1.49 -7.9 0 1 127.81 50.47
  L 116.55 50.53
  A 0.44 0.44 0.0 0 0 116.15 51.16
  Z
  M 116.49 48.85
  L 126.88 48.67
  A 0.14 0.14 0.0 0 0 127.02 48.53
  L 127.02 48.50
  A 5.22 4.91 -1.0 0 0 121.72 43.68
  L 121.48 43.68
  A 5.22 4.91 -1.0 0 0 116.34 48.68
  L 116.34 48.71
  A 0.14 0.14 0.0 0 0 116.49 48.85
  Z"
/>
<path fill="#908f8e" d="
  M 142.61 49.00
  C 144.07 43.30 137.76 42.28 134.62 45.30
  A 0.79 0.79 0.0 0 1 133.34 45.04
  Q 132.91 44.02 133.92 43.38
  C 136.76 41.58 142.14 40.85 144.03 44.12
  C 145.47 46.60 144.78 53.73 144.87 56.98
  Q 144.90 57.76 144.18 57.46
  L 141.92 56.51
  A 0.49 0.48 -48.6 0 0 141.51 56.54
  C 136.90 59.15 129.76 56.09 132.99 50.21
  C 134.79 46.92 139.41 47.59 142.08 49.21
  Q 142.49 49.46 142.61 49.00
  Z
  M 142.9798 52.7880
  A 4.35 3.46 0.5 0 0 138.6602 49.2901
  A 4.35 3.46 0.5 0 0 134.2802 52.7120
  A 4.35 3.46 0.5 0 0 138.5998 56.2099
  A 4.35 3.46 0.5 0 0 142.9798 52.7880
  Z"
/>
<path fill="#908f8e" d="
  M 151.58 47.30
  C 149.37 52.94 154.74 58.73 160.29 54.32
  A 0.85 0.85 0.0 0 1 161.63 55.22
  Q 161.30 56.35 159.85 56.92
  C 150.43 60.66 145.10 48.18 152.29 43.22
  Q 156.27 40.47 161.31 43.57
  A 0.96 0.96 0.0 0 1 160.43 45.27
  Q 159.84 45.02 159.45 44.56
  A 1.83 1.83 0.0 0 0 158.59 44.01
  Q 153.45 42.50 151.58 47.30
  Z"
/>
<circle fill="#908f8e" cx="64.10" cy="47.01" r="4.47"/>
<path fill="#ffffff" d="
  M 116.49 48.85
  A 0.14 0.14 0.0 0 1 116.34 48.71
  L 116.34 48.68
  A 5.22 4.91 -1.0 0 1 121.48 43.68
  L 121.72 43.68
  A 5.22 4.91 -1.0 0 1 127.02 48.50
  L 127.02 48.53
  A 0.14 0.14 0.0 0 1 126.88 48.67
  L 116.49 48.85
  Z"
/>
<ellipse fill="#ffffff" cx="0.00" cy="0.00" transform="translate(138.63,52.75) rotate(0.5)" rx="4.35" ry="3.46"/>
<path fill="#ffffff" d="
  M 56.14 54.91
  L 52.39 54.12
  A 0.34 0.34 0.0 0 1 52.14 53.68
  L 53.41 50.06
  A 0.34 0.34 0.0 0 1 54.02 50.00
  L 56.51 54.41
  A 0.34 0.34 0.0 0 1 56.14 54.91
  Z"
/>
<path fill="#ffffff" d="
  M 74.80 49.92
  L 76.11 53.53
  A 0.34 0.34 0.0 0 1 75.85 53.98
  L 72.09 54.71
  A 0.34 0.34 0.0 0 1 71.73 54.21
  L 74.18 49.87
  A 0.34 0.34 0.0 0 1 74.80 49.92
  Z"
/>
<path fill="#ffffff" d="
  M 62.27 62.87
  C 59.92 65.12 56.06 67.92 52.48 67.08
  A 1.09 1.08 85.6 0 1 51.73 66.43
  Q 49.80 61.55 51.51 56.53
  Q 51.68 56.04 52.19 56.12
  L 57.80 57.04
  Q 58.37 57.14 58.74 57.59
  L 62.32 62.07
  Q 62.67 62.49 62.27 62.87
  Z"
/>
<path fill="#ffffff" d="
  M 76.36 66.28
  C 74.04 69.47 67.83 64.55 66.09 62.76
  Q 65.78 62.44 66.05 62.08
  L 69.49 57.52
  A 1.51 1.47 -74.5 0 1 70.48 56.94
  L 76.22 56.18
  A 0.67 0.66 80.1 0 1 76.95 56.70
  C 77.45 59.04 77.97 64.06 76.36 66.28
  Z"
/>
<path fill="#ffffff" d="
  M 66.78 57.83
  L 64.46 60.56
  A 0.40 0.40 0.0 0 1 63.86 60.56
  L 61.49 57.87
  A 0.40 0.40 0.0 0 1 61.79 57.21
  L 66.47 57.17
  A 0.40 0.40 0.0 0 1 66.78 57.83
  Z"
/>
</svg>
