<svg width="70" height="58" viewBox="0 0 70 58" fill="none" xmlns="http://www.w3.org/2000/svg">
<path d="M0 46.1063V15.7928L7.99562 11.0938V46.1063H0Z" fill="#508DFF"/>
<path fill-rule="evenodd" clip-rule="evenodd" d="M19.8752 22.2073H26.8791V14.4198H19.8752V4.13769L11.8796 8.79887V14.4721L11.8873 14.6647C11.8853 18.1581 11.8796 22.2073 11.8796 22.2073V35.2701C11.8796 39.5825 12.9953 42.5761 15.2266 44.2508C17.4992 45.9255 21.3834 46.4489 26.8791 45.8209V38.473C25.3502 38.5568 24.0693 38.5777 23.0363 38.5358C22.0032 38.4521 21.2181 38.159 20.681 37.6566C20.1438 37.1542 19.8752 36.3587 19.8752 35.2701V22.2073Z" fill="#508DFF"/>
<path d="M1.15954 6.94715C1.96617 7.73041 2.90724 8.12204 3.98275 8.12204C5.09187 8.12204 6.03295 7.73041 6.80597 6.94715C7.6126 6.12984 8.01592 5.17631 8.01592 4.08656C8.01592 2.99681 7.6126 2.04328 6.80597 1.22597C6.03295 0.408656 5.09187 0 3.98275 0C2.90724 0 1.96617 0.408656 1.15954 1.22597C0.386512 2.04328 0 2.99681 0 4.08656C0 5.17631 0.386512 6.12984 1.15954 6.94715Z" fill="#508DFF"/>
<path d="M38.5567 58H30.5434V13.7623H38.5567V58Z" fill="#508DFF"/>
<path fill-rule="evenodd" clip-rule="evenodd" d="M46.4447 46.0037C55.2268 46.0037 62.346 38.7902 62.346 29.8919C62.346 20.9936 55.2268 13.78 46.4447 13.78C37.6626 13.78 30.5434 20.9936 30.5434 29.8919C30.5434 38.7902 37.6626 46.0037 46.4447 46.0037ZM46.4447 37.9478C50.8357 37.9478 54.3954 34.341 54.3954 29.8919C54.3954 25.4427 50.8357 21.836 46.4447 21.836C42.0537 21.836 38.494 25.4427 38.494 29.8919C38.494 34.341 42.0537 37.9478 46.4447 37.9478Z" fill="#508DFF"/>
</svg>
