<svg width="100" height="100" viewBox="30 0 1 60" fill="#508DFF" xmlns="http://www.w3.org/2000/svg"><path d="M0 46.106V15.793l7.996-4.7v35.013H0z"/><path fill-rule="evenodd" clip-rule="evenodd" d="M19.875 22.207h7.004V14.42h-7.004V4.138l-7.995 4.66v5.674l.007.193c-.002 3.493-.007 7.542-.007 7.542V35.27c0 4.313 1.115 7.306 3.347 8.98 2.272 1.675 6.156 2.199 11.652 1.57v-7.347c-1.529.084-2.81.105-3.843.063-1.033-.084-1.818-.377-2.355-.88-.537-.502-.806-1.297-.806-2.386V22.207z"/><path d="M1.16 6.947c.806.783 1.747 1.175 2.823 1.175 1.109 0 2.05-.392 2.823-1.175.807-.817 1.21-1.77 1.21-2.86 0-1.09-.403-2.044-1.21-2.861C6.033.409 5.092 0 3.983 0 2.907 0 1.966.409 1.16 1.226.387 2.043 0 2.996 0 4.086c0 1.09.387 2.044 1.16 2.861zM38.557 58h-8.014V13.762h8.014V58z"/><path fill-rule="evenodd" clip-rule="evenodd" d="M46.445 46.004c8.782 0 15.901-7.214 15.901-16.112 0-8.898-7.12-16.112-15.901-16.112-8.782 0-15.902 7.214-15.902 16.112 0 8.898 7.12 16.112 15.902 16.112zm0-8.056c4.39 0 7.95-3.607 7.95-8.056 0-4.45-3.56-8.056-7.95-8.056-4.391 0-7.951 3.607-7.951 8.056 0 4.449 3.56 8.056 7.95 8.056z"/></svg>