<?xml version="1.0" encoding="UTF-8" standalone="no"?>
<!DOCTYPE svg PUBLIC "-//W3C//DTD SVG 1.1//EN" "http://www.w3.org/Graphics/SVG/1.1/DTD/svg11.dtd">
<svg xmlns="http://www.w3.org/2000/svg" version="1.1" viewBox="0.00 0.00 225.00 225.00">
<g stroke-width="2.00" fill="none" stroke-linecap="butt">
<path stroke="#808080" vector-effect="non-scaling-stroke" d="
  M 83.64 51.23
  A 2.51 2.51 0.0 0 0 83.59 47.65
  L 63.71 28.75
  A 2.51 2.51 0.0 0 0 60.19 28.82
  L 9.56 80.46
  A 2.51 2.51 0.0 0 0 9.59 84.00
  L 28.85 103.15
  A 2.51 2.51 0.0 0 0 32.41 103.14
  L 83.64 51.23"
/>
<path stroke="#808080" vector-effect="non-scaling-stroke" d="
  M 163.8662 28.9130
  A 2.54 2.54 0.0 0 0 160.2741 28.9068
  L 140.8797 48.2335
  A 2.54 2.54 0.0 0 0 140.8735 51.8256
  L 192.6138 103.7470
  A 2.54 2.54 0.0 0 0 196.2059 103.7532
  L 215.6003 84.4265
  A 2.54 2.54 0.0 0 0 215.6065 80.8344
  L 163.8662 28.9130"
/>
<path stroke="#808080" vector-effect="non-scaling-stroke" d="
  M 81.50 65.64
  C 90.87 66.70 97.51 69.36 104.24 75.38
  A 2.37 2.37 0.0 0 0 107.21 75.54
  C 108.81 74.38 108.86 72.61 107.37 71.25
  Q 96.97 61.77 82.76 60.47
  C 78.52 60.08 78.21 65.27 81.50 65.64"
/>
<path stroke="#808080" vector-effect="non-scaling-stroke" d="
  M 86.25 108.91
  Q 99.89 94.47 113.98 80.48
  C 121.77 72.75 130.38 65.80 141.76 65.58
  C 146.56 65.48 145.67 60.59 142.74 60.44
  C 130.99 59.83 121.13 66.46 112.95 74.44
  Q 96.68 90.31 81.06 106.81
  Q 79.95 107.99 79.03 109.42
  A 0.98 0.97 44.7 0 0 79.04 110.48
  C 83.24 116.88 99.24 121.46 104.75 115.47
  Q 109.69 110.09 115.38 105.15
  A 0.64 0.63 43.8 0 1 116.20 105.14
  C 125.43 112.59 135.27 109.22 143.11 101.87
  C 145.46 99.67 142.67 95.37 139.58 97.89
  Q 138.02 99.17 136.41 100.39
  Q 125.98 108.30 117.57 99.29
  A 2.36 2.36 0.0 0 0 114.22 99.18
  Q 108.23 104.80 102.54 110.53
  C 98.20 114.90 90.59 113.09 86.31 109.66
  Q 85.87 109.31 86.25 108.91"
/>
<path stroke="#808080" vector-effect="non-scaling-stroke" d="
  M 41.65 100.90
  C 40.62 109.93 43.74 120.19 51.04 126.11
  C 52.22 127.06 53.55 126.95 54.60 126.00
  A 2.19 2.19 0.0 0 0 54.63 122.77
  Q 45.88 114.65 46.53 102.09
  C 46.62 100.32 45.99 98.92 44.14 98.81
  A 2.36 2.36 0.0 0 0 41.65 100.90"
/>
<path stroke="#808080" vector-effect="non-scaling-stroke" d="
  M 177.89 101.37
  C 178.67 109.58 175.40 117.48 169.19 123.29
  C 167.76 124.63 167.40 126.19 168.91 127.58
  A 2.43 2.42 -44.5 0 0 172.16 127.60
  Q 183.07 117.93 183.23 102.99
  C 183.25 100.52 182.41 98.01 179.36 99.07
  A 2.21 2.20 77.6 0 0 177.89 101.37"
/>
<path stroke="#808080" vector-effect="non-scaling-stroke" d="
  M 153.42 173.78
  Q 164.62 173.21 165.58 161.76
  Q 165.82 158.89 163.78 155.40
  Q 163.52 154.94 164.02 154.78
  Q 172.32 152.04 172.47 142.98
  Q 172.55 137.95 170.10 135.42
  Q 158.16 123.10 146.26 111.43
  A 2.41 2.41 0.0 0 0 142.78 111.55
  Q 140.83 113.74 143.20 116.06
  Q 153.62 126.23 163.89 136.55
  C 166.91 139.58 168.83 142.70 166.60 146.59
  Q 164.27 150.66 159.11 149.67
  Q 158.65 149.58 158.32 149.25
  Q 148.99 139.79 139.59 130.40
  C 137.04 127.85 132.88 131.12 136.09 134.29
  Q 146.50 144.59 156.70 155.11
  Q 159.77 158.27 160.34 160.48
  C 161.40 164.55 157.45 169.21 153.04 168.56
  Q 151.13 168.28 149.16 166.24
  Q 138.00 154.70 126.53 143.47
  C 123.96 140.95 120.35 144.72 123.09 147.40
  Q 133.71 157.78 144.10 168.40
  C 146.62 170.98 148.64 173.39 147.27 177.17
  Q 145.15 183.04 138.03 181.34
  Q 137.57 181.22 137.37 180.79
  C 136.41 178.69 130.98 170.48 127.74 172.03
  Q 126.18 172.78 126.42 175.01
  Q 126.47 175.48 126.80 175.83
  C 128.69 177.82 131.32 180.25 132.26 182.50
  C 134.83 188.65 127.32 194.78 122.14 190.08
  A 1.89 1.89 0.0 0 0 119.77 189.95
  C 118.15 191.12 117.69 192.63 119.22 194.17
  Q 122.59 197.58 127.76 196.70
  Q 136.16 195.28 137.74 187.03
  Q 137.84 186.53 138.32 186.67
  Q 140.95 187.39 143.41 186.70
  Q 152.82 184.06 152.90 174.33
  Q 152.90 173.81 153.42 173.78"
/>
<path stroke="#808080" vector-effect="non-scaling-stroke" d="
  M 83.94 131.82
  C 84.30 123.64 77.05 116.91 69.25 119.27
  C 63.93 120.87 57.50 128.57 53.23 132.98
  Q 49.21 137.12 48.29 139.77
  C 45.86 146.68 50.89 153.95 58.11 155.05
  Q 58.63 155.13 58.58 155.65
  Q 57.18 170.59 72.18 170.33
  Q 72.71 170.32 72.82 170.83
  Q 75.47 183.36 88.32 181.27
  Q 88.81 181.19 88.95 181.67
  C 91.35 190.13 101.66 195.70 108.68 188.68
  Q 113.80 183.56 118.83 178.33
  C 126.48 170.39 119.65 159.13 109.73 158.66
  Q 109.18 158.63 109.16 158.08
  Q 108.75 145.95 96.72 145.37
  Q 96.33 145.35 96.32 144.96
  Q 96.04 133.22 84.37 132.30
  Q 83.92 132.27 83.94 131.82"
/>
<path stroke="#808080" vector-effect="non-scaling-stroke" d="
  M 77.91 50.04
  A 0.34 0.34 0.0 0 0 77.90 49.55
  L 62.33 34.65
  A 0.34 0.34 0.0 0 0 61.85 34.66
  L 15.30 81.99
  A 0.34 0.34 0.0 0 0 15.30 82.47
  L 30.47 97.52
  A 0.34 0.34 0.0 0 0 30.95 97.52
  L 77.91 50.04"
/>
<path stroke="#808080" vector-effect="non-scaling-stroke" d="
  M 162.1681 34.7178
  A 0.27 0.27 0.0 0 0 161.7863 34.7171
  L 146.5145 49.9357
  A 0.27 0.27 0.0 0 0 146.5138 50.3176
  L 194.1319 98.1022
  A 0.27 0.27 0.0 0 0 194.5137 98.1029
  L 209.7855 82.8843
  A 0.27 0.27 0.0 0 0 209.7862 82.5024
  L 162.1681 34.7178"
/>
<path stroke="#808080" vector-effect="non-scaling-stroke" d="
  M 77.0476 135.1468
  A 6.38 6.38 0.0 0 0 77.0161 126.1241
  L 76.7181 125.8282
  A 6.38 6.38 0.0 0 0 67.6954 125.8597
  L 54.7724 138.8732
  A 6.38 6.38 0.0 0 0 54.8039 147.8959
  L 55.1019 148.1918
  A 6.38 6.38 0.0 0 0 64.1246 148.1603
  L 77.0476 135.1468"
/>
<path stroke="#808080" vector-effect="non-scaling-stroke" d="
  M 89.0823 139.4062
  A 6.29 6.29 0.0 0 0 80.1870 139.3752
  L 65.2150 154.2430
  A 6.29 6.29 0.0 0 0 65.1840 163.1383
  L 65.4377 163.3938
  A 6.29 6.29 0.0 0 0 74.3330 163.4248
  L 89.3050 148.5570
  A 6.29 6.29 0.0 0 0 89.3360 139.6617
  L 89.0823 139.4062"
/>
<path stroke="#808080" vector-effect="non-scaling-stroke" d="
  M 101.9081 152.4232
  A 6.33 6.33 0.0 0 0 92.9562 152.4076
  L 79.9510 165.3674
  A 6.33 6.33 0.0 0 0 79.9354 174.3193
  L 80.2319 174.6168
  A 6.33 6.33 0.0 0 0 89.1838 174.6324
  L 102.1890 161.6726
  A 6.33 6.33 0.0 0 0 102.2046 152.7207
  L 101.9081 152.4232"
/>
<path stroke="#808080" vector-effect="non-scaling-stroke" d="
  M 114.1837 165.5174
  A 6.06 6.06 0.0 0 0 105.6136 165.5025
  L 95.7818 175.3000
  A 6.06 6.06 0.0 0 0 95.7669 183.8701
  L 96.6563 184.7626
  A 6.06 6.06 0.0 0 0 105.2264 184.7775
  L 115.0582 174.9800
  A 6.06 6.06 0.0 0 0 115.0731 166.4099
  L 114.1837 165.5174"
/>
</g>
<path fill="#ffffff" d="
  M 0.00 0.00
  L 225.00 0.00
  L 225.00 225.00
  L 0.00 225.00
  L 0.00 0.00
  Z
  M 83.64 51.23
  A 2.51 2.51 0.0 0 0 83.59 47.65
  L 63.71 28.75
  A 2.51 2.51 0.0 0 0 60.19 28.82
  L 9.56 80.46
  A 2.51 2.51 0.0 0 0 9.59 84.00
  L 28.85 103.15
  A 2.51 2.51 0.0 0 0 32.41 103.14
  L 83.64 51.23
  Z
  M 163.8662 28.9130
  A 2.54 2.54 0.0 0 0 160.2741 28.9068
  L 140.8797 48.2335
  A 2.54 2.54 0.0 0 0 140.8735 51.8256
  L 192.6138 103.7470
  A 2.54 2.54 0.0 0 0 196.2059 103.7532
  L 215.6003 84.4265
  A 2.54 2.54 0.0 0 0 215.6065 80.8344
  L 163.8662 28.9130
  Z
  M 81.50 65.64
  C 90.87 66.70 97.51 69.36 104.24 75.38
  A 2.37 2.37 0.0 0 0 107.21 75.54
  C 108.81 74.38 108.86 72.61 107.37 71.25
  Q 96.97 61.77 82.76 60.47
  C 78.52 60.08 78.21 65.27 81.50 65.64
  Z
  M 86.25 108.91
  Q 99.89 94.47 113.98 80.48
  C 121.77 72.75 130.38 65.80 141.76 65.58
  C 146.56 65.48 145.67 60.59 142.74 60.44
  C 130.99 59.83 121.13 66.46 112.95 74.44
  Q 96.68 90.31 81.06 106.81
  Q 79.95 107.99 79.03 109.42
  A 0.98 0.97 44.7 0 0 79.04 110.48
  C 83.24 116.88 99.24 121.46 104.75 115.47
  Q 109.69 110.09 115.38 105.15
  A 0.64 0.63 43.8 0 1 116.20 105.14
  C 125.43 112.59 135.27 109.22 143.11 101.87
  C 145.46 99.67 142.67 95.37 139.58 97.89
  Q 138.02 99.17 136.41 100.39
  Q 125.98 108.30 117.57 99.29
  A 2.36 2.36 0.0 0 0 114.22 99.18
  Q 108.23 104.80 102.54 110.53
  C 98.20 114.90 90.59 113.09 86.31 109.66
  Q 85.87 109.31 86.25 108.91
  Z
  M 41.65 100.90
  C 40.62 109.93 43.74 120.19 51.04 126.11
  C 52.22 127.06 53.55 126.95 54.60 126.00
  A 2.19 2.19 0.0 0 0 54.63 122.77
  Q 45.88 114.65 46.53 102.09
  C 46.62 100.32 45.99 98.92 44.14 98.81
  A 2.36 2.36 0.0 0 0 41.65 100.90
  Z
  M 177.89 101.37
  C 178.67 109.58 175.40 117.48 169.19 123.29
  C 167.76 124.63 167.40 126.19 168.91 127.58
  A 2.43 2.42 -44.5 0 0 172.16 127.60
  Q 183.07 117.93 183.23 102.99
  C 183.25 100.52 182.41 98.01 179.36 99.07
  A 2.21 2.20 77.6 0 0 177.89 101.37
  Z
  M 153.42 173.78
  Q 164.62 173.21 165.58 161.76
  Q 165.82 158.89 163.78 155.40
  Q 163.52 154.94 164.02 154.78
  Q 172.32 152.04 172.47 142.98
  Q 172.55 137.95 170.10 135.42
  Q 158.16 123.10 146.26 111.43
  A 2.41 2.41 0.0 0 0 142.78 111.55
  Q 140.83 113.74 143.20 116.06
  Q 153.62 126.23 163.89 136.55
  C 166.91 139.58 168.83 142.70 166.60 146.59
  Q 164.27 150.66 159.11 149.67
  Q 158.65 149.58 158.32 149.25
  Q 148.99 139.79 139.59 130.40
  C 137.04 127.85 132.88 131.12 136.09 134.29
  Q 146.50 144.59 156.70 155.11
  Q 159.77 158.27 160.34 160.48
  C 161.40 164.55 157.45 169.21 153.04 168.56
  Q 151.13 168.28 149.16 166.24
  Q 138.00 154.70 126.53 143.47
  C 123.96 140.95 120.35 144.72 123.09 147.40
  Q 133.71 157.78 144.10 168.40
  C 146.62 170.98 148.64 173.39 147.27 177.17
  Q 145.15 183.04 138.03 181.34
  Q 137.57 181.22 137.37 180.79
  C 136.41 178.69 130.98 170.48 127.74 172.03
  Q 126.18 172.78 126.42 175.01
  Q 126.47 175.48 126.80 175.83
  C 128.69 177.82 131.32 180.25 132.26 182.50
  C 134.83 188.65 127.32 194.78 122.14 190.08
  A 1.89 1.89 0.0 0 0 119.77 189.95
  C 118.15 191.12 117.69 192.63 119.22 194.17
  Q 122.59 197.58 127.76 196.70
  Q 136.16 195.28 137.74 187.03
  Q 137.84 186.53 138.32 186.67
  Q 140.95 187.39 143.41 186.70
  Q 152.82 184.06 152.90 174.33
  Q 152.90 173.81 153.42 173.78
  Z
  M 83.94 131.82
  C 84.30 123.64 77.05 116.91 69.25 119.27
  C 63.93 120.87 57.50 128.57 53.23 132.98
  Q 49.21 137.12 48.29 139.77
  C 45.86 146.68 50.89 153.95 58.11 155.05
  Q 58.63 155.13 58.58 155.65
  Q 57.18 170.59 72.18 170.33
  Q 72.71 170.32 72.82 170.83
  Q 75.47 183.36 88.32 181.27
  Q 88.81 181.19 88.95 181.67
  C 91.35 190.13 101.66 195.70 108.68 188.68
  Q 113.80 183.56 118.83 178.33
  C 126.48 170.39 119.65 159.13 109.73 158.66
  Q 109.18 158.63 109.16 158.08
  Q 108.75 145.95 96.72 145.37
  Q 96.33 145.35 96.32 144.96
  Q 96.04 133.22 84.37 132.30
  Q 83.92 132.27 83.94 131.82
  Z"
/>
<path fill="#000000" d="
  M 83.64 51.23
  L 32.41 103.14
  A 2.51 2.51 0.0 0 1 28.85 103.15
  L 9.59 84.00
  A 2.51 2.51 0.0 0 1 9.56 80.46
  L 60.19 28.82
  A 2.51 2.51 0.0 0 1 63.71 28.75
  L 83.59 47.65
  A 2.51 2.51 0.0 0 1 83.64 51.23
  Z
  M 77.91 50.04
  A 0.34 0.34 0.0 0 0 77.90 49.55
  L 62.33 34.65
  A 0.34 0.34 0.0 0 0 61.85 34.66
  L 15.30 81.99
  A 0.34 0.34 0.0 0 0 15.30 82.47
  L 30.47 97.52
  A 0.34 0.34 0.0 0 0 30.95 97.52
  L 77.91 50.04
  Z"
/>
<path fill="#000000" d="
  M 215.6065 80.8344
  A 2.54 2.54 0.0 0 1 215.6003 84.4265
  L 196.2059 103.7532
  A 2.54 2.54 0.0 0 1 192.6138 103.7470
  L 140.8735 51.8256
  A 2.54 2.54 0.0 0 1 140.8797 48.2335
  L 160.2741 28.9068
  A 2.54 2.54 0.0 0 1 163.8662 28.9130
  L 215.6065 80.8344
  Z
  M 162.1681 34.7178
  A 0.27 0.27 0.0 0 0 161.7863 34.7171
  L 146.5145 49.9357
  A 0.27 0.27 0.0 0 0 146.5138 50.3176
  L 194.1319 98.1022
  A 0.27 0.27 0.0 0 0 194.5137 98.1029
  L 209.7855 82.8843
  A 0.27 0.27 0.0 0 0 209.7862 82.5024
  L 162.1681 34.7178
  Z"
/>
<path fill="#ffffff" d="
  M 77.91 50.04
  L 30.95 97.52
  A 0.34 0.34 0.0 0 1 30.47 97.52
  L 15.30 82.47
  A 0.34 0.34 0.0 0 1 15.30 81.99
  L 61.85 34.66
  A 0.34 0.34 0.0 0 1 62.33 34.65
  L 77.90 49.55
  A 0.34 0.34 0.0 0 1 77.91 50.04
  Z"
/>
<rect fill="#ffffff" x="-11.05" y="-34.00" transform="translate(178.15,66.41) rotate(-44.9)" width="22.10" height="68.00" rx="0.27"/>
<path fill="#000000" d="
  M 104.24 75.38
  C 97.51 69.36 90.87 66.70 81.50 65.64
  C 78.21 65.27 78.52 60.08 82.76 60.47
  Q 96.97 61.77 107.37 71.25
  C 108.86 72.61 108.81 74.38 107.21 75.54
  A 2.37 2.37 0.0 0 1 104.24 75.38
  Z"
/>
<path fill="#000000" d="
  M 86.31 109.66
  C 90.59 113.09 98.20 114.90 102.54 110.53
  Q 108.23 104.80 114.22 99.18
  A 2.36 2.36 0.0 0 1 117.57 99.29
  Q 125.98 108.30 136.41 100.39
  Q 138.02 99.17 139.58 97.89
  C 142.67 95.37 145.46 99.67 143.11 101.87
  C 135.27 109.22 125.43 112.59 116.20 105.14
  A 0.64 0.63 43.8 0 0 115.38 105.15
  Q 109.69 110.09 104.75 115.47
  C 99.24 121.46 83.24 116.88 79.04 110.48
  A 0.98 0.97 44.7 0 1 79.03 109.42
  Q 79.95 107.99 81.06 106.81
  Q 96.68 90.31 112.95 74.44
  C 121.13 66.46 130.99 59.83 142.74 60.44
  C 145.67 60.59 146.56 65.48 141.76 65.58
  C 130.38 65.80 121.77 72.75 113.98 80.48
  Q 99.89 94.47 86.25 108.91
  Q 85.87 109.31 86.31 109.66
  Z"
/>
<path fill="#000000" d="
  M 51.04 126.11
  C 43.74 120.19 40.62 109.93 41.65 100.90
  A 2.36 2.36 0.0 0 1 44.14 98.81
  C 45.99 98.92 46.62 100.32 46.53 102.09
  Q 45.88 114.65 54.63 122.77
  A 2.19 2.19 0.0 0 1 54.60 126.00
  C 53.55 126.95 52.22 127.06 51.04 126.11
  Z"
/>
<path fill="#000000" d="
  M 169.19 123.29
  C 175.40 117.48 178.67 109.58 177.89 101.37
  A 2.21 2.20 77.6 0 1 179.36 99.07
  C 182.41 98.01 183.25 100.52 183.23 102.99
  Q 183.07 117.93 172.16 127.60
  A 2.43 2.42 -44.5 0 1 168.91 127.58
  C 167.40 126.19 167.76 124.63 169.19 123.29
  Z"
/>
<path fill="#000000" d="
  M 152.90 174.33
  Q 152.82 184.06 143.41 186.70
  Q 140.95 187.39 138.32 186.67
  Q 137.84 186.53 137.74 187.03
  Q 136.16 195.28 127.76 196.70
  Q 122.59 197.58 119.22 194.17
  C 117.69 192.63 118.15 191.12 119.77 189.95
  A 1.89 1.89 0.0 0 1 122.14 190.08
  C 127.32 194.78 134.83 188.65 132.26 182.50
  C 131.32 180.25 128.69 177.82 126.80 175.83
  Q 126.47 175.48 126.42 175.01
  Q 126.18 172.78 127.74 172.03
  C 130.98 170.48 136.41 178.69 137.37 180.79
  Q 137.57 181.22 138.03 181.34
  Q 145.15 183.04 147.27 177.17
  C 148.64 173.39 146.62 170.98 144.10 168.40
  Q 133.71 157.78 123.09 147.40
  C 120.35 144.72 123.96 140.95 126.53 143.47
  Q 138.00 154.70 149.16 166.24
  Q 151.13 168.28 153.04 168.56
  C 157.45 169.21 161.40 164.55 160.34 160.48
  Q 159.77 158.27 156.70 155.11
  Q 146.50 144.59 136.09 134.29
  C 132.88 131.12 137.04 127.85 139.59 130.40
  Q 148.99 139.79 158.32 149.25
  Q 158.65 149.58 159.11 149.67
  Q 164.27 150.66 166.60 146.59
  C 168.83 142.70 166.91 139.58 163.89 136.55
  Q 153.62 126.23 143.20 116.06
  Q 140.83 113.74 142.78 111.55
  A 2.41 2.41 0.0 0 1 146.26 111.43
  Q 158.16 123.10 170.10 135.42
  Q 172.55 137.95 172.47 142.98
  Q 172.32 152.04 164.02 154.78
  Q 163.52 154.94 163.78 155.40
  Q 165.82 158.89 165.58 161.76
  Q 164.62 173.21 153.42 173.78
  Q 152.90 173.81 152.90 174.33
  Z"
/>
<path fill="#000000" d="
  M 84.37 132.30
  Q 96.04 133.22 96.32 144.96
  Q 96.33 145.35 96.72 145.37
  Q 108.75 145.95 109.16 158.08
  Q 109.18 158.63 109.73 158.66
  C 119.65 159.13 126.48 170.39 118.83 178.33
  Q 113.80 183.56 108.68 188.68
  C 101.66 195.70 91.35 190.13 88.95 181.67
  Q 88.81 181.19 88.32 181.27
  Q 75.47 183.36 72.82 170.83
  Q 72.71 170.32 72.18 170.33
  Q 57.18 170.59 58.58 155.65
  Q 58.63 155.13 58.11 155.05
  C 50.89 153.95 45.86 146.68 48.29 139.77
  Q 49.21 137.12 53.23 132.98
  C 57.50 128.57 63.93 120.87 69.25 119.27
  C 77.05 116.91 84.30 123.64 83.94 131.82
  Q 83.92 132.27 84.37 132.30
  Z
  M 77.0476 135.1468
  A 6.38 6.38 0.0 0 0 77.0161 126.1241
  L 76.7181 125.8282
  A 6.38 6.38 0.0 0 0 67.6954 125.8597
  L 54.7724 138.8732
  A 6.38 6.38 0.0 0 0 54.8039 147.8959
  L 55.1019 148.1918
  A 6.38 6.38 0.0 0 0 64.1246 148.1603
  L 77.0476 135.1468
  Z
  M 89.0823 139.4062
  A 6.29 6.29 0.0 0 0 80.1870 139.3752
  L 65.2150 154.2430
  A 6.29 6.29 0.0 0 0 65.1840 163.1383
  L 65.4377 163.3938
  A 6.29 6.29 0.0 0 0 74.3330 163.4248
  L 89.3050 148.5570
  A 6.29 6.29 0.0 0 0 89.3360 139.6617
  L 89.0823 139.4062
  Z
  M 101.9081 152.4232
  A 6.33 6.33 0.0 0 0 92.9562 152.4076
  L 79.9510 165.3674
  A 6.33 6.33 0.0 0 0 79.9354 174.3193
  L 80.2319 174.6168
  A 6.33 6.33 0.0 0 0 89.1838 174.6324
  L 102.1890 161.6726
  A 6.33 6.33 0.0 0 0 102.2046 152.7207
  L 101.9081 152.4232
  Z
  M 114.1837 165.5174
  A 6.06 6.06 0.0 0 0 105.6136 165.5025
  L 95.7818 175.3000
  A 6.06 6.06 0.0 0 0 95.7669 183.8701
  L 96.6563 184.7626
  A 6.06 6.06 0.0 0 0 105.2264 184.7775
  L 115.0582 174.9800
  A 6.06 6.06 0.0 0 0 115.0731 166.4099
  L 114.1837 165.5174
  Z"
/>
<rect fill="#ffffff" x="-6.59" y="-15.55" transform="translate(65.91,137.01) rotate(44.8)" width="13.18" height="31.10" rx="6.38"/>
<rect fill="#ffffff" x="-16.84" y="-6.47" transform="translate(77.26,151.40) rotate(-44.8)" width="33.68" height="12.94" rx="6.29"/>
<rect fill="#ffffff" x="-15.51" y="-6.54" transform="translate(91.07,163.52) rotate(-44.9)" width="31.02" height="13.08" rx="6.33"/>
<rect fill="#ffffff" x="-13.00" y="-6.69" transform="translate(105.42,175.14) rotate(-44.9)" width="26.00" height="13.38" rx="6.06"/>
</svg>
