<?xml version="1.0" encoding="UTF-8" standalone="no"?>
<!DOCTYPE svg PUBLIC "-//W3C//DTD SVG 1.1//EN" "http://www.w3.org/Graphics/SVG/1.1/DTD/svg11.dtd">
<svg xmlns="http://www.w3.org/2000/svg" version="1.1" viewBox="0.00 0.00 211.00 97.00">
<g stroke-width="2.00" fill="none" stroke-linecap="butt">
<path stroke="#cbcbcb" vector-effect="non-scaling-stroke" d="
  M 73.41 39.57
  C 73.66 40.88 73.41 42.49 73.69 43.56
  Q 74.99 48.69 80.44 49.40
  A 0.42 0.42 0.0 0 0 80.91 48.98
  L 80.84 32.88
  A 1.21 1.21 0.0 0 0 79.63 31.68
  L 63.55 31.68
  A 0.58 0.58 0.0 0 0 62.99 32.40
  Q 64.83 39.91 72.73 39.06
  A 0.63 0.62 -7.9 0 1 73.41 39.57"
/>
<path stroke="#cbcbcb" vector-effect="non-scaling-stroke" d="
  M 111.12 36.07
  A 2.51 2.51 0.0 0 0 108.61 33.56
  A 2.51 2.51 0.0 0 0 106.10 36.07
  A 2.51 2.51 0.0 0 0 108.61 38.58
  A 2.51 2.51 0.0 0 0 111.12 36.07"
/>
<path stroke="#cbcbcb" vector-effect="non-scaling-stroke" d="
  M 97.86 55.49
  C 97.16 59.16 93.62 59.46 90.70 58.22
  A 0.52 0.51 12.7 0 0 89.98 58.67
  L 89.88 61.06
  Q 89.86 61.62 90.40 61.80
  C 99.41 64.71 101.76 59.35 101.92 51.61
  Q 102.08 43.60 101.85 35.57
  A 0.59 0.58 89.0 0 0 101.26 34.99
  L 98.75 35.01
  Q 98.08 35.02 98.09 35.69
  C 98.21 41.76 98.97 49.65 97.86 55.49"
/>
<path stroke="#cbcbcb" vector-effect="non-scaling-stroke" d="
  M 65.38 48.23
  Q 64.68 55.90 72.10 57.55
  A 0.60 0.60 0.0 0 0 72.83 56.97
  L 72.85 41.18
  A 1.42 1.41 0.0 0 0 71.43 39.77
  L 55.73 39.83
  A 0.79 0.79 0.0 0 0 54.97 40.82
  Q 56.84 47.86 64.24 47.10
  A 1.04 1.04 0.0 0 1 65.38 48.23"
/>
<path stroke="#cbcbcb" vector-effect="non-scaling-stroke" d="
  M 119.88 43.81
  A 0.37 0.37 0.0 0 1 119.23 43.52
  Q 119.50 40.82 116.67 41.58
  Q 115.74 41.83 115.74 42.80
  L 115.74 61.65
  Q 115.74 62.31 116.40 62.31
  L 118.61 62.33
  Q 119.27 62.34 119.26 61.68
  Q 119.21 56.16 119.32 50.57
  C 119.40 46.23 121.43 44.04 125.86 44.76
  A 0.57 0.57 0.0 0 0 126.52 44.20
  L 126.51 41.86
  Q 126.50 41.29 125.94 41.28
  Q 122.24 41.17 119.88 43.81"
/>
<path stroke="#cbcbcb" vector-effect="non-scaling-stroke" d="
  M 142.87 43.91
  C 137.44 38.85 130.67 40.88 128.56 47.69
  C 125.80 56.65 132.63 68.56 142.72 59.74
  A 0.35 0.35 0.0 0 1 143.30 59.98
  L 143.42 61.69
  A 0.56 0.56 0.0 0 0 143.92 62.20
  L 146.19 62.46
  Q 146.91 62.54 146.91 61.81
  L 146.93 42.08
  Q 146.93 41.48 146.33 41.49
  L 144.01 41.52
  Q 143.30 41.53 143.30 42.24
  L 143.30 43.73
  Q 143.30 44.31 142.87 43.91"
/>
<path stroke="#cbcbcb" vector-effect="non-scaling-stroke" d="
  M 110.26 42.24
  A 0.74 0.74 0.0 0 0 109.52 41.50
  L 107.72 41.50
  A 0.74 0.74 0.0 0 0 106.98 42.24
  L 106.98 61.58
  A 0.74 0.74 0.0 0 0 107.72 62.32
  L 109.52 62.32
  A 0.74 0.74 0.0 0 0 110.26 61.58
  L 110.26 42.24"
/>
<path stroke="#cbcbcb" vector-effect="non-scaling-stroke" d="
  M 57.38 56.03
  Q 56.55 63.83 63.91 65.71
  A 0.72 0.72 0.0 0 0 64.80 65.01
  L 64.72 49.35
  A 1.38 1.37 89.8 0 0 63.35 47.98
  L 47.67 47.90
  A 0.62 0.61 87.0 0 0 47.06 48.58
  C 47.61 54.25 51.84 55.28 56.77 55.35
  Q 57.45 55.35 57.38 56.03"
/>
<path stroke="#cbcbcb" vector-effect="non-scaling-stroke" d="
  M 143.1640 49.9703
  A 5.29 5.29 0.0 0 0 137.9390 44.6160
  L 137.0391 44.6050
  A 5.29 5.29 0.0 0 0 131.6849 49.8300
  L 131.6360 53.8297
  A 5.29 5.29 0.0 0 0 136.8610 59.1840
  L 137.7609 59.1950
  A 5.29 5.29 0.0 0 0 143.1151 53.9700
  L 143.1640 49.9703"
/>
</g>
<path fill="#ffffff" d="
  M 0.00 0.00
  L 211.00 0.00
  L 211.00 97.00
  L 0.00 97.00
  L 0.00 0.00
  Z
  M 73.41 39.57
  C 73.66 40.88 73.41 42.49 73.69 43.56
  Q 74.99 48.69 80.44 49.40
  A 0.42 0.42 0.0 0 0 80.91 48.98
  L 80.84 32.88
  A 1.21 1.21 0.0 0 0 79.63 31.68
  L 63.55 31.68
  A 0.58 0.58 0.0 0 0 62.99 32.40
  Q 64.83 39.91 72.73 39.06
  A 0.63 0.62 -7.9 0 1 73.41 39.57
  Z
  M 111.12 36.07
  A 2.51 2.51 0.0 0 0 108.61 33.56
  A 2.51 2.51 0.0 0 0 106.10 36.07
  A 2.51 2.51 0.0 0 0 108.61 38.58
  A 2.51 2.51 0.0 0 0 111.12 36.07
  Z
  M 97.86 55.49
  C 97.16 59.16 93.62 59.46 90.70 58.22
  A 0.52 0.51 12.7 0 0 89.98 58.67
  L 89.88 61.06
  Q 89.86 61.62 90.40 61.80
  C 99.41 64.71 101.76 59.35 101.92 51.61
  Q 102.08 43.60 101.85 35.57
  A 0.59 0.58 89.0 0 0 101.26 34.99
  L 98.75 35.01
  Q 98.08 35.02 98.09 35.69
  C 98.21 41.76 98.97 49.65 97.86 55.49
  Z
  M 65.38 48.23
  Q 64.68 55.90 72.10 57.55
  A 0.60 0.60 0.0 0 0 72.83 56.97
  L 72.85 41.18
  A 1.42 1.41 0.0 0 0 71.43 39.77
  L 55.73 39.83
  A 0.79 0.79 0.0 0 0 54.97 40.82
  Q 56.84 47.86 64.24 47.10
  A 1.04 1.04 0.0 0 1 65.38 48.23
  Z
  M 119.88 43.81
  A 0.37 0.37 0.0 0 1 119.23 43.52
  Q 119.50 40.82 116.67 41.58
  Q 115.74 41.83 115.74 42.80
  L 115.74 61.65
  Q 115.74 62.31 116.40 62.31
  L 118.61 62.33
  Q 119.27 62.34 119.26 61.68
  Q 119.21 56.16 119.32 50.57
  C 119.40 46.23 121.43 44.04 125.86 44.76
  A 0.57 0.57 0.0 0 0 126.52 44.20
  L 126.51 41.86
  Q 126.50 41.29 125.94 41.28
  Q 122.24 41.17 119.88 43.81
  Z
  M 142.87 43.91
  C 137.44 38.85 130.67 40.88 128.56 47.69
  C 125.80 56.65 132.63 68.56 142.72 59.74
  A 0.35 0.35 0.0 0 1 143.30 59.98
  L 143.42 61.69
  A 0.56 0.56 0.0 0 0 143.92 62.20
  L 146.19 62.46
  Q 146.91 62.54 146.91 61.81
  L 146.93 42.08
  Q 146.93 41.48 146.33 41.49
  L 144.01 41.52
  Q 143.30 41.53 143.30 42.24
  L 143.30 43.73
  Q 143.30 44.31 142.87 43.91
  Z
  M 110.26 42.24
  A 0.74 0.74 0.0 0 0 109.52 41.50
  L 107.72 41.50
  A 0.74 0.74 0.0 0 0 106.98 42.24
  L 106.98 61.58
  A 0.74 0.74 0.0 0 0 107.72 62.32
  L 109.52 62.32
  A 0.74 0.74 0.0 0 0 110.26 61.58
  L 110.26 42.24
  Z
  M 57.38 56.03
  Q 56.55 63.83 63.91 65.71
  A 0.72 0.72 0.0 0 0 64.80 65.01
  L 64.72 49.35
  A 1.38 1.37 89.8 0 0 63.35 47.98
  L 47.67 47.90
  A 0.62 0.61 87.0 0 0 47.06 48.58
  C 47.61 54.25 51.84 55.28 56.77 55.35
  Q 57.45 55.35 57.38 56.03
  Z"
/>
<path fill="#969696" d="
  M 72.73 39.06
  Q 64.83 39.91 62.99 32.40
  A 0.58 0.58 0.0 0 1 63.55 31.68
  L 79.63 31.68
  A 1.21 1.21 0.0 0 1 80.84 32.88
  L 80.91 48.98
  A 0.42 0.42 0.0 0 1 80.44 49.40
  Q 74.99 48.69 73.69 43.56
  C 73.41 42.49 73.66 40.88 73.41 39.57
  A 0.63 0.62 -7.9 0 0 72.73 39.06
  Z"
/>
<circle fill="#969696" cx="108.61" cy="36.07" r="2.51"/>
<path fill="#969696" d="
  M 97.86 55.49
  C 98.97 49.65 98.21 41.76 98.09 35.69
  Q 98.08 35.02 98.75 35.01
  L 101.26 34.99
  A 0.59 0.58 89.0 0 1 101.85 35.57
  Q 102.08 43.60 101.92 51.61
  C 101.76 59.35 99.41 64.71 90.40 61.80
  Q 89.86 61.62 89.88 61.06
  L 89.98 58.67
  A 0.52 0.51 12.7 0 1 90.70 58.22
  C 93.62 59.46 97.16 59.16 97.86 55.49
  Z"
/>
<path fill="#969696" d="
  M 65.38 48.23
  A 1.04 1.04 0.0 0 0 64.24 47.10
  Q 56.84 47.86 54.97 40.82
  A 0.79 0.79 0.0 0 1 55.73 39.83
  L 71.43 39.77
  A 1.42 1.41 0.0 0 1 72.85 41.18
  L 72.83 56.97
  A 0.60 0.60 0.0 0 1 72.10 57.55
  Q 64.68 55.90 65.38 48.23
  Z"
/>
<path fill="#969696" d="
  M 119.88 43.81
  Q 122.24 41.17 125.94 41.28
  Q 126.50 41.29 126.51 41.86
  L 126.52 44.20
  A 0.57 0.57 0.0 0 1 125.86 44.76
  C 121.43 44.04 119.40 46.23 119.32 50.57
  Q 119.21 56.16 119.26 61.68
  Q 119.27 62.34 118.61 62.33
  L 116.40 62.31
  Q 115.74 62.31 115.74 61.65
  L 115.74 42.80
  Q 115.74 41.83 116.67 41.58
  Q 119.50 40.82 119.23 43.52
  A 0.37 0.37 0.0 0 0 119.88 43.81
  Z"
/>
<path fill="#969696" d="
  M 143.30 43.73
  L 143.30 42.24
  Q 143.30 41.53 144.01 41.52
  L 146.33 41.49
  Q 146.93 41.48 146.93 42.08
  L 146.91 61.81
  Q 146.91 62.54 146.19 62.46
  L 143.92 62.20
  A 0.56 0.56 0.0 0 1 143.42 61.69
  L 143.30 59.98
  A 0.35 0.35 0.0 0 0 142.72 59.74
  C 132.63 68.56 125.80 56.65 128.56 47.69
  C 130.67 40.88 137.44 38.85 142.87 43.91
  Q 143.30 44.31 143.30 43.73
  Z
  M 143.1640 49.9703
  A 5.29 5.29 0.0 0 0 137.9390 44.6160
  L 137.0391 44.6050
  A 5.29 5.29 0.0 0 0 131.6849 49.8300
  L 131.6360 53.8297
  A 5.29 5.29 0.0 0 0 136.8610 59.1840
  L 137.7609 59.1950
  A 5.29 5.29 0.0 0 0 143.1151 53.9700
  L 143.1640 49.9703
  Z"
/>
<rect fill="#969696" x="106.98" y="41.50" width="3.28" height="20.82" rx="0.74"/>
<rect fill="#ffffff" x="-5.74" y="-7.29" transform="translate(137.40,51.90) rotate(0.7)" width="11.48" height="14.58" rx="5.29"/>
<path fill="#969696" d="
  M 56.77 55.35
  C 51.84 55.28 47.61 54.25 47.06 48.58
  A 0.62 0.61 87.0 0 1 47.67 47.90
  L 63.35 47.98
  A 1.38 1.37 89.8 0 1 64.72 49.35
  L 64.80 65.01
  A 0.72 0.72 0.0 0 1 63.91 65.71
  Q 56.55 63.83 57.38 56.03
  Q 57.45 55.35 56.77 55.35
  Z"
/>
</svg>
