<?xml version="1.0" encoding="UTF-8" standalone="no"?>
<!DOCTYPE svg PUBLIC "-//W3C//DTD SVG 1.1//EN" "http://www.w3.org/Graphics/SVG/1.1/DTD/svg11.dtd">
<svg xmlns="http://www.w3.org/2000/svg" version="1.1" viewBox="0.00 0.00 612.00 612.00">
<g stroke-width="2.00" fill="none" stroke-linecap="butt">
<path stroke="#9e9e9f" vector-effect="non-scaling-stroke" d="
  M 264.21 162.10
  C 212.00 178.62 176.02 220.94 166.53 274.75
  C 164.65 285.40 177.36 287.37 178.87 277.98
  C 186.81 228.51 220.96 188.78 268.84 173.93
  A 0.40 0.39 1.7 0 1 269.33 174.44
  Q 267.18 180.08 265.12 185.91
  Q 264.04 188.94 264.40 190.84
  C 265.15 194.88 269.28 196.95 273.03 195.40
  C 276.20 194.09 276.57 191.66 277.66 188.70
  Q 282.10 176.66 286.40 164.58
  C 287.80 160.63 287.70 156.41 283.40 154.86
  Q 269.63 149.87 255.86 144.90
  Q 252.39 143.64 250.53 143.87
  C 246.10 144.42 243.78 150.37 246.37 153.82
  Q 247.62 155.49 251.19 156.73
  Q 257.76 159.01 264.23 161.54
  Q 265.02 161.85 264.21 162.10"
/>
<path stroke="#9e9e9f" vector-effect="non-scaling-stroke" d="
  M 430.33 266.35
  Q 425.35 263.71 420.52 260.78
  C 411.22 255.16 404.90 266.35 413.04 271.20
  Q 417.95 274.13 435.87 284.21
  C 441.75 287.52 444.90 288.82 448.92 281.81
  Q 455.63 270.10 462.30 258.35
  C 464.05 255.28 465.10 252.55 462.89 249.69
  C 460.25 246.28 454.64 246.15 452.34 250.09
  Q 448.23 257.14 444.28 264.34
  A 0.38 0.38 0.0 0 1 443.58 264.25
  C 430.34 210.51 388.50 169.72 333.91 158.46
  C 331.51 157.96 328.93 157.32 326.86 158.32
  C 322.00 160.67 322.04 169.24 327.49 170.23
  C 378.13 179.34 418.25 215.98 430.81 265.98
  Q 430.99 266.70 430.33 266.35"
/>
<path stroke="#9e9e9f" vector-effect="non-scaling-stroke" d="
  M 238.74 275.17
  C 234.85 275.45 230.33 274.86 226.79 275.86
  C 218.47 278.22 215.25 284.42 215.08 292.83
  C 214.83 305.54 212.49 319.55 226.65 323.84
  C 229.91 324.83 233.96 324.47 237.58 324.54
  C 240.76 324.59 242.14 326.47 241.40 329.51
  Q 241.28 330.00 240.90 330.34
  Q 234.67 335.82 233.26 338.28
  C 226.49 350.09 234.31 356.72 241.93 364.52
  C 249.02 371.77 255.55 378.65 266.35 373.21
  C 269.79 371.47 272.85 367.73 275.84 364.95
  A 3.31 3.31 0.0 0 1 281.40 367.39
  C 281.36 376.65 281.06 384.96 290.62 389.36
  C 296.13 391.90 305.81 390.85 312.25 390.80
  Q 318.38 390.75 321.52 389.30
  C 330.84 384.99 330.75 376.58 330.62 367.45
  A 3.36 3.36 0.0 0 1 336.36 365.04
  C 342.82 371.56 348.58 377.73 358.44 374.00
  Q 361.81 372.73 366.43 368.12
  C 374.04 360.52 384.80 353.26 379.89 340.77
  C 378.31 336.73 374.34 333.37 371.19 330.27
  A 3.39 3.39 0.0 0 1 373.63 324.47
  C 378.00 324.56 383.05 324.96 386.99 323.32
  C 398.91 318.38 396.94 307.21 396.98 296.24
  Q 397.01 288.17 395.66 284.91
  C 392.01 276.07 384.09 274.90 374.66 275.23
  C 370.42 275.38 369.02 271.87 371.96 268.81
  C 374.73 265.93 378.13 263.08 379.68 259.58
  C 385.21 247.09 374.21 239.20 366.48 231.67
  Q 361.55 226.86 358.06 225.62
  C 348.37 222.18 342.70 228.25 336.40 234.71
  A 3.34 3.34 0.0 0 1 330.67 232.33
  C 330.82 223.19 330.71 214.49 321.28 210.37
  C 315.88 208.00 306.92 208.93 300.36 208.93
  Q 294.00 208.93 290.81 210.32
  C 284.64 213.03 281.44 218.75 281.46 225.50
  C 281.48 229.35 282.85 235.69 276.92 235.52
  A 1.23 1.22 67.8 0 1 276.08 235.16
  C 272.50 231.47 268.70 227.05 263.95 225.54
  C 252.70 221.95 246.45 230.68 239.28 237.86
  Q 233.20 243.96 231.84 247.48
  C 228.07 257.18 234.31 263.17 240.81 269.45
  A 3.33 3.33 0.0 0 1 238.74 275.17"
/>
<path stroke="#9e9e9f" vector-effect="non-scaling-stroke" d="
  M 181.59 325.89
  Q 186.47 329.47 191.73 333.28
  Q 194.86 335.54 196.78 335.84
  C 201.42 336.55 205.42 330.69 203.18 326.72
  Q 202.31 325.17 198.89 322.68
  Q 188.15 314.86 177.39 307.05
  C 170.44 302.01 167.80 307.32 164.12 312.31
  Q 156.87 322.11 149.77 332.03
  C 143.68 340.53 154.92 347.10 159.59 340.26
  Q 163.54 334.48 167.88 328.87
  Q 168.29 328.34 168.44 328.99
  C 180.99 381.75 221.30 422.18 274.05 434.69
  Q 277.47 435.50 279.44 434.81
  C 283.67 433.32 284.82 426.70 281.37 424.05
  Q 280.08 423.06 275.90 422.02
  C 228.39 410.23 192.32 373.73 180.85 326.37
  Q 180.55 325.13 181.59 325.89"
/>
<path stroke="#9e9e9f" vector-effect="non-scaling-stroke" d="
  M 341.55 419.74
  Q 345.02 415.45 349.13 410.64
  C 353.37 405.67 349.17 398.14 343.26 399.84
  Q 341.17 400.44 338.70 403.33
  Q 329.65 413.94 320.77 424.72
  C 317.28 428.94 318.00 431.98 322.14 435.49
  Q 333.29 444.92 344.60 454.17
  Q 349.33 458.04 353.38 454.13
  C 356.78 450.85 355.35 446.92 352.09 444.02
  Q 346.58 439.11 340.81 434.72
  A 0.39 0.38 -33.8 0 1 340.95 434.04
  C 397.14 419.21 437.89 373.66 446.23 315.76
  C 447.19 309.12 439.82 304.27 435.21 309.64
  Q 433.95 311.12 433.35 315.23
  C 425.94 365.79 390.59 405.70 342.11 420.56
  Q 340.49 421.05 341.55 419.74"
/>
<path stroke="#9e9e9f" vector-effect="non-scaling-stroke" d="
  M 342.11 246.23
  C 333.65 251.12 322.20 246.90 318.85 237.71
  C 317.47 233.91 317.75 228.80 317.84 224.56
  A 2.81 2.81 0.0 0 0 315.03 221.69
  L 296.95 221.71
  A 2.83 2.82 89.2 0 0 294.13 224.62
  C 294.25 228.99 294.54 234.18 293.06 238.01
  C 289.74 246.57 279.37 250.55 271.20 246.86
  C 267.44 245.16 264.07 241.32 261.07 238.19
  A 2.76 2.75 45.5 0 0 257.14 238.15
  L 244.39 250.90
  A 2.91 2.91 0.0 0 0 244.44 255.07
  C 247.49 257.97 251.32 261.41 252.98 265.06
  C 257.11 274.09 251.81 285.22 242.08 287.55
  C 238.83 288.33 234.37 287.99 230.65 288.05
  A 2.94 2.94 0.0 0 0 227.76 290.99
  L 227.78 308.71
  A 3.04 3.04 0.0 0 0 230.83 311.75
  C 234.83 311.73 239.45 311.38 242.96 312.42
  C 253.02 315.40 257.37 327.59 252.10 336.37
  C 250.36 339.26 247.05 342.10 244.40 344.76
  A 2.89 2.89 0.0 0 0 244.41 348.84
  L 257.06 361.48
  A 2.84 2.84 0.0 0 0 261.06 361.50
  C 263.75 358.85 266.82 355.33 269.74 353.60
  C 278.18 348.61 289.51 352.75 293.02 361.73
  C 294.57 365.70 294.27 370.92 294.18 375.38
  A 2.63 2.62 0.9 0 0 296.79 378.06
  L 314.88 378.19
  A 2.94 2.94 0.0 0 0 317.84 375.17
  C 317.73 370.94 317.47 365.81 318.85 362.04
  C 322.03 353.31 332.48 349.12 340.79 352.87
  C 344.53 354.56 347.89 358.43 350.95 361.50
  A 2.89 2.88 -45.1 0 0 355.03 361.49
  L 367.62 348.85
  A 2.87 2.86 45.6 0 0 367.66 344.85
  C 364.98 342.05 361.36 338.98 359.61 335.95
  C 354.16 326.51 359.95 314.60 370.23 312.16
  C 373.46 311.40 377.75 311.83 381.36 311.71
  A 2.96 2.96 0.0 0 0 384.22 308.75
  L 384.23 290.97
  A 2.88 2.88 0.0 0 0 381.43 288.08
  C 377.45 287.97 372.66 288.36 369.20 287.39
  C 359.36 284.64 354.96 273.09 359.41 264.30
  C 361.18 260.80 364.92 257.77 367.76 254.80
  A 2.72 2.72 0.0 0 0 367.72 251.00
  L 355.01 238.29
  A 2.93 2.93 0.0 0 0 350.86 238.30
  C 348.15 241.02 345.13 244.49 342.11 246.23"
/>
<path stroke="#9e9e9f" vector-effect="non-scaling-stroke" d="
  M 341.45 299.88
  A 35.45 35.45 0.0 0 0 306.00 264.43
  A 35.45 35.45 0.0 0 0 270.55 299.88
  A 35.45 35.45 0.0 0 0 306.00 335.33
  A 35.45 35.45 0.0 0 0 341.45 299.88"
/>
<path stroke="#9e9e9f" vector-effect="non-scaling-stroke" d="
  M 328.69 299.88
  A 22.69 22.69 0.0 0 0 306.00 277.19
  A 22.69 22.69 0.0 0 0 283.31 299.88
  A 22.69 22.69 0.0 0 0 306.00 322.57
  A 22.69 22.69 0.0 0 0 328.69 299.88"
/>
</g>
<path fill="#fbfbfb" d="
  M 0.00 0.00
  L 612.00 0.00
  L 612.00 612.00
  L 0.00 612.00
  L 0.00 0.00
  Z
  M 264.21 162.10
  C 212.00 178.62 176.02 220.94 166.53 274.75
  C 164.65 285.40 177.36 287.37 178.87 277.98
  C 186.81 228.51 220.96 188.78 268.84 173.93
  A 0.40 0.39 1.7 0 1 269.33 174.44
  Q 267.18 180.08 265.12 185.91
  Q 264.04 188.94 264.40 190.84
  C 265.15 194.88 269.28 196.95 273.03 195.40
  C 276.20 194.09 276.57 191.66 277.66 188.70
  Q 282.10 176.66 286.40 164.58
  C 287.80 160.63 287.70 156.41 283.40 154.86
  Q 269.63 149.87 255.86 144.90
  Q 252.39 143.64 250.53 143.87
  C 246.10 144.42 243.78 150.37 246.37 153.82
  Q 247.62 155.49 251.19 156.73
  Q 257.76 159.01 264.23 161.54
  Q 265.02 161.85 264.21 162.10
  Z
  M 430.33 266.35
  Q 425.35 263.71 420.52 260.78
  C 411.22 255.16 404.90 266.35 413.04 271.20
  Q 417.95 274.13 435.87 284.21
  C 441.75 287.52 444.90 288.82 448.92 281.81
  Q 455.63 270.10 462.30 258.35
  C 464.05 255.28 465.10 252.55 462.89 249.69
  C 460.25 246.28 454.64 246.15 452.34 250.09
  Q 448.23 257.14 444.28 264.34
  A 0.38 0.38 0.0 0 1 443.58 264.25
  C 430.34 210.51 388.50 169.72 333.91 158.46
  C 331.51 157.96 328.93 157.32 326.86 158.32
  C 322.00 160.67 322.04 169.24 327.49 170.23
  C 378.13 179.34 418.25 215.98 430.81 265.98
  Q 430.99 266.70 430.33 266.35
  Z
  M 238.74 275.17
  C 234.85 275.45 230.33 274.86 226.79 275.86
  C 218.47 278.22 215.25 284.42 215.08 292.83
  C 214.83 305.54 212.49 319.55 226.65 323.84
  C 229.91 324.83 233.96 324.47 237.58 324.54
  C 240.76 324.59 242.14 326.47 241.40 329.51
  Q 241.28 330.00 240.90 330.34
  Q 234.67 335.82 233.26 338.28
  C 226.49 350.09 234.31 356.72 241.93 364.52
  C 249.02 371.77 255.55 378.65 266.35 373.21
  C 269.79 371.47 272.85 367.73 275.84 364.95
  A 3.31 3.31 0.0 0 1 281.40 367.39
  C 281.36 376.65 281.06 384.96 290.62 389.36
  C 296.13 391.90 305.81 390.85 312.25 390.80
  Q 318.38 390.75 321.52 389.30
  C 330.84 384.99 330.75 376.58 330.62 367.45
  A 3.36 3.36 0.0 0 1 336.36 365.04
  C 342.82 371.56 348.58 377.73 358.44 374.00
  Q 361.81 372.73 366.43 368.12
  C 374.04 360.52 384.80 353.26 379.89 340.77
  C 378.31 336.73 374.34 333.37 371.19 330.27
  A 3.39 3.39 0.0 0 1 373.63 324.47
  C 378.00 324.56 383.05 324.96 386.99 323.32
  C 398.91 318.38 396.94 307.21 396.98 296.24
  Q 397.01 288.17 395.66 284.91
  C 392.01 276.07 384.09 274.90 374.66 275.23
  C 370.42 275.38 369.02 271.87 371.96 268.81
  C 374.73 265.93 378.13 263.08 379.68 259.58
  C 385.21 247.09 374.21 239.20 366.48 231.67
  Q 361.55 226.86 358.06 225.62
  C 348.37 222.18 342.70 228.25 336.40 234.71
  A 3.34 3.34 0.0 0 1 330.67 232.33
  C 330.82 223.19 330.71 214.49 321.28 210.37
  C 315.88 208.00 306.92 208.93 300.36 208.93
  Q 294.00 208.93 290.81 210.32
  C 284.64 213.03 281.44 218.75 281.46 225.50
  C 281.48 229.35 282.85 235.69 276.92 235.52
  A 1.23 1.22 67.8 0 1 276.08 235.16
  C 272.50 231.47 268.70 227.05 263.95 225.54
  C 252.70 221.95 246.45 230.68 239.28 237.86
  Q 233.20 243.96 231.84 247.48
  C 228.07 257.18 234.31 263.17 240.81 269.45
  A 3.33 3.33 0.0 0 1 238.74 275.17
  Z
  M 181.59 325.89
  Q 186.47 329.47 191.73 333.28
  Q 194.86 335.54 196.78 335.84
  C 201.42 336.55 205.42 330.69 203.18 326.72
  Q 202.31 325.17 198.89 322.68
  Q 188.15 314.86 177.39 307.05
  C 170.44 302.01 167.80 307.32 164.12 312.31
  Q 156.87 322.11 149.77 332.03
  C 143.68 340.53 154.92 347.10 159.59 340.26
  Q 163.54 334.48 167.88 328.87
  Q 168.29 328.34 168.44 328.99
  C 180.99 381.75 221.30 422.18 274.05 434.69
  Q 277.47 435.50 279.44 434.81
  C 283.67 433.32 284.82 426.70 281.37 424.05
  Q 280.08 423.06 275.90 422.02
  C 228.39 410.23 192.32 373.73 180.85 326.37
  Q 180.55 325.13 181.59 325.89
  Z
  M 341.55 419.74
  Q 345.02 415.45 349.13 410.64
  C 353.37 405.67 349.17 398.14 343.26 399.84
  Q 341.17 400.44 338.70 403.33
  Q 329.65 413.94 320.77 424.72
  C 317.28 428.94 318.00 431.98 322.14 435.49
  Q 333.29 444.92 344.60 454.17
  Q 349.33 458.04 353.38 454.13
  C 356.78 450.85 355.35 446.92 352.09 444.02
  Q 346.58 439.11 340.81 434.72
  A 0.39 0.38 -33.8 0 1 340.95 434.04
  C 397.14 419.21 437.89 373.66 446.23 315.76
  C 447.19 309.12 439.82 304.27 435.21 309.64
  Q 433.95 311.12 433.35 315.23
  C 425.94 365.79 390.59 405.70 342.11 420.56
  Q 340.49 421.05 341.55 419.74
  Z"
/>
<path fill="#404042" d="
  M 264.23 161.54
  Q 257.76 159.01 251.19 156.73
  Q 247.62 155.49 246.37 153.82
  C 243.78 150.37 246.10 144.42 250.53 143.87
  Q 252.39 143.64 255.86 144.90
  Q 269.63 149.87 283.40 154.86
  C 287.70 156.41 287.80 160.63 286.40 164.58
  Q 282.10 176.66 277.66 188.70
  C 276.57 191.66 276.20 194.09 273.03 195.40
  C 269.28 196.95 265.15 194.88 264.40 190.84
  Q 264.04 188.94 265.12 185.91
  Q 267.18 180.08 269.33 174.44
  A 0.40 0.39 1.7 0 0 268.84 173.93
  C 220.96 188.78 186.81 228.51 178.87 277.98
  C 177.36 287.37 164.65 285.40 166.53 274.75
  C 176.02 220.94 212.00 178.62 264.21 162.10
  Q 265.02 161.85 264.23 161.54
  Z"
/>
<path fill="#404042" d="
  M 430.81 265.98
  C 418.25 215.98 378.13 179.34 327.49 170.23
  C 322.04 169.24 322.00 160.67 326.86 158.32
  C 328.93 157.32 331.51 157.96 333.91 158.46
  C 388.50 169.72 430.34 210.51 443.58 264.25
  A 0.38 0.38 0.0 0 0 444.28 264.34
  Q 448.23 257.14 452.34 250.09
  C 454.64 246.15 460.25 246.28 462.89 249.69
  C 465.10 252.55 464.05 255.28 462.30 258.35
  Q 455.63 270.10 448.92 281.81
  C 444.90 288.82 441.75 287.52 435.87 284.21
  Q 417.95 274.13 413.04 271.20
  C 404.90 266.35 411.22 255.16 420.52 260.78
  Q 425.35 263.71 430.33 266.35
  Q 430.99 266.70 430.81 265.98
  Z"
/>
<path fill="#404042" d="
  M 238.74 275.17
  A 3.33 3.33 0.0 0 0 240.81 269.45
  C 234.31 263.17 228.07 257.18 231.84 247.48
  Q 233.20 243.96 239.28 237.86
  C 246.45 230.68 252.70 221.95 263.95 225.54
  C 268.70 227.05 272.50 231.47 276.08 235.16
  A 1.23 1.22 67.8 0 0 276.92 235.52
  C 282.85 235.69 281.48 229.35 281.46 225.50
  C 281.44 218.75 284.64 213.03 290.81 210.32
  Q 294.00 208.93 300.36 208.93
  C 306.92 208.93 315.88 208.00 321.28 210.37
  C 330.71 214.49 330.82 223.19 330.67 232.33
  A 3.34 3.34 0.0 0 0 336.40 234.71
  C 342.70 228.25 348.37 222.18 358.06 225.62
  Q 361.55 226.86 366.48 231.67
  C 374.21 239.20 385.21 247.09 379.68 259.58
  C 378.13 263.08 374.73 265.93 371.96 268.81
  C 369.02 271.87 370.42 275.38 374.66 275.23
  C 384.09 274.90 392.01 276.07 395.66 284.91
  Q 397.01 288.17 396.98 296.24
  C 396.94 307.21 398.91 318.38 386.99 323.32
  C 383.05 324.96 378.00 324.56 373.63 324.47
  A 3.39 3.39 0.0 0 0 371.19 330.27
  C 374.34 333.37 378.31 336.73 379.89 340.77
  C 384.80 353.26 374.04 360.52 366.43 368.12
  Q 361.81 372.73 358.44 374.00
  C 348.58 377.73 342.82 371.56 336.36 365.04
  A 3.36 3.36 0.0 0 0 330.62 367.45
  C 330.75 376.58 330.84 384.99 321.52 389.30
  Q 318.38 390.75 312.25 390.80
  C 305.81 390.85 296.13 391.90 290.62 389.36
  C 281.06 384.96 281.36 376.65 281.40 367.39
  A 3.31 3.31 0.0 0 0 275.84 364.95
  C 272.85 367.73 269.79 371.47 266.35 373.21
  C 255.55 378.65 249.02 371.77 241.93 364.52
  C 234.31 356.72 226.49 350.09 233.26 338.28
  Q 234.67 335.82 240.90 330.34
  Q 241.28 330.00 241.40 329.51
  C 242.14 326.47 240.76 324.59 237.58 324.54
  C 233.96 324.47 229.91 324.83 226.65 323.84
  C 212.49 319.55 214.83 305.54 215.08 292.83
  C 215.25 284.42 218.47 278.22 226.79 275.86
  C 230.33 274.86 234.85 275.45 238.74 275.17
  Z
  M 342.11 246.23
  C 333.65 251.12 322.20 246.90 318.85 237.71
  C 317.47 233.91 317.75 228.80 317.84 224.56
  A 2.81 2.81 0.0 0 0 315.03 221.69
  L 296.95 221.71
  A 2.83 2.82 89.2 0 0 294.13 224.62
  C 294.25 228.99 294.54 234.18 293.06 238.01
  C 289.74 246.57 279.37 250.55 271.20 246.86
  C 267.44 245.16 264.07 241.32 261.07 238.19
  A 2.76 2.75 45.5 0 0 257.14 238.15
  L 244.39 250.90
  A 2.91 2.91 0.0 0 0 244.44 255.07
  C 247.49 257.97 251.32 261.41 252.98 265.06
  C 257.11 274.09 251.81 285.22 242.08 287.55
  C 238.83 288.33 234.37 287.99 230.65 288.05
  A 2.94 2.94 0.0 0 0 227.76 290.99
  L 227.78 308.71
  A 3.04 3.04 0.0 0 0 230.83 311.75
  C 234.83 311.73 239.45 311.38 242.96 312.42
  C 253.02 315.40 257.37 327.59 252.10 336.37
  C 250.36 339.26 247.05 342.10 244.40 344.76
  A 2.89 2.89 0.0 0 0 244.41 348.84
  L 257.06 361.48
  A 2.84 2.84 0.0 0 0 261.06 361.50
  C 263.75 358.85 266.82 355.33 269.74 353.60
  C 278.18 348.61 289.51 352.75 293.02 361.73
  C 294.57 365.70 294.27 370.92 294.18 375.38
  A 2.63 2.62 0.9 0 0 296.79 378.06
  L 314.88 378.19
  A 2.94 2.94 0.0 0 0 317.84 375.17
  C 317.73 370.94 317.47 365.81 318.85 362.04
  C 322.03 353.31 332.48 349.12 340.79 352.87
  C 344.53 354.56 347.89 358.43 350.95 361.50
  A 2.89 2.88 -45.1 0 0 355.03 361.49
  L 367.62 348.85
  A 2.87 2.86 45.6 0 0 367.66 344.85
  C 364.98 342.05 361.36 338.98 359.61 335.95
  C 354.16 326.51 359.95 314.60 370.23 312.16
  C 373.46 311.40 377.75 311.83 381.36 311.71
  A 2.96 2.96 0.0 0 0 384.22 308.75
  L 384.23 290.97
  A 2.88 2.88 0.0 0 0 381.43 288.08
  C 377.45 287.97 372.66 288.36 369.20 287.39
  C 359.36 284.64 354.96 273.09 359.41 264.30
  C 361.18 260.80 364.92 257.77 367.76 254.80
  A 2.72 2.72 0.0 0 0 367.72 251.00
  L 355.01 238.29
  A 2.93 2.93 0.0 0 0 350.86 238.30
  C 348.15 241.02 345.13 244.49 342.11 246.23
  Z"
/>
<path fill="#fbfbfb" d="
  M 318.85 237.71
  C 322.20 246.90 333.65 251.12 342.11 246.23
  C 345.13 244.49 348.15 241.02 350.86 238.30
  A 2.93 2.93 0.0 0 1 355.01 238.29
  L 367.72 251.00
  A 2.72 2.72 0.0 0 1 367.76 254.80
  C 364.92 257.77 361.18 260.80 359.41 264.30
  C 354.96 273.09 359.36 284.64 369.20 287.39
  C 372.66 288.36 377.45 287.97 381.43 288.08
  A 2.88 2.88 0.0 0 1 384.23 290.97
  L 384.22 308.75
  A 2.96 2.96 0.0 0 1 381.36 311.71
  C 377.75 311.83 373.46 311.40 370.23 312.16
  C 359.95 314.60 354.16 326.51 359.61 335.95
  C 361.36 338.98 364.98 342.05 367.66 344.85
  A 2.87 2.86 45.6 0 1 367.62 348.85
  L 355.03 361.49
  A 2.89 2.88 -45.1 0 1 350.95 361.50
  C 347.89 358.43 344.53 354.56 340.79 352.87
  C 332.48 349.12 322.03 353.31 318.85 362.04
  C 317.47 365.81 317.73 370.94 317.84 375.17
  A 2.94 2.94 0.0 0 1 314.88 378.19
  L 296.79 378.06
  A 2.63 2.62 0.9 0 1 294.18 375.38
  C 294.27 370.92 294.57 365.70 293.02 361.73
  C 289.51 352.75 278.18 348.61 269.74 353.60
  C 266.82 355.33 263.75 358.85 261.06 361.50
  A 2.84 2.84 0.0 0 1 257.06 361.48
  L 244.41 348.84
  A 2.89 2.89 0.0 0 1 244.40 344.76
  C 247.05 342.10 250.36 339.26 252.10 336.37
  C 257.37 327.59 253.02 315.40 242.96 312.42
  C 239.45 311.38 234.83 311.73 230.83 311.75
  A 3.04 3.04 0.0 0 1 227.78 308.71
  L 227.76 290.99
  A 2.94 2.94 0.0 0 1 230.65 288.05
  C 234.37 287.99 238.83 288.33 242.08 287.55
  C 251.81 285.22 257.11 274.09 252.98 265.06
  C 251.32 261.41 247.49 257.97 244.44 255.07
  A 2.91 2.91 0.0 0 1 244.39 250.90
  L 257.14 238.15
  A 2.76 2.75 45.5 0 1 261.07 238.19
  C 264.07 241.32 267.44 245.16 271.20 246.86
  C 279.37 250.55 289.74 246.57 293.06 238.01
  C 294.54 234.18 294.25 228.99 294.13 224.62
  A 2.83 2.82 89.2 0 1 296.95 221.71
  L 315.03 221.69
  A 2.81 2.81 0.0 0 1 317.84 224.56
  C 317.75 228.80 317.47 233.91 318.85 237.71
  Z
  M 341.45 299.88
  A 35.45 35.45 0.0 0 0 306.00 264.43
  A 35.45 35.45 0.0 0 0 270.55 299.88
  A 35.45 35.45 0.0 0 0 306.00 335.33
  A 35.45 35.45 0.0 0 0 341.45 299.88
  Z"
/>
<path fill="#404042" d="
  M 341.45 299.88
  A 35.45 35.45 0.0 0 1 306.00 335.33
  A 35.45 35.45 0.0 0 1 270.55 299.88
  A 35.45 35.45 0.0 0 1 306.00 264.43
  A 35.45 35.45 0.0 0 1 341.45 299.88
  Z
  M 328.69 299.88
  A 22.69 22.69 0.0 0 0 306.00 277.19
  A 22.69 22.69 0.0 0 0 283.31 299.88
  A 22.69 22.69 0.0 0 0 306.00 322.57
  A 22.69 22.69 0.0 0 0 328.69 299.88
  Z"
/>
<circle fill="#fbfbfb" cx="306.00" cy="299.88" r="22.69"/>
<path fill="#404042" d="
  M 181.59 325.89
  Q 180.55 325.13 180.85 326.37
  C 192.32 373.73 228.39 410.23 275.90 422.02
  Q 280.08 423.06 281.37 424.05
  C 284.82 426.70 283.67 433.32 279.44 434.81
  Q 277.47 435.50 274.05 434.69
  C 221.30 422.18 180.99 381.75 168.44 328.99
  Q 168.29 328.34 167.88 328.87
  Q 163.54 334.48 159.59 340.26
  C 154.92 347.10 143.68 340.53 149.77 332.03
  Q 156.87 322.11 164.12 312.31
  C 167.80 307.32 170.44 302.01 177.39 307.05
  Q 188.15 314.86 198.89 322.68
  Q 202.31 325.17 203.18 326.72
  C 205.42 330.69 201.42 336.55 196.78 335.84
  Q 194.86 335.54 191.73 333.28
  Q 186.47 329.47 181.59 325.89
  Z"
/>
<path fill="#404042" d="
  M 341.55 419.74
  Q 340.49 421.05 342.11 420.56
  C 390.59 405.70 425.94 365.79 433.35 315.23
  Q 433.95 311.12 435.21 309.64
  C 439.82 304.27 447.19 309.12 446.23 315.76
  C 437.89 373.66 397.14 419.21 340.95 434.04
  A 0.39 0.38 -33.8 0 0 340.81 434.72
  Q 346.58 439.11 352.09 444.02
  C 355.35 446.92 356.78 450.85 353.38 454.13
  Q 349.33 458.04 344.60 454.17
  Q 333.29 444.92 322.14 435.49
  C 318.00 431.98 317.28 428.94 320.77 424.72
  Q 329.65 413.94 338.70 403.33
  Q 341.17 400.44 343.26 399.84
  C 349.17 398.14 353.37 405.67 349.13 410.64
  Q 345.02 415.45 341.55 419.74
  Z"
/>
</svg>
