<?xml version="1.0" encoding="UTF-8" standalone="no"?>
<!DOCTYPE svg PUBLIC "-//W3C//DTD SVG 1.1//EN" "http://www.w3.org/Graphics/SVG/1.1/DTD/svg11.dtd">
<svg xmlns="http://www.w3.org/2000/svg" version="1.1" viewBox="0.00 0.00 225.00 225.00">
<g stroke-width="2.00" fill="none" stroke-linecap="butt">
<path stroke="#808080" vector-effect="non-scaling-stroke" d="
  M 189.50 38.70
  C 164.25 43.27 139.27 35.48 120.20 18.66
  C 115.30 14.34 112.12 11.79 106.73 16.97
  C 87.32 35.66 58.95 44.07 32.29 37.85
  C 28.34 36.93 22.19 34.55 18.62 35.68
  Q 14.12 37.11 14.02 42.50
  Q 13.74 58.80 16.52 81.99
  Q 19.25 104.73 27.05 126.23
  C 41.29 165.49 69.87 192.15 107.30 209.15
  C 109.33 210.07 111.98 211.57 114.02 210.77
  Q 129.32 204.81 147.28 192.30
  C 197.01 157.68 210.72 101.41 210.91 44.05
  C 210.93 36.94 207.23 34.09 200.20 36.04
  Q 192.65 38.13 189.50 38.70"
/>
<path stroke="#808080" vector-effect="non-scaling-stroke" d="
  M 112.18 30.73
  C 88.68 50.30 58.86 58.38 28.84 51.58
  Q 28.40 51.48 28.40 51.93
  Q 28.41 85.76 38.87 117.60
  C 51.00 154.54 76.75 179.72 111.80 195.66
  Q 112.75 196.09 113.69 195.65
  C 151.12 178.36 177.57 150.35 188.54 109.98
  Q 196.41 81.04 196.72 51.97
  Q 196.72 51.41 196.18 51.52
  Q 184.88 53.84 181.74 54.00
  Q 143.41 56.04 112.98 30.73
  A 0.62 0.62 0.0 0 0 112.18 30.73"
/>
<path stroke="#808080" vector-effect="non-scaling-stroke" d="
  M 105.13 123.31
  Q 98.41 116.84 91.90 110.17
  Q 88.47 106.66 86.69 105.91
  C 82.12 103.98 76.27 108.79 77.50 113.81
  Q 78.03 115.95 80.76 118.69
  Q 90.45 128.40 100.13 138.11
  C 105.01 142.99 108.96 139.98 113.05 135.87
  Q 132.71 116.13 152.45 96.45
  C 157.89 91.04 151.95 81.88 144.99 85.10
  Q 143.29 85.89 140.09 89.08
  Q 122.97 106.16 105.90 123.30
  Q 105.52 123.68 105.13 123.31"
/>
</g>
<path fill="#ffffff" d="
  M 0.00 0.00
  L 225.00 0.00
  L 225.00 225.00
  L 0.00 225.00
  L 0.00 0.00
  Z
  M 189.50 38.70
  C 164.25 43.27 139.27 35.48 120.20 18.66
  C 115.30 14.34 112.12 11.79 106.73 16.97
  C 87.32 35.66 58.95 44.07 32.29 37.85
  C 28.34 36.93 22.19 34.55 18.62 35.68
  Q 14.12 37.11 14.02 42.50
  Q 13.74 58.80 16.52 81.99
  Q 19.25 104.73 27.05 126.23
  C 41.29 165.49 69.87 192.15 107.30 209.15
  C 109.33 210.07 111.98 211.57 114.02 210.77
  Q 129.32 204.81 147.28 192.30
  C 197.01 157.68 210.72 101.41 210.91 44.05
  C 210.93 36.94 207.23 34.09 200.20 36.04
  Q 192.65 38.13 189.50 38.70
  Z"
/>
<path fill="#000000" d="
  M 120.20 18.66
  C 139.27 35.48 164.25 43.27 189.50 38.70
  Q 192.65 38.13 200.20 36.04
  C 207.23 34.09 210.93 36.94 210.91 44.05
  C 210.72 101.41 197.01 157.68 147.28 192.30
  Q 129.32 204.81 114.02 210.77
  C 111.98 211.57 109.33 210.07 107.30 209.15
  C 69.87 192.15 41.29 165.49 27.05 126.23
  Q 19.25 104.73 16.52 81.99
  Q 13.74 58.80 14.02 42.50
  Q 14.12 37.11 18.62 35.68
  C 22.19 34.55 28.34 36.93 32.29 37.85
  C 58.95 44.07 87.32 35.66 106.73 16.97
  C 112.12 11.79 115.30 14.34 120.20 18.66
  Z
  M 112.18 30.73
  C 88.68 50.30 58.86 58.38 28.84 51.58
  Q 28.40 51.48 28.40 51.93
  Q 28.41 85.76 38.87 117.60
  C 51.00 154.54 76.75 179.72 111.80 195.66
  Q 112.75 196.09 113.69 195.65
  C 151.12 178.36 177.57 150.35 188.54 109.98
  Q 196.41 81.04 196.72 51.97
  Q 196.72 51.41 196.18 51.52
  Q 184.88 53.84 181.74 54.00
  Q 143.41 56.04 112.98 30.73
  A 0.62 0.62 0.0 0 0 112.18 30.73
  Z"
/>
<path fill="#ffffff" d="
  M 28.84 51.58
  C 58.86 58.38 88.68 50.30 112.18 30.73
  A 0.62 0.62 0.0 0 1 112.98 30.73
  Q 143.41 56.04 181.74 54.00
  Q 184.88 53.84 196.18 51.52
  Q 196.72 51.41 196.72 51.97
  Q 196.41 81.04 188.54 109.98
  C 177.57 150.35 151.12 178.36 113.69 195.65
  Q 112.75 196.09 111.80 195.66
  C 76.75 179.72 51.00 154.54 38.87 117.60
  Q 28.41 85.76 28.40 51.93
  Q 28.40 51.48 28.84 51.58
  Z
  M 105.13 123.31
  Q 98.41 116.84 91.90 110.17
  Q 88.47 106.66 86.69 105.91
  C 82.12 103.98 76.27 108.79 77.50 113.81
  Q 78.03 115.95 80.76 118.69
  Q 90.45 128.40 100.13 138.11
  C 105.01 142.99 108.96 139.98 113.05 135.87
  Q 132.71 116.13 152.45 96.45
  C 157.89 91.04 151.95 81.88 144.99 85.10
  Q 143.29 85.89 140.09 89.08
  Q 122.97 106.16 105.90 123.30
  Q 105.52 123.68 105.13 123.31
  Z"
/>
<path fill="#000000" d="
  M 105.90 123.30
  Q 122.97 106.16 140.09 89.08
  Q 143.29 85.89 144.99 85.10
  C 151.95 81.88 157.89 91.04 152.45 96.45
  Q 132.71 116.13 113.05 135.87
  C 108.96 139.98 105.01 142.99 100.13 138.11
  Q 90.45 128.40 80.76 118.69
  Q 78.03 115.95 77.50 113.81
  C 76.27 108.79 82.12 103.98 86.69 105.91
  Q 88.47 106.66 91.90 110.17
  Q 98.41 116.84 105.13 123.31
  Q 105.52 123.68 105.90 123.30
  Z"
/>
</svg>
